# Blender 5.0.1
# www.blender.org
o ground
v 12.297078 0.136556 -12.297078
v 11.179162 0.214753 -12.297078
v 10.061246 0.249838 -12.297078
v 8.943330 0.225004 -12.297078
v 7.825413 0.152146 -12.297078
v 6.707497 0.066203 -12.297078
v 5.589581 0.008524 -12.297078
v 4.471665 0.000001 -12.297078
v 3.353748 0.000317 -12.297078
v 2.235832 0.021732 -12.297078
v 1.117916 0.068628 -12.297078
v 0.000000 0.135844 -12.297078
v -1.117917 0.194032 -12.297078
v -2.235833 0.213389 -12.297078
v -3.353748 0.217816 -12.297078
v -4.471665 0.233080 -12.297078
v -5.589581 0.270520 -12.297078
v -6.707498 0.322380 -12.297078
v -7.825415 0.368707 -12.297078
v -8.943330 0.405270 -12.297078
v -10.061246 0.427784 -12.297078
v -11.179163 0.434324 -12.297078
v -12.297078 0.424396 -12.297078
v 12.297078 0.139209 -11.179162
v 11.179162 0.218308 -11.179162
v 10.061246 0.253766 -11.179162
v 8.943330 0.228670 -11.179162
v 7.825413 0.154989 -11.179162
v 6.707497 0.067894 -11.179162
v 5.589581 0.009047 -11.179162
v 4.471665 0.000001 -11.179162
v 3.353748 0.009685 -11.179162
v 2.235832 0.056525 -11.179162
v 1.117916 0.130507 -11.179162
v 0.000000 0.216349 -11.179162
v -1.117917 0.249442 -11.179162
v -2.235833 0.235506 -11.179162
v -3.353748 0.211724 -11.179162
v -4.471665 0.212944 -11.179162
v -5.589581 0.253409 -11.179162
v -6.707498 0.321661 -11.179162
v -7.825415 0.389619 -11.179162
v -8.943330 0.431793 -11.179162
v -10.061246 0.455264 -11.179162
v -11.179163 0.462078 -11.179162
v -12.297078 0.451732 -11.179162
v 12.297078 0.102716 -10.061246
v 11.179162 0.168874 -10.061246
v 10.061246 0.198969 -10.061246
v 8.943330 0.177646 -10.061246
v 7.825413 0.115776 -10.061246
v 6.707497 0.045153 -10.061246
v 5.589581 0.002925 -10.061246
v 4.471665 0.000001 -10.061246
v 3.353748 0.023731 -10.061246
v 2.235832 0.089945 -10.061246
v 1.117916 0.183916 -10.061246
v 0.000000 0.269259 -10.061246
v -1.117917 0.280683 -10.061246
v -2.235833 0.240734 -10.061246
v -3.353748 0.194289 -10.061246
v -4.471665 0.182569 -10.061246
v -5.589581 0.223857 -10.061246
v -6.707498 0.304391 -10.061246
v -7.825415 0.389038 -10.061246
v -8.943330 0.442447 -10.061246
v -10.061246 0.466297 -10.061246
v -11.179163 0.473221 -10.061246
v -12.297078 0.462708 -10.061246
v 12.297078 0.047682 -8.943330
v 11.179162 0.090891 -8.943330
v 10.061246 0.111426 -8.943330
v 8.943330 0.096832 -8.943330
v 7.825413 0.055937 -8.943330
v 6.707497 0.014259 -8.943330
v 5.589581 0.004359 -8.943330
v 4.471665 0.009379 -8.943330
v 3.353748 0.038140 -8.943330
v 2.235832 0.108629 -8.943330
v 1.117916 0.211857 -8.943330
v 0.000000 0.296257 -8.943330
v -1.117917 0.300496 -8.943330
v -2.235833 0.248815 -8.943330
v -3.353748 0.188223 -8.943330
v -4.471665 0.166570 -8.943330
v -5.589581 0.204240 -8.943330
v -6.707498 0.287015 -8.943330
v -7.825415 0.377572 -8.943330
v -8.943330 0.436324 -8.943330
v -10.061246 0.460069 -8.943330
v -11.179163 0.466931 -8.943330
v -12.297078 0.456512 -8.943330
v 12.297078 0.006350 -7.825413
v 11.179162 0.023213 -7.825413
v 10.061246 0.032652 -7.825413
v 8.943330 0.025874 -7.825413
v 7.825413 0.010274 -7.825413
v 6.707497 0.026583 -7.825413
v 5.589581 0.062671 -7.825413
v 4.471665 0.081025 -7.825413
v 3.353748 0.098691 -7.825413
v 2.235832 0.138190 -7.825413
v 1.117916 0.209102 -7.825413
v 0.000000 0.296278 -7.825413
v -1.117917 0.310385 -7.825413
v -2.235833 0.263804 -7.825413
v -3.353748 0.204145 -7.825413
v -4.471665 0.178377 -7.825413
v -5.589581 0.207648 -7.825413
v -6.707498 0.279862 -7.825413
v -7.825415 0.360265 -7.825413
v -8.943330 0.411639 -7.825413
v -10.061246 0.437039 -7.825413
v -11.179163 0.443672 -7.825413
v -12.297078 0.433602 -7.825413
v 12.297078 0.000001 -6.707497
v 11.179162 0.000012 -6.707497
v 10.061246 0.000031 -6.707497
v 8.943330 0.000001 -6.707497
v 7.825413 0.025081 -6.707497
v 6.707497 0.092081 -6.707497
v 5.589581 0.160838 -6.707497
v 4.471665 0.192567 -6.707497
v 3.353748 0.189539 -6.707497
v 2.235832 0.186255 -6.707497
v 1.117916 0.202167 -6.707497
v 0.000000 0.261587 -6.707497
v -1.117917 0.297677 -6.707497
v -2.235833 0.273293 -6.707497
v -3.353748 0.228735 -6.707497
v -4.471665 0.205364 -6.707497
v -5.589581 0.223625 -6.707497
v -6.707498 0.275513 -6.707497
v -7.825415 0.332967 -6.707497
v -8.943330 0.371792 -6.707497
v -10.061246 0.398852 -6.707497
v -11.179163 0.405158 -6.707497
v -12.297078 0.395676 -6.707497
v 12.297078 0.009413 -5.589581
v 11.179162 0.012643 -5.589581
v 10.061246 0.009579 -5.589581
v 8.943330 0.005897 -5.589581
v 7.825413 0.057751 -5.589581
v 6.707497 0.156373 -5.589581
v 5.589581 0.249534 -5.589581
v 4.471665 0.291358 -5.589581
v 3.353748 0.267261 -5.589581
v 2.235832 0.220027 -5.589581
v 1.117916 0.182742 -5.589581
v 0.000000 0.192446 -5.589581
v -1.117917 0.244914 -5.589581
v -2.235833 0.251550 -5.589581
v -3.353748 0.231015 -5.589581
v -4.471665 0.215833 -5.589581
v -5.589581 0.224242 -5.589581
v -6.707498 0.252989 -5.589581
v -7.825415 0.283559 -5.589581
v -8.943330 0.322751 -5.589581
v -10.061246 0.351225 -5.589581
v -11.179163 0.356177 -5.589581
v -12.297078 0.345549 -5.589581
v 12.297078 0.036155 -4.471665
v 11.179162 0.043153 -4.471665
v 10.061246 0.036527 -4.471665
v 8.943330 0.026285 -4.471665
v 7.825413 0.076910 -4.471665
v 6.707497 0.182626 -4.471665
v 5.589581 0.284787 -4.471665
v 4.471665 0.330322 -4.471665
v 3.353748 0.297656 -4.471665
v 2.235832 0.215870 -4.471665
v 1.117916 0.140216 -4.471665
v 0.000000 0.110181 -4.471665
v -1.117917 0.146048 -4.471665
v -2.235833 0.176721 -4.471665
v -3.353748 0.181750 -4.471665
v -4.471665 0.178438 -4.471665
v -5.589581 0.181585 -4.471665
v -6.707498 0.194620 -4.471665
v -7.825415 0.241029 -4.471665
v -8.943330 0.311078 -4.471665
v -10.061246 0.354557 -4.471665
v -11.179163 0.354193 -4.471665
v -12.297078 0.318028 -4.471665
v 12.297078 0.066012 -3.353748
v 11.179162 0.067848 -3.353748
v 10.061246 0.050797 -3.353748
v 8.943330 0.030560 -3.353748
v 7.825413 0.067380 -3.353748
v 6.707497 0.156814 -3.353748
v 5.589581 0.249201 -3.353748
v 4.471665 0.290990 -3.353748
v 3.353748 0.260996 -3.353748
v 2.235832 0.173927 -3.353748
v 1.117916 0.082161 -3.353748
v 0.000000 0.037390 -3.353748
v -1.117917 0.055308 -3.353748
v -2.235833 0.076737 -3.353748
v -3.353748 0.088911 -3.353748
v -4.471665 0.097219 -3.353748
v -5.589581 0.111614 -3.353748
v -6.707498 0.152391 -3.353748
v -7.825415 0.247706 -3.353748
v -8.943330 0.348603 -3.353748
v -10.061246 0.407022 -3.353748
v -11.179163 0.401087 -3.353748
v -12.297078 0.337315 -3.353748
v 12.297078 0.065119 -2.235832
v 11.179162 0.048432 -2.235832
v 10.061246 0.018781 -2.235832
v 8.943330 -0.006765 -2.235832
v 7.825413 0.008207 -2.235832
v 6.707497 0.081624 -2.235832
v 5.589581 0.160337 -2.235832
v 4.471665 0.192004 -2.235832
v 3.353748 0.169232 -2.235832
v 2.235832 0.104583 -2.235832
v 1.117916 0.034356 -2.235832
v 0.000000 0.000728 -2.235832
v -1.117917 0.004924 -2.235832
v -2.235833 0.015990 -2.235832
v -3.353748 0.029329 -2.235832
v -4.471665 0.047021 -2.235832
v -5.589581 0.073397 -2.235832
v -6.707498 0.141216 -2.235832
v -7.825415 0.264010 -2.235832
v -8.943330 0.387226 -2.235832
v -10.061246 0.458299 -2.235832
v -11.179163 0.447716 -2.235832
v -12.297078 0.362143 -2.235832
v 12.297078 0.029975 -1.117916
v 11.179162 -0.005510 -1.117916
v 10.061246 -0.044867 -1.117916
v 8.943330 -0.068021 -1.117916
v 7.825413 -0.063142 -1.117916
v 6.707497 -0.010586 -1.117916
v 5.589581 0.057128 -1.117916
v 4.471665 0.080284 -1.117916
v 3.353748 0.067245 -1.117916
v 2.235832 0.032613 -1.117916
v 1.117916 0.003318 -1.117916
v 0.000000 0.000000 -1.117916
v -1.117917 0.000000 -1.117916
v -2.235833 0.001367 -1.117916
v -3.353748 0.010161 -1.117916
v -4.471665 0.025135 -1.117916
v -5.589581 0.044868 -1.117916
v -6.707498 0.119306 -1.117916
v -7.825415 0.250614 -1.117916
v -8.943330 0.383016 -1.117916
v -10.061246 0.458936 -1.117916
v -11.179163 0.445731 -1.117916
v -12.297078 0.350630 -1.117916
v 12.297078 -0.017197 -0.000000
v 11.179162 -0.066224 -0.000000
v 10.061246 -0.109662 -0.000000
v 8.943330 -0.126240 -0.000000
v 7.825413 -0.107104 -0.000000
v 6.707497 -0.060017 -0.000000
v 5.589581 -0.008496 -0.000000
v 4.471665 0.008804 0.000000
v 3.353748 0.005387 0.000000
v 2.235832 0.000045 0.000000
v 1.117916 0.000000 0.000000
v 0.000000 0.000000 0.000000
v -1.117917 0.000000 0.000000
v -2.235833 0.000000 0.000000
v -3.353748 0.000836 0.000000
v -4.471665 0.006975 0.000000
v -5.589581 0.017617 0.000000
v -6.707498 0.077241 0.000000
v -7.825415 0.194511 0.000000
v -8.943330 0.318341 0.000000
v -10.061246 0.391872 0.000000
v -11.179163 0.380607 0.000000
v -12.297078 0.290358 0.000000
v 12.297078 -0.050411 1.117917
v 11.179162 -0.103654 1.117917
v 10.061246 -0.144359 1.117917
v 8.943330 -0.152132 1.117917
v 7.825413 -0.120739 1.117917
v 6.707497 -0.062341 1.117917
v 5.589581 -0.013474 1.117917
v 4.471665 -0.000000 1.117917
v 3.353748 -0.000000 1.117917
v 2.235832 -0.000000 1.117917
v 1.117916 -0.000000 1.117917
v 0.000000 -0.000000 1.117917
v -1.117917 -0.000000 1.117917
v -2.235833 -0.000000 1.117917
v -3.353748 -0.000000 1.117917
v -4.471665 0.000020 1.117917
v -5.589581 0.002834 1.117917
v -6.707498 0.038670 1.117917
v -7.825415 0.135864 1.117917
v -8.943330 0.245129 1.117917
v -10.061246 0.313118 1.117917
v -11.179163 0.308532 1.117917
v -12.297078 0.235994 1.117917
v 12.297078 -0.053063 2.235833
v 11.179162 -0.100075 2.235833
v 10.061246 -0.132014 2.235833
v 8.943330 -0.131233 2.235833
v 7.825413 -0.094718 2.235833
v 6.707497 -0.043700 2.235833
v 5.589581 -0.006545 2.235833
v 4.471665 -0.000000 2.235833
v 3.353748 -0.000000 2.235833
v 2.235832 -0.000000 2.235833
v 1.117916 -0.000000 2.235833
v 0.000000 -0.000000 2.235833
v -1.117917 -0.000000 2.235833
v -2.235833 -0.000000 2.235833
v -3.353748 -0.000000 2.235833
v -4.471665 0.003859 2.235833
v -5.589581 0.025806 2.235833
v -6.707498 0.061199 2.235833
v -7.825415 0.130732 2.235833
v -8.943330 0.215649 2.235833
v -10.061246 0.273053 2.235833
v -11.179163 0.277093 2.235833
v -12.297078 0.230698 2.235833
v 12.297078 -0.020467 3.353748
v 11.179162 -0.013701 3.353748
v 10.061246 -0.005079 3.353748
v 8.943330 -0.013315 3.353748
v 7.825413 -0.027988 3.353748
v 6.707497 -0.015372 3.353748
v 5.589581 0.005831 3.353748
v 4.471665 0.009805 3.353748
v 3.353748 0.010110 3.353748
v 2.235832 0.006695 3.353748
v 1.117916 0.001914 3.353748
v 0.000000 -0.000000 3.353748
v -1.117917 -0.000000 3.353748
v -2.235833 -0.000000 3.353748
v -3.353748 0.005054 3.353748
v -4.471665 0.035369 3.353748
v -5.589581 0.086007 3.353748
v -6.707498 0.147479 3.353748
v -7.825415 0.209839 3.353748
v -8.943330 0.272744 3.353748
v -10.061246 0.320356 3.353748
v -11.179163 0.333784 3.353748
v -12.297078 0.314164 3.353748
v 12.297078 0.105759 4.471665
v 11.179162 0.220597 4.471665
v 10.061246 0.282454 4.471665
v 8.943330 0.255166 4.471665
v 7.825413 0.165065 4.471665
v 6.707497 0.071371 4.471665
v 5.589581 0.045759 4.471665
v 4.471665 0.056634 4.471665
v 3.353748 0.057443 4.471665
v 2.235832 0.047923 4.471665
v 1.117916 0.031210 4.471665
v 0.000000 0.013199 4.471665
v -1.117917 0.001330 4.471665
v -2.235833 0.002145 4.471665
v -3.353748 0.032256 4.471665
v -4.471665 0.092027 4.471665
v -5.589581 0.171822 4.471665
v -6.707498 0.260411 4.471665
v -7.825415 0.346165 4.471665
v -8.943330 0.418276 4.471665
v -10.061246 0.467877 4.471665
v -11.179163 0.488957 4.471665
v -12.297078 0.478981 4.471665
v 12.297078 0.271818 5.589581
v 11.179162 0.478963 5.589581
v 10.061246 0.589156 5.589581
v 8.943330 0.560380 5.589581
v 7.825413 0.415167 5.589581
v 6.707497 0.236076 5.589581
v 5.589581 0.129120 5.589581
v 4.471665 0.134627 5.589581
v 3.353748 0.135980 5.589581
v 2.235832 0.119842 5.589581
v 1.117916 0.090124 5.589581
v 0.000000 0.054238 5.589581
v -1.117917 0.021683 5.589581
v -2.235833 0.020639 5.589581
v -3.353748 0.075894 5.589581
v -4.471665 0.164111 5.589581
v -5.589581 0.271852 5.589581
v -6.707498 0.386292 5.589581
v -7.825415 0.494292 5.589581
v -8.943330 0.583724 5.589581
v -10.061246 0.644684 5.589581
v -11.179163 0.670476 5.589581
v -12.297078 0.658278 5.589581
v 12.297078 0.396194 6.707498
v 11.179162 0.653470 6.707498
v 10.061246 0.800531 6.707498
v 8.943330 0.783494 6.707498
v 7.825413 0.619645 6.707498
v 6.707497 0.400313 6.707498
v 5.589581 0.245371 6.707498
v 4.471665 0.230840 6.707498
v 3.353748 0.232733 6.707498
v 2.235832 0.210043 6.707498
v 1.117916 0.167404 6.707498
v 0.000000 0.113639 6.707498
v -1.117917 0.063645 6.707498
v -2.235833 0.063578 6.707498
v -3.353748 0.127312 6.707498
v -4.471665 0.240839 6.707498
v -5.589581 0.373673 6.707498
v -6.707498 0.511232 6.707498
v -7.825415 0.639069 6.707498
v -8.943330 0.743917 6.707498
v -10.061246 0.814973 6.707498
v -11.179163 0.844948 6.707498
v -12.297078 0.830777 6.707498
v 12.297078 0.408954 7.825415
v 11.179162 0.675562 7.825415
v 10.061246 0.843377 7.825415
v 8.943330 0.845375 7.825415
v 7.825413 0.697268 7.825415
v 6.707497 0.489134 7.825415
v 5.589581 0.340485 7.825415
v 4.471665 0.329348 7.825415
v 3.353748 0.331724 7.825415
v 2.235832 0.303153 7.825415
v 1.117916 0.248887 7.825415
v 0.000000 0.178961 7.825415
v -1.117917 0.119450 7.825415
v -2.235833 0.118571 7.825415
v -3.353748 0.183997 7.825415
v -4.471665 0.311547 7.825415
v -5.589581 0.465117 7.825415
v -6.707498 0.621725 7.825415
v -7.825415 0.765874 7.825415
v -8.943330 0.883377 7.825415
v -10.061246 0.962713 7.825415
v -11.179163 0.996119 7.825415
v -12.297078 0.980331 7.825415
v 12.297078 0.302776 8.943330
v 11.179162 0.536899 8.943330
v 10.061246 0.700515 8.943330
v 8.943330 0.726945 8.943330
v 7.825413 0.627656 8.943330
v 6.707497 0.481803 8.943330
v 5.589581 0.394537 8.943330
v 4.471665 0.413856 8.943330
v 3.353748 0.416614 8.943330
v 2.235832 0.383394 8.943330
v 1.117916 0.319921 8.943330
v 0.000000 0.237160 8.943330
v -1.117917 0.172832 8.943330
v -2.235833 0.170041 8.943330
v -3.353748 0.235224 8.943330
v -4.471665 0.366813 8.943330
v -5.589581 0.535502 8.943330
v -6.707498 0.705975 8.943330
v -7.825415 0.861978 8.943330
v -8.943330 0.988670 8.943330
v -10.061246 1.074014 8.943330
v -11.179163 1.109908 8.943330
v -12.297078 1.092947 8.943330
v 12.297078 0.139244 10.061246
v 11.179162 0.305565 10.061246
v 10.061246 0.443402 10.061246
v 8.943330 0.495161 10.061246
v 7.825413 0.466435 10.061246
v 6.707497 0.417845 10.061246
v 5.589581 0.428708 10.061246
v 4.471665 0.470395 10.061246
v 3.353748 0.473396 10.061246
v 2.235832 0.437212 10.061246
v 1.117916 0.367863 10.061246
v 0.000000 0.276969 10.061246
v -1.117917 0.209906 10.061246
v -2.235833 0.204866 10.061246
v -3.353748 0.268706 10.061246
v -4.471665 0.400288 10.061246
v -5.589581 0.576730 10.061246
v -6.707498 0.755061 10.061246
v -7.825415 0.917778 10.061246
v -8.943330 1.049670 10.061246
v -10.061246 1.138413 10.061246
v -11.179163 1.175715 10.061246
v -12.297078 1.158090 10.061246
v 12.297078 0.017317 11.179163
v 11.179162 0.098191 11.179163
v 10.061246 0.196980 11.179163
v 8.943330 0.269480 11.179163
v 7.825413 0.315200 11.179163
v 6.707497 0.371795 11.179163
v 5.589581 0.446795 11.179163
v 4.471665 0.489622 11.179163
v 3.353748 0.492704 11.179163
v 2.235832 0.455534 11.179163
v 1.117916 0.384231 11.179163
v 0.000000 0.290674 11.179163
v -1.117917 0.221629 11.179163
v -2.235833 0.214568 11.179163
v -3.353748 0.276586 11.179163
v -4.471665 0.406750 11.179163
v -5.589581 0.584093 11.179163
v -6.707498 0.763809 11.179163
v -7.825415 0.927709 11.179163
v -8.943330 1.060517 11.179163
v -10.061246 1.149859 11.179163
v -11.179163 1.187408 11.179163
v -12.297078 1.169667 11.179163
v 12.297078 0.000039 12.297078
v 11.179162 0.021826 12.297078
v 10.061246 0.080255 12.297078
v 8.943330 0.164297 12.297078
v 7.825413 0.260926 12.297078
v 6.707497 0.353581 12.297078
v 5.589581 0.426795 12.297078
v 4.471665 0.468361 12.297078
v 3.353748 0.471353 12.297078
v 2.235832 0.435274 12.297078
v 1.117916 0.366134 12.297078
v 0.000000 0.275458 12.297078
v -1.117917 0.205305 12.297078
v -2.235833 0.196736 12.297078
v -3.353748 0.256754 12.297078
v -4.471665 0.384390 12.297078
v -5.589581 0.556753 12.297078
v -6.707498 0.731299 12.297078
v -7.825415 0.890782 12.297078
v -8.943330 1.020169 12.297078
v -10.061246 1.107276 12.297078
v -11.179163 1.143899 12.297078
v -12.297078 1.126594 12.297078
vn 0.0698 0.9976 -0.0024
vn 0.0314 0.9995 -0.0032
vn -0.0224 0.9997 -0.0035
vn -0.0658 0.9978 -0.0033
vn -0.0777 0.9970 -0.0025
vn -0.0526 0.9986 -0.0015
vn -0.0081 1.0000 -0.0005
vn 0.0003 1.0000 -0.0000
vn 0.0192 0.9998 -0.0084
vn 0.0419 0.9986 -0.0311
vn 0.0599 0.9967 -0.0552
vn 0.0518 0.9961 -0.0717
vn 0.0173 0.9986 -0.0495
vn -0.0213 0.9996 -0.0198
vn 0.0011 1.0000 0.0054
vn 0.0362 0.9992 0.0180
vn 0.0609 0.9980 0.0153
vn 0.0414 0.9991 0.0006
vn 0.0327 0.9993 -0.0187
vn 0.0201 0.9995 -0.0237
vn 0.0058 0.9997 -0.0246
vn -0.0093 0.9996 -0.0248
vn 0.0590 0.9977 0.0326
vn 0.0269 0.9987 0.0442
vn -0.0224 0.9985 0.0489
vn -0.0657 0.9968 0.0455
vn -0.0776 0.9964 0.0349
vn -0.0526 0.9984 0.0203
vn -0.0081 1.0000 0.0055
vn 0.0087 1.0000 -0.0000
vn 0.0419 0.9990 -0.0126
vn 0.0660 0.9974 -0.0298
vn 0.0765 0.9959 -0.0476
vn 0.0296 0.9984 -0.0473
vn -0.0357 0.9990 -0.0279
vn -0.0213 0.9998 -0.0047
vn 0.0011 0.9999 0.0156
vn 0.0369 0.9990 0.0271
vn 0.0718 0.9971 0.0264
vn 0.0755 0.9970 0.0154
vn 0.0377 0.9993 0.0005
vn 0.0210 0.9997 -0.0095
vn 0.0061 0.9999 -0.0099
vn -0.0094 0.9999 -0.0100
vn 0.0386 0.9980 0.0491
vn 0.0183 0.9974 0.0696
vn -0.0190 0.9968 0.0781
vn -0.0551 0.9959 0.0720
vn -0.0630 0.9966 0.0533
vn -0.0377 0.9989 0.0276
vn -0.0026 1.0000 -0.0013
vn 0.0212 0.9997 -0.0084
vn 0.0591 0.9982 -0.0129
vn 0.0838 0.9963 -0.0167
vn 0.0761 0.9968 -0.0249
vn 0.0102 0.9997 -0.0241
vn -0.0462 0.9988 -0.0177
vn -0.0541 0.9985 -0.0072
vn -0.0105 0.9999 0.0054
vn 0.0337 0.9993 0.0143
vn 0.0738 0.9971 0.0175
vn 0.0807 0.9966 0.0155
vn 0.0525 0.9986 0.0102
vn 0.0212 0.9998 0.0055
vn 0.0061 1.0000 0.0056
vn -0.0094 0.9999 0.0056
vn 0.0151 0.9992 0.0369
vn 0.0084 0.9981 0.0604
vn -0.0130 0.9974 0.0703
vn -0.0365 0.9973 0.0633
vn -0.0372 0.9985 0.0408
vn -0.0089 0.9999 -0.0110
vn 0.0045 0.9986 -0.0521
vn 0.0257 0.9976 -0.0639
vn 0.0628 0.9966 -0.0540
vn 0.0919 0.9954 -0.0263
vn 0.0777 0.9970 0.0025
vn 0.0038 1.0000 -0.0000
vn -0.0416 0.9991 -0.0088
vn -0.0533 0.9985 -0.0134
vn -0.0230 0.9996 -0.0142
vn 0.0337 0.9994 -0.0106
vn 0.0645 0.9979 -0.0030
vn 0.0717 0.9974 0.0064
vn 0.0459 0.9988 0.0155
vn 0.0227 0.9995 0.0221
vn 0.0059 0.9998 0.0206
vn -0.0093 0.9997 0.0208
vn -0.0000 1.0000 0.0057
vn -0.0000 0.9998 0.0207
vn -0.0061 0.9996 0.0292
vn 0.0224 0.9995 0.0231
vn 0.0146 0.9998 -0.0132
vn 0.0322 0.9978 -0.0585
vn 0.0164 0.9960 -0.0875
vn 0.0157 0.9949 -0.0993
vn 0.0352 0.9961 -0.0809
vn 0.0632 0.9971 -0.0429
vn 0.0531 0.9986 0.0062
vn 0.0323 0.9990 0.0310
vn -0.0416 0.9991 0.0114
vn -0.0398 0.9992 -0.0085
vn -0.0209 0.9995 -0.0220
vn 0.0262 0.9994 -0.0241
vn 0.0645 0.9978 -0.0143
vn 0.0513 0.9987 0.0039
vn 0.0347 0.9991 0.0244
vn 0.0242 0.9991 0.0356
vn 0.0056 0.9994 0.0341
vn -0.0090 0.9994 0.0344
vn -0.0000 1.0000 -0.0084
vn -0.0027 0.9999 -0.0113
vn -0.0033 1.0000 -0.0085
vn 0.0224 0.9997 -0.0053
vn 0.0598 0.9978 -0.0292
vn 0.0613 0.9965 -0.0573
vn 0.0283 0.9965 -0.0791
vn -0.0215 0.9959 -0.0880
vn -0.0421 0.9967 -0.0693
vn -0.0333 0.9990 -0.0302
vn 0.0087 0.9998 0.0174
vn 0.0468 0.9970 0.0617
vn -0.0218 0.9987 0.0471
vn -0.0398 0.9990 0.0194
vn -0.0136 0.9999 -0.0020
vn 0.0163 0.9998 -0.0094
vn 0.0257 0.9997 -0.0006
vn 0.0273 0.9994 0.0201
vn 0.0350 0.9984 0.0441
vn 0.0254 0.9987 0.0438
vn 0.0044 0.9991 0.0426
vn -0.0085 0.9990 0.0438
vn 0.0029 0.9997 -0.0239
vn -0.0059 0.9996 -0.0273
vn -0.0092 0.9997 -0.0241
vn 0.0463 0.9988 -0.0182
vn 0.0879 0.9960 -0.0171
vn 0.0830 0.9963 -0.0234
vn 0.0374 0.9988 -0.0315
vn -0.0292 0.9990 -0.0348
vn -0.0729 0.9970 -0.0271
vn -0.0333 0.9994 0.0037
vn 0.0087 0.9992 0.0380
vn 0.0320 0.9968 0.0734
vn 0.0273 0.9957 0.0881
vn -0.0183 0.9976 0.0668
vn -0.0136 0.9989 0.0440
vn 0.0028 0.9994 0.0334
vn 0.0117 0.9992 0.0381
vn 0.0414 0.9978 0.0521
vn 0.0625 0.9973 0.0379
vn 0.0389 0.9992 0.0104
vn 0.0044 1.0000 -0.0030
vn -0.0095 1.0000 0.0018
vn 0.0063 0.9996 -0.0267
vn -0.0152 0.9996 -0.0221
vn -0.0181 0.9998 -0.0128
vn 0.0329 0.9995 -0.0038
vn 0.0797 0.9968 0.0085
vn 0.0823 0.9963 0.0230
vn 0.0373 0.9988 0.0318
vn -0.0292 0.9990 0.0351
vn -0.0729 0.9968 0.0327
vn -0.0675 0.9970 0.0374
vn -0.0268 0.9983 0.0518
vn 0.0160 0.9978 0.0650
vn 0.0191 0.9965 0.0809
vn 0.0108 0.9960 0.0891
vn 0.0074 0.9965 0.0828
vn 0.0128 0.9973 0.0725
vn 0.0364 0.9974 0.0624
vn 0.0849 0.9957 0.0376
vn 0.0625 0.9980 -0.0060
vn 0.0388 0.9987 -0.0335
vn -0.0053 0.9989 -0.0469
vn -0.0569 0.9975 -0.0418
vn 0.0016 1.0000 0.0008
vn -0.0152 0.9997 0.0174
vn -0.0181 0.9994 0.0286
vn 0.0134 0.9994 0.0334
vn 0.0654 0.9965 0.0527
vn 0.0701 0.9953 0.0669
vn 0.0282 0.9965 0.0792
vn -0.0267 0.9957 0.0882
vn -0.0774 0.9937 0.0816
vn -0.0817 0.9947 0.0617
vn -0.0400 0.9983 0.0427
vn 0.0038 0.9995 0.0328
vn 0.0099 0.9989 0.0450
vn 0.0119 0.9985 0.0543
vn 0.0158 0.9985 0.0532
vn 0.0236 0.9987 0.0448
vn 0.0605 0.9976 0.0341
vn 0.0849 0.9963 0.0100
vn 0.0899 0.9958 -0.0145
vn 0.0522 0.9980 -0.0345
vn -0.0095 0.9989 -0.0458
vn -0.0763 0.9962 -0.0416
vn -0.0149 0.9994 0.0314
vn -0.0265 0.9985 0.0482
vn -0.0228 0.9981 0.0568
vn 0.0044 0.9985 0.0547
vn 0.0469 0.9969 0.0636
vn 0.0603 0.9948 0.0821
vn 0.0206 0.9956 0.0919
vn -0.0203 0.9948 0.0994
vn -0.0575 0.9942 0.0907
vn -0.0626 0.9960 0.0641
vn -0.0301 0.9992 0.0277
vn -0.0000 1.0000 0.0007
vn 0.0012 1.0000 0.0044
vn 0.0079 0.9999 0.0131
vn 0.0134 0.9998 0.0171
vn 0.0176 0.9997 0.0196
vn 0.0664 0.9975 0.0255
vn 0.1166 0.9930 0.0195
vn 0.1176 0.9930 0.0119
vn 0.0678 0.9977 0.0038
vn -0.0095 1.0000 -0.0006
vn -0.0763 0.9971 0.0018
vn -0.0317 0.9986 0.0421
vn -0.0351 0.9979 0.0542
vn -0.0207 0.9981 0.0579
vn 0.0171 0.9985 0.0520
vn 0.0421 0.9983 0.0393
vn 0.0460 0.9980 0.0441
vn 0.0154 0.9982 0.0586
vn -0.0116 0.9979 0.0638
vn -0.0309 0.9980 0.0552
vn -0.0262 0.9992 0.0291
vn -0.0030 1.0000 0.0030
vn -0.0000 1.0000 -0.0000
vn 0.0007 1.0000 0.0012
vn 0.0055 1.0000 0.0083
vn 0.0095 0.9998 0.0162
vn 0.0532 0.9983 0.0243
vn 0.1043 0.9938 0.0374
vn 0.1100 0.9927 0.0498
vn 0.0655 0.9962 0.0576
vn -0.0118 0.9981 0.0599
vn -0.0846 0.9947 0.0579
vn -0.0438 0.9986 0.0297
vn -0.0388 0.9987 0.0334
vn -0.0148 0.9994 0.0310
vn 0.0281 0.9993 0.0231
vn 0.0522 0.9986 0.0122
vn 0.0437 0.9990 0.0021
vn 0.0121 0.9999 0.0045
vn -0.0031 1.0000 0.0079
vn -0.0048 1.0000 0.0048
vn 0.0007 1.0000 -0.0000
vn 0.0025 1.0000 0.0062
vn 0.0320 0.9994 0.0132
vn 0.0866 0.9957 0.0344
vn 0.0971 0.9939 0.0521
vn 0.0606 0.9960 0.0652
vn -0.0101 0.9975 0.0703
vn -0.0803 0.9947 0.0641
vn -0.0420 0.9991 0.0024
vn -0.0286 0.9996 -0.0032
vn 0.0007 0.9999 -0.0110
vn 0.0281 0.9994 -0.0187
vn 0.0522 0.9984 -0.0232
vn 0.0437 0.9989 -0.0167
vn 0.0121 0.9999 -0.0062
vn 0.0025 1.0000 -0.0034
vn 0.0320 0.9993 -0.0205
vn 0.0866 0.9960 -0.0201
vn 0.0757 0.9971 0.0046
vn 0.0513 0.9983 0.0263
vn -0.0041 0.9993 0.0358
vn -0.0647 0.9975 0.0281
vn 0.0060 0.9996 -0.0291
vn 0.0077 0.9970 -0.0770
vn -0.0073 0.9936 -0.1128
vn 0.0325 0.9940 -0.1048
vn 0.0455 0.9972 -0.0595
vn 0.0332 0.9991 -0.0253
vn 0.0059 0.9999 -0.0111
vn -0.0000 1.0000 -0.0088
vn -0.0031 1.0000 -0.0090
vn -0.0043 1.0000 -0.0060
vn -0.0017 1.0000 -0.0017
vn 0.0035 1.0000 -0.0045
vn 0.0196 0.9994 -0.0282
vn 0.0316 0.9981 -0.0537
vn 0.0619 0.9951 -0.0768
vn 0.0756 0.9947 -0.0704
vn 0.0512 0.9974 -0.0509
vn 0.0036 0.9991 -0.0423
vn -0.0175 0.9986 -0.0506
vn 0.0060 0.9937 -0.1122
vn 0.0075 0.9787 -0.2051
vn -0.0236 0.9682 -0.2490
vn -0.0781 0.9694 -0.2328
vn -0.0823 0.9821 -0.1696
vn -0.0228 0.9967 -0.0773
vn 0.0036 0.9994 -0.0357
vn 0.0003 0.9991 -0.0419
vn -0.0085 0.9991 -0.0423
vn -0.0149 0.9992 -0.0369
vn -0.0161 0.9995 -0.0262
vn -0.0106 0.9999 -0.0118
vn -0.0000 1.0000 -0.0012
vn 0.0045 1.0000 -0.0019
vn 0.0271 0.9993 -0.0243
vn 0.0452 0.9977 -0.0506
vn 0.0547 0.9956 -0.0764
vn 0.0554 0.9934 -0.1004
vn 0.0558 0.9911 -0.1209
vn 0.0422 0.9907 -0.1290
vn 0.0119 0.9913 -0.1308
vn -0.0088 0.9905 -0.1375
vn 0.1011 0.9841 -0.1462
vn 0.0538 0.9729 -0.2249
vn -0.0248 0.9641 -0.2645
vn -0.1243 0.9572 -0.2613
vn -0.1545 0.9642 -0.2157
vn -0.0942 0.9849 -0.1451
vn 0.0097 0.9972 -0.0744
vn 0.0007 0.9976 -0.0696
vn -0.0144 0.9974 -0.0701
vn -0.0265 0.9976 -0.0642
vn -0.0320 0.9981 -0.0526
vn -0.0291 0.9989 -0.0367
vn -0.0009 0.9998 -0.0182
vn 0.0269 0.9995 -0.0165
vn 0.0533 0.9978 -0.0389
vn 0.0711 0.9954 -0.0642
vn 0.0787 0.9929 -0.0888
vn 0.0760 0.9908 -0.1116
vn 0.0638 0.9893 -0.1311
vn 0.0438 0.9883 -0.1463
vn 0.0186 0.9876 -0.1562
vn -0.0108 0.9870 -0.1603
vn 0.1811 0.9774 -0.1087
vn 0.0969 0.9834 -0.1535
vn -0.0150 0.9825 -0.1858
vn -0.1423 0.9707 -0.1937
vn -0.1895 0.9659 -0.1767
vn -0.1359 0.9802 -0.1440
vn -0.0129 0.9946 -0.1034
vn 0.0012 0.9963 -0.0857
vn -0.0202 0.9961 -0.0862
vn -0.0380 0.9960 -0.0804
vn -0.0479 0.9965 -0.0689
vn -0.0446 0.9976 -0.0530
vn -0.0001 0.9993 -0.0375
vn 0.0493 0.9980 -0.0383
vn 0.0786 0.9959 -0.0458
vn 0.0957 0.9931 -0.0682
vn 0.1014 0.9907 -0.0902
vn 0.0956 0.9893 -0.1106
vn 0.0791 0.9886 -0.1280
vn 0.0539 0.9884 -0.1416
vn 0.0228 0.9883 -0.1506
vn -0.0125 0.9880 -0.1542
vn 0.2243 0.9745 -0.0111
vn 0.1304 0.9913 -0.0196
vn 0.0018 0.9993 -0.0383
vn -0.1311 0.9898 -0.0548
vn -0.1826 0.9808 -0.0681
vn -0.1314 0.9882 -0.0785
vn -0.0099 0.9964 -0.0848
vn 0.0017 0.9961 -0.0878
vn -0.0254 0.9958 -0.0882
vn -0.0483 0.9954 -0.0829
vn -0.0623 0.9954 -0.0726
vn -0.0531 0.9969 -0.0583
vn -0.0008 0.9988 -0.0499
vn 0.0569 0.9972 -0.0491
vn 0.1009 0.9936 -0.0504
vn 0.1178 0.9911 -0.0627
vn 0.1217 0.9893 -0.0809
vn 0.1131 0.9888 -0.0977
vn 0.0928 0.9893 -0.1122
vn 0.0629 0.9903 -0.1235
vn 0.0266 0.9910 -0.1310
vn -0.0140 0.9909 -0.1340
vn 0.2041 0.9746 0.0926
vn 0.1437 0.9821 0.1218
vn 0.0234 0.9917 0.1267
vn -0.1306 0.9859 0.1044
vn -0.1827 0.9813 0.0611
vn -0.0778 0.9969 0.0065
vn -0.0100 0.9988 -0.0483
vn 0.0021 0.9972 -0.0754
vn -0.0296 0.9967 -0.0757
vn -0.0565 0.9958 -0.0715
vn -0.0737 0.9953 -0.0632
vn -0.0574 0.9970 -0.0519
vn -0.0025 0.9989 -0.0477
vn 0.0584 0.9972 -0.0459
vn 0.1132 0.9925 -0.0455
vn 0.1359 0.9895 -0.0489
vn 0.1385 0.9884 -0.0622
vn 0.1275 0.9890 -0.0745
vn 0.1042 0.9909 -0.0852
vn 0.0705 0.9931 -0.0935
vn 0.0297 0.9946 -0.0990
vn -0.0151 0.9947 -0.1013
vn 0.1456 0.9789 0.1432
vn 0.1199 0.9722 0.2012
vn 0.0451 0.9736 0.2239
vn -0.0866 0.9755 0.2023
vn -0.1281 0.9816 0.1416
vn -0.0777 0.9953 0.0569
vn 0.0173 0.9994 -0.0305
vn 0.0025 0.9987 -0.0505
vn -0.0323 0.9982 -0.0507
vn -0.0618 0.9969 -0.0480
vn -0.0810 0.9958 -0.0427
vn -0.0598 0.9976 -0.0355
vn -0.0045 0.9994 -0.0331
vn 0.0582 0.9978 -0.0311
vn 0.1169 0.9927 -0.0297
vn 0.1491 0.9884 -0.0296
vn 0.1506 0.9879 -0.0364
vn 0.1381 0.9895 -0.0434
vn 0.1125 0.9924 -0.0495
vn 0.0760 0.9956 -0.0543
vn 0.0320 0.9978 -0.0575
vn -0.0157 0.9981 -0.0588
vn 0.0717 0.9915 0.1081
vn 0.0866 0.9795 0.1817
vn 0.0632 0.9746 0.2148
vn 0.0401 0.9794 0.1977
vn 0.0501 0.9897 0.1339
vn 0.0669 0.9969 0.0411
vn 0.0373 0.9992 -0.0162
vn 0.0027 0.9998 -0.0172
vn -0.0332 0.9993 -0.0173
vn -0.0636 0.9978 -0.0164
vn -0.0834 0.9964 -0.0146
vn -0.0616 0.9980 -0.0122
vn -0.0063 0.9999 -0.0105
vn 0.0570 0.9983 -0.0087
vn 0.1169 0.9931 -0.0070
vn 0.1559 0.9878 -0.0057
vn 0.1575 0.9875 -0.0065
vn 0.1440 0.9895 -0.0077
vn 0.1172 0.9931 -0.0088
vn 0.0791 0.9968 -0.0097
vn 0.0333 0.9994 -0.0102
vn -0.0159 0.9998 -0.0105
vn 0.0195 0.9997 0.0155
vn 0.0521 0.9963 0.0681
vn 0.0746 0.9918 0.1036
vn 0.0857 0.9919 0.0933
vn 0.0825 0.9954 0.0483
vn 0.0653 0.9977 0.0163
vn 0.0372 0.9991 0.0179
vn 0.0027 0.9998 0.0190
vn -0.0332 0.9993 0.0191
vn -0.0636 0.9978 0.0181
vn -0.0834 0.9964 0.0161
vn -0.0616 0.9980 0.0136
vn -0.0063 0.9999 0.0146
vn 0.0536 0.9984 0.0159
vn 0.1134 0.9934 0.0176
vn 0.1524 0.9881 0.0198
vn 0.1542 0.9877 0.0242
vn 0.1412 0.9896 0.0288
vn 0.1149 0.9928 0.0328
vn 0.0776 0.9963 0.0360
vn 0.0327 0.9987 0.0380
vn -0.0159 0.9991 0.0389
vn 0.0706 0.9975 -0.0032
vn 0.0317 0.9995 -0.0035
vn -0.0222 0.9997 -0.0033
vn -0.0650 0.9979 -0.0025
vn -0.0767 0.9971 -0.0015
vn -0.0515 0.9987 -0.0005
vn -0.0076 1.0000 -0.0000
vn 0.0087 0.9999 -0.0084
vn 0.0418 0.9986 -0.0311
vn 0.0659 0.9963 -0.0551
vn 0.0764 0.9945 -0.0716
vn 0.0296 0.9983 -0.0495
vn -0.0125 0.9997 -0.0198
vn 0.0040 1.0000 0.0054
vn 0.0137 0.9997 0.0180
vn 0.0335 0.9993 0.0153
vn 0.0463 0.9989 0.0006
vn 0.0607 0.9980 -0.0187
vn 0.0377 0.9990 -0.0237
vn 0.0210 0.9995 -0.0246
vn 0.0061 0.9997 -0.0248
vn -0.0089 0.9997 -0.0244
vn 0.0705 0.9965 0.0441
vn 0.0317 0.9983 0.0489
vn -0.0191 0.9988 0.0456
vn -0.0552 0.9979 0.0350
vn -0.0630 0.9978 0.0203
vn -0.0377 0.9993 0.0055
vn -0.0026 1.0000 -0.0000
vn 0.0212 0.9997 -0.0126
vn 0.0591 0.9978 -0.0298
vn 0.0837 0.9954 -0.0476
vn 0.0760 0.9960 -0.0471
vn 0.0102 0.9996 -0.0279
vn -0.0125 0.9999 -0.0047
vn -0.0415 0.9990 0.0156
vn -0.0105 0.9996 0.0272
vn 0.0362 0.9990 0.0264
vn 0.0609 0.9980 0.0154
vn 0.0607 0.9982 0.0005
vn 0.0477 0.9988 -0.0095
vn 0.0213 0.9997 -0.0099
vn 0.0062 0.9999 -0.0100
vn -0.0093 0.9999 -0.0098
vn 0.0589 0.9958 0.0695
vn 0.0268 0.9966 0.0780
vn -0.0130 0.9973 0.0721
vn -0.0365 0.9979 0.0534
vn -0.0372 0.9989 0.0276
vn -0.0089 1.0000 -0.0013
vn 0.0045 1.0000 -0.0084
vn 0.0257 0.9996 -0.0129
vn 0.0629 0.9979 -0.0167
vn 0.0919 0.9955 -0.0249
vn 0.0753 0.9969 -0.0241
vn 0.0038 0.9998 -0.0177
vn -0.0357 0.9993 -0.0072
vn -0.0415 0.9991 0.0054
vn -0.0194 0.9997 0.0143
vn 0.0369 0.9992 0.0175
vn 0.0718 0.9973 0.0155
vn 0.0755 0.9971 0.0102
vn 0.0477 0.9988 0.0055
vn 0.0213 0.9998 0.0056
vn 0.0062 1.0000 0.0056
vn -0.0093 0.9999 0.0055
vn 0.0386 0.9974 0.0604
vn 0.0183 0.9974 0.0703
vn -0.0061 0.9980 0.0633
vn -0.0139 0.9991 0.0408
vn 0.0146 0.9998 -0.0110
vn 0.0322 0.9981 -0.0521
vn 0.0164 0.9978 -0.0639
vn 0.0158 0.9984 -0.0541
vn 0.0353 0.9990 -0.0264
vn 0.0633 0.9980 0.0025
vn 0.0753 0.9972 -0.0000
vn 0.0126 0.9999 -0.0088
vn -0.0462 0.9988 -0.0134
vn -0.0541 0.9984 -0.0142
vn -0.0194 0.9998 -0.0106
vn 0.0262 0.9997 -0.0030
vn 0.0738 0.9972 0.0064
vn 0.0807 0.9966 0.0154
vn 0.0525 0.9984 0.0220
vn 0.0212 0.9996 0.0206
vn 0.0061 0.9998 0.0208
vn -0.0090 0.9997 0.0205
vn 0.0151 0.9997 0.0207
vn 0.0084 0.9995 0.0292
vn -0.0000 0.9997 0.0231
vn -0.0140 0.9998 -0.0132
vn 0.0597 0.9965 -0.0584
vn 0.0612 0.9943 -0.0873
vn 0.0282 0.9947 -0.0992
vn -0.0027 0.9967 -0.0810
vn -0.0029 0.9991 -0.0430
vn 0.0142 0.9999 0.0062
vn 0.0777 0.9965 0.0309
vn 0.0126 0.9999 0.0114
vn -0.0218 0.9997 -0.0085
vn -0.0533 0.9983 -0.0220
vn -0.0230 0.9994 -0.0241
vn 0.0163 0.9998 -0.0143
vn 0.0464 0.9989 0.0039
vn 0.0717 0.9971 0.0243
vn 0.0459 0.9983 0.0356
vn 0.0227 0.9992 0.0341
vn 0.0059 0.9994 0.0344
vn -0.0085 0.9994 0.0339
vn 0.0029 0.9999 -0.0113
vn -0.0000 1.0000 -0.0085
vn -0.0000 1.0000 -0.0053
vn 0.0463 0.9985 -0.0292
vn 0.0877 0.9945 -0.0572
vn 0.0828 0.9934 -0.0788
vn 0.0372 0.9954 -0.0880
vn -0.0027 0.9976 -0.0694
vn -0.0029 0.9995 -0.0302
vn 0.0142 0.9997 0.0174
vn 0.0530 0.9967 0.0616
vn 0.0322 0.9984 0.0471
vn 0.0059 0.9998 0.0194
vn -0.0184 0.9998 -0.0020
vn -0.0209 0.9997 -0.0094
vn 0.0075 1.0000 -0.0006
vn 0.0464 0.9987 0.0201
vn 0.0513 0.9977 0.0441
vn 0.0347 0.9984 0.0438
vn 0.0242 0.9988 0.0426
vn 0.0056 0.9990 0.0438
vn -0.0095 0.9990 0.0448
vn 0.0063 0.9996 -0.0273
vn -0.0027 0.9997 -0.0241
vn -0.0033 0.9998 -0.0182
vn 0.0452 0.9988 -0.0171
vn 0.0941 0.9953 -0.0234
vn 0.0910 0.9954 -0.0314
vn 0.0407 0.9986 -0.0348
vn -0.0215 0.9994 -0.0272
vn -0.0422 0.9991 0.0037
vn -0.0675 0.9970 0.0379
vn -0.0268 0.9969 0.0734
vn 0.0467 0.9950 0.0880
vn 0.0059 0.9977 0.0668
vn 0.0045 0.9990 0.0440
vn -0.0030 0.9994 0.0334
vn 0.0075 0.9992 0.0381
vn 0.0257 0.9983 0.0521
vn 0.0273 0.9989 0.0380
vn 0.0350 0.9993 0.0104
vn 0.0255 0.9997 -0.0030
vn -0.0003 1.0000 0.0018
vn -0.0323 0.9992 0.0246
vn 0.0016 0.9998 -0.0221
vn -0.0059 0.9999 -0.0128
vn -0.0092 1.0000 -0.0038
vn 0.0452 0.9989 0.0085
vn 0.0941 0.9953 0.0230
vn 0.0910 0.9954 0.0317
vn 0.0407 0.9986 0.0351
vn -0.0268 0.9991 0.0328
vn -0.0776 0.9963 0.0374
vn -0.0817 0.9953 0.0517
vn -0.0399 0.9971 0.0649
vn 0.0320 0.9962 0.0809
vn 0.0273 0.9957 0.0890
vn 0.0045 0.9966 0.0828
vn -0.0030 0.9974 0.0725
vn 0.0028 0.9980 0.0625
vn 0.0117 0.9992 0.0377
vn 0.0415 0.9991 -0.0060
vn 0.0898 0.9954 -0.0334
vn 0.0521 0.9975 -0.0468
vn -0.0003 0.9991 -0.0419
vn -0.0323 0.9993 -0.0172
vn -0.0149 0.9997 0.0174
vn -0.0265 0.9992 0.0286
vn -0.0228 0.9992 0.0334
vn 0.0329 0.9981 0.0528
vn 0.0796 0.9946 0.0669
vn 0.0821 0.9935 0.0790
vn 0.0372 0.9954 0.0881
vn -0.0203 0.9964 0.0818
vn -0.0576 0.9964 0.0618
vn -0.0626 0.9971 0.0426
vn -0.0301 0.9990 0.0328
vn 0.0160 0.9989 0.0450
vn 0.0191 0.9983 0.0542
vn 0.0109 0.9985 0.0532
vn 0.0074 0.9990 0.0449
vn 0.0129 0.9993 0.0342
vn 0.0364 0.9993 0.0100
vn 0.1092 0.9939 -0.0145
vn 0.1095 0.9934 -0.0343
vn 0.0634 0.9969 -0.0457
vn -0.0053 0.9991 -0.0417
vn -0.0569 0.9981 -0.0222
vn -0.0317 0.9983 0.0482
vn -0.0351 0.9978 0.0568
vn -0.0207 0.9983 0.0547
vn 0.0134 0.9979 0.0637
vn 0.0653 0.9945 0.0820
vn 0.0699 0.9933 0.0917
vn 0.0282 0.9946 0.0994
vn -0.0116 0.9958 0.0908
vn -0.0309 0.9975 0.0642
vn -0.0262 0.9993 0.0277
vn -0.0030 1.0000 0.0007
vn 0.0038 1.0000 0.0044
vn 0.0099 0.9999 0.0131
vn 0.0119 0.9998 0.0171
vn 0.0158 0.9997 0.0196
vn 0.0236 0.9994 0.0255
vn 0.0605 0.9980 0.0196
vn 0.1092 0.9940 0.0119
vn 0.1096 0.9940 0.0037
vn 0.0634 0.9980 -0.0006
vn -0.0118 0.9999 0.0018
vn -0.0848 0.9963 0.0103
vn -0.0437 0.9976 0.0542
vn -0.0388 0.9976 0.0578
vn -0.0148 0.9985 0.0520
vn 0.0044 0.9992 0.0393
vn 0.0469 0.9979 0.0441
vn 0.0604 0.9965 0.0585
vn 0.0207 0.9977 0.0638
vn -0.0031 0.9985 0.0552
vn -0.0048 0.9996 0.0291
vn -0.0000 1.0000 0.0030
vn 0.0012 1.0000 0.0012
vn 0.0079 0.9999 0.0083
vn 0.0134 0.9998 0.0162
vn 0.0176 0.9995 0.0244
vn 0.0664 0.9971 0.0375
vn 0.1165 0.9919 0.0498
vn 0.1174 0.9914 0.0574
vn 0.0676 0.9959 0.0597
vn -0.0101 0.9983 0.0582
vn -0.0804 0.9953 0.0537
vn -0.0475 0.9983 0.0334
vn -0.0364 0.9989 0.0310
vn -0.0070 0.9997 0.0232
vn 0.0171 0.9998 0.0122
vn 0.0421 0.9991 0.0021
vn 0.0460 0.9989 0.0044
vn 0.0155 0.9998 0.0079
vn -0.0000 1.0000 0.0048
vn 0.0055 1.0000 0.0062
vn 0.0095 0.9999 0.0132
vn 0.0532 0.9980 0.0344
vn 0.1042 0.9932 0.0521
vn 0.1099 0.9918 0.0650
vn 0.0655 0.9954 0.0701
vn -0.0041 0.9979 0.0643
vn -0.0647 0.9967 0.0485
vn -0.0476 0.9989 -0.0032
vn -0.0364 0.9993 -0.0110
vn -0.0070 0.9998 -0.0187
vn 0.0326 0.9992 -0.0233
vn 0.0456 0.9988 -0.0167
vn 0.0332 0.9994 -0.0062
vn 0.0059 1.0000 -0.0000
vn 0.0035 1.0000 -0.0034
vn 0.0196 0.9996 -0.0205
vn 0.0316 0.9993 -0.0201
vn 0.0621 0.9981 0.0046
vn 0.0972 0.9949 0.0262
vn 0.0607 0.9975 0.0358
vn 0.0036 0.9996 0.0281
vn -0.0415 0.9991 0.0047
vn -0.0419 0.9962 -0.0770
vn -0.0284 0.9932 -0.1128
vn 0.0007 0.9945 -0.1049
vn -0.0131 0.9981 -0.0596
vn 0.0113 0.9996 -0.0253
vn 0.0190 0.9998 -0.0111
vn 0.0036 1.0000 -0.0088
vn 0.0003 1.0000 -0.0090
vn -0.0000 1.0000 -0.0060
vn -0.0000 1.0000 -0.0017
vn 0.0045 1.0000 -0.0045
vn 0.0271 0.9992 -0.0282
vn 0.0452 0.9975 -0.0537
vn 0.0547 0.9955 -0.0768
vn 0.0556 0.9960 -0.0705
vn 0.0561 0.9971 -0.0509
vn 0.0425 0.9982 -0.0422
vn 0.0120 0.9986 -0.0506
vn -0.0414 0.9964 -0.0744
vn 0.1000 0.9738 -0.2041
vn 0.0535 0.9671 -0.2487
vn -0.0072 0.9723 -0.2335
vn -0.0129 0.9853 -0.1702
vn 0.0113 0.9969 -0.0774
vn 0.0190 0.9992 -0.0357
vn 0.0097 0.9991 -0.0419
vn 0.0007 0.9991 -0.0423
vn -0.0031 0.9993 -0.0369
vn -0.0043 0.9996 -0.0262
vn -0.0017 0.9999 -0.0118
vn 0.0007 1.0000 -0.0019
vn 0.0269 0.9993 -0.0243
vn 0.0533 0.9973 -0.0505
vn 0.0710 0.9946 -0.0763
vn 0.0786 0.9919 -0.1002
vn 0.0759 0.9898 -0.1207
vn 0.0638 0.9896 -0.1288
vn 0.0439 0.9904 -0.1307
vn 0.0187 0.9903 -0.1375
vn -0.0174 0.9892 -0.1458
vn 0.1777 0.9588 -0.2216
vn 0.0946 0.9600 -0.2634
vn -0.0235 0.9644 -0.2633
vn -0.0784 0.9729 -0.2177
vn -0.0826 0.9859 -0.1453
vn -0.0228 0.9970 -0.0743
vn 0.0049 0.9976 -0.0696
vn 0.0012 0.9975 -0.0701
vn -0.0085 0.9979 -0.0642
vn -0.0149 0.9985 -0.0526
vn -0.0161 0.9992 -0.0367
vn -0.0106 0.9998 -0.0182
vn 0.0007 0.9999 -0.0165
vn 0.0493 0.9980 -0.0390
vn 0.0785 0.9948 -0.0641
vn 0.0956 0.9915 -0.0887
vn 0.1012 0.9886 -0.1113
vn 0.0953 0.9868 -0.1308
vn 0.0789 0.9861 -0.1459
vn 0.0538 0.9863 -0.1560
vn 0.0228 0.9868 -0.1602
vn -0.0088 0.9873 -0.1584
vn 0.2217 0.9634 -0.1504
vn 0.1282 0.9745 -0.1843
vn -0.0252 0.9803 -0.1957
vn -0.1267 0.9757 -0.1785
vn -0.1565 0.9772 -0.1436
vn -0.0947 0.9902 -0.1030
vn 0.0049 0.9963 -0.0857
vn 0.0017 0.9963 -0.0862
vn -0.0144 0.9967 -0.0804
vn -0.0265 0.9973 -0.0689
vn -0.0320 0.9981 -0.0530
vn -0.0291 0.9989 -0.0375
vn -0.0009 0.9993 -0.0384
vn 0.0569 0.9973 -0.0459
vn 0.1008 0.9926 -0.0681
vn 0.1175 0.9890 -0.0901
vn 0.1214 0.9865 -0.1102
vn 0.1127 0.9854 -0.1276
vn 0.0924 0.9856 -0.1412
vn 0.0627 0.9867 -0.1503
vn 0.0265 0.9877 -0.1541
vn -0.0108 0.9882 -0.1525
vn 0.2319 0.9725 -0.0192
vn 0.1483 0.9882 -0.0379
vn -0.0152 0.9984 -0.0553
vn -0.1447 0.9871 -0.0685
vn -0.1919 0.9783 -0.0777
vn -0.1368 0.9870 -0.0840
vn -0.0129 0.9961 -0.0878
vn 0.0021 0.9961 -0.0882
vn -0.0202 0.9963 -0.0830
vn -0.0380 0.9966 -0.0726
vn -0.0480 0.9971 -0.0583
vn -0.0446 0.9978 -0.0498
vn -0.0001 0.9988 -0.0491
vn 0.0584 0.9970 -0.0506
vn 0.1131 0.9916 -0.0627
vn 0.1356 0.9875 -0.0808
vn 0.1381 0.9856 -0.0974
vn 0.1271 0.9856 -0.1118
vn 0.1037 0.9870 -0.1231
vn 0.0702 0.9889 -0.1307
vn 0.0296 0.9905 -0.1339
vn -0.0126 0.9911 -0.1326
vn 0.2303 0.9657 0.1198
vn 0.1473 0.9811 0.1254
vn 0.0018 0.9944 0.1053
vn -0.0883 0.9942 0.0619
vn -0.1294 0.9916 0.0065
vn -0.1317 0.9901 -0.0479
vn 0.0172 0.9970 -0.0754
vn 0.0025 0.9971 -0.0757
vn -0.0255 0.9971 -0.0716
vn -0.0484 0.9968 -0.0633
vn -0.0623 0.9967 -0.0519
vn -0.0531 0.9975 -0.0476
vn -0.0008 0.9989 -0.0460
vn 0.0581 0.9973 -0.0457
vn 0.1168 0.9919 -0.0490
vn 0.1489 0.9869 -0.0621
vn 0.1503 0.9858 -0.0743
vn 0.1377 0.9868 -0.0848
vn 0.1121 0.9893 -0.0932
vn 0.0757 0.9922 -0.0988
vn 0.0319 0.9944 -0.1012
vn -0.0141 0.9949 -0.1002
vn 0.2009 0.9593 0.1985
vn 0.1412 0.9648 0.2219
vn 0.0231 0.9789 0.2030
vn -0.0254 0.9894 0.1427
vn -0.0434 0.9974 0.0571
vn 0.0097 0.9995 -0.0306
vn 0.0372 0.9980 -0.0505
vn 0.0027 0.9987 -0.0507
vn -0.0297 0.9984 -0.0481
vn -0.0566 0.9975 -0.0428
vn -0.0738 0.9966 -0.0355
vn -0.0574 0.9978 -0.0331
vn -0.0025 0.9995 -0.0311
vn 0.0570 0.9979 -0.0299
vn 0.1168 0.9927 -0.0297
vn 0.1558 0.9871 -0.0364
vn 0.1574 0.9866 -0.0433
vn 0.1439 0.9884 -0.0493
vn 0.1170 0.9917 -0.0541
vn 0.0790 0.9952 -0.0573
vn 0.0333 0.9977 -0.0587
vn -0.0151 0.9982 -0.0582
vn 0.1447 0.9729 0.1805
vn 0.1195 0.9696 0.2137
vn 0.0453 0.9792 0.1977
vn -0.0255 0.9907 0.1340
vn -0.0434 0.9982 0.0411
vn 0.0097 0.9998 -0.0162
vn 0.0383 0.9991 -0.0172
vn 0.0028 0.9998 -0.0173
vn -0.0323 0.9993 -0.0164
vn -0.0619 0.9980 -0.0146
vn -0.0810 0.9966 -0.0122
vn -0.0599 0.9982 -0.0105
vn -0.0045 1.0000 -0.0087
vn 0.0554 0.9984 -0.0070
vn 0.1157 0.9933 -0.0057
vn 0.1567 0.9876 -0.0065
vn 0.1587 0.9873 -0.0077
vn 0.1451 0.9894 -0.0088
vn 0.1180 0.9930 -0.0096
vn 0.0797 0.9968 -0.0102
vn 0.0336 0.9994 -0.0105
vn -0.0158 0.9998 -0.0104
vn 0.0720 0.9951 0.0680
vn 0.0876 0.9908 0.1034
vn 0.0644 0.9935 0.0935
vn 0.0408 0.9980 0.0485
vn 0.0506 0.9986 0.0163
vn 0.0669 0.9976 0.0178
vn 0.0383 0.9991 0.0190
vn 0.0028 0.9998 0.0191
vn -0.0323 0.9993 0.0181
vn -0.0617 0.9980 0.0162
vn -0.0808 0.9966 0.0136
vn -0.0626 0.9979 0.0146
vn -0.0077 0.9998 0.0159
vn 0.0554 0.9983 0.0177
vn 0.1156 0.9931 0.0199
vn 0.1566 0.9874 0.0241
vn 0.1587 0.9869 0.0287
vn 0.1450 0.9889 0.0327
vn 0.1179 0.9924 0.0358
vn 0.0796 0.9961 0.0379
vn 0.0335 0.9987 0.0389
vn -0.0155 0.9991 0.0385
vt 0.045455 0.000000
vt 0.000000 0.045455
vt 0.000000 0.000000
vt 0.090909 0.000000
vt 0.045455 0.045455
vt 0.136364 0.045455
vt 0.090909 0.045455
vt 0.136364 0.000000
vt 0.181818 0.045455
vt 0.181818 0.000000
vt 0.227273 0.045455
vt 0.227273 0.000000
vt 0.272727 0.045455
vt 0.272727 0.000000
vt 0.318182 0.045455
vt 0.363636 0.000000
vt 0.318182 0.000000
vt 0.409091 0.000000
vt 0.363636 0.045455
vt 0.454545 0.000000
vt 0.409091 0.045455
vt 0.500000 0.000000
vt 0.454545 0.045455
vt 0.545455 0.000000
vt 0.500000 0.045455
vt 0.590909 0.000000
vt 0.545455 0.045455
vt 0.636364 0.045455
vt 0.590909 0.045455
vt 0.636364 0.000000
vt 0.681818 0.045455
vt 0.681818 0.000000
vt 0.727273 0.045455
vt 0.727273 0.000000
vt 0.772727 0.045455
vt 0.818182 0.000000
vt 0.772727 0.000000
vt 0.863636 0.000000
vt 0.818182 0.045455
vt 0.909091 0.000000
vt 0.863636 0.045455
vt 0.954545 0.000000
vt 0.909091 0.045455
vt 1.000000 0.045455
vt 0.954545 0.045455
vt 0.045455 0.090909
vt 0.000000 0.090909
vt 0.090909 0.090909
vt 0.136364 0.090909
vt 0.181818 0.090909
vt 0.227273 0.090909
vt 0.272727 0.090909
vt 0.318182 0.090909
vt 0.363636 0.090909
vt 0.409091 0.090909
vt 0.454545 0.090909
vt 0.500000 0.090909
vt 0.590909 0.090909
vt 0.545455 0.090909
vt 0.636364 0.090909
vt 0.727273 0.090909
vt 0.681818 0.090909
vt 0.772727 0.090909
vt 0.818182 0.090909
vt 0.863636 0.090909
vt 0.909091 0.090909
vt 1.000000 0.090909
vt 0.954545 0.090909
vt 0.045455 0.136364
vt 0.000000 0.136364
vt 0.090909 0.136364
vt 0.136364 0.136364
vt 0.181818 0.136364
vt 0.227273 0.136364
vt 0.272727 0.136364
vt 0.318182 0.136364
vt 0.363636 0.136364
vt 0.409091 0.136364
vt 0.454545 0.136364
vt 0.500000 0.136364
vt 0.590909 0.136364
vt 0.545455 0.136364
vt 0.636364 0.136364
vt 0.727273 0.136364
vt 0.681818 0.136364
vt 0.772727 0.136364
vt 0.818182 0.136364
vt 0.863636 0.136364
vt 0.909091 0.136364
vt 0.954545 0.136364
vt 0.045455 0.181818
vt 0.000000 0.181818
vt 0.090909 0.181818
vt 0.136364 0.181818
vt 0.181818 0.181818
vt 0.227273 0.181818
vt 0.272727 0.181818
vt 0.318182 0.181818
vt 0.363636 0.181818
vt 0.409091 0.181818
vt 0.500000 0.181818
vt 0.454545 0.181818
vt 0.590909 0.181818
vt 0.545455 0.181818
vt 0.636364 0.181818
vt 0.681818 0.181818
vt 0.772727 0.181818
vt 0.727273 0.181818
vt 0.818182 0.181818
vt 0.863636 0.181818
vt 0.909091 0.181818
vt 0.954545 0.181818
vt 1.000000 0.136364
vt 0.045455 0.227273
vt 0.000000 0.227273
vt 0.090909 0.227273
vt 0.181818 0.227273
vt 0.136364 0.227273
vt 0.227273 0.227273
vt 0.272727 0.227273
vt 0.318182 0.227273
vt 0.363636 0.227273
vt 0.409091 0.227273
vt 0.500000 0.227273
vt 0.454545 0.227273
vt 0.545455 0.227273
vt 0.636364 0.227273
vt 0.590909 0.227273
vt 0.681818 0.227273
vt 0.727273 0.227273
vt 0.818182 0.227273
vt 0.772727 0.227273
vt 0.863636 0.227273
vt 0.909091 0.227273
vt 0.954545 0.227273
vt 1.000000 0.181818
vt 0.000000 0.272727
vt 0.090909 0.272727
vt 0.045455 0.272727
vt 0.136364 0.272727
vt 0.181818 0.272727
vt 0.227273 0.272727
vt 0.272727 0.272727
vt 0.363636 0.272727
vt 0.318182 0.272727
vt 0.409091 0.272727
vt 0.454545 0.272727
vt 0.500000 0.272727
vt 0.545455 0.272727
vt 0.590909 0.272727
vt 0.681818 0.272727
vt 0.636364 0.272727
vt 0.772727 0.272727
vt 0.727273 0.272727
vt 0.818182 0.272727
vt 0.863636 0.272727
vt 0.909091 0.272727
vt 0.954545 0.272727
vt 1.000000 0.227273
vt 0.000000 0.318182
vt 0.090909 0.318182
vt 0.045455 0.318182
vt 0.136364 0.318182
vt 0.181818 0.318182
vt 0.227273 0.318182
vt 0.272727 0.318182
vt 0.363636 0.318182
vt 0.318182 0.318182
vt 0.409091 0.318182
vt 0.454545 0.318182
vt 0.545455 0.318182
vt 0.500000 0.318182
vt 0.590909 0.318182
vt 0.636364 0.318182
vt 0.727273 0.318182
vt 0.681818 0.318182
vt 0.772727 0.318182
vt 0.818182 0.318182
vt 0.863636 0.318182
vt 0.909091 0.318182
vt 1.000000 0.272727
vt 0.954545 0.318182
vt 0.000000 0.363636
vt 0.090909 0.363636
vt 0.045455 0.363636
vt 0.136364 0.363636
vt 0.181818 0.363636
vt 0.227273 0.363636
vt 0.272727 0.363636
vt 0.318182 0.363636
vt 0.363636 0.363636
vt 0.409091 0.363636
vt 0.454545 0.363636
vt 0.545455 0.363636
vt 0.500000 0.363636
vt 0.590909 0.363636
vt 0.636364 0.363636
vt 0.681818 0.363636
vt 0.727273 0.363636
vt 0.772727 0.363636
vt 0.818182 0.363636
vt 0.863636 0.363636
vt 0.954545 0.363636
vt 0.909091 0.363636
vt 1.000000 0.363636
vt 0.000000 0.409091
vt 0.045455 0.409091
vt 0.090909 0.409091
vt 0.181818 0.409091
vt 0.136364 0.409091
vt 0.227273 0.409091
vt 0.272727 0.409091
vt 0.318182 0.409091
vt 0.363636 0.409091
vt 0.409091 0.409091
vt 0.454545 0.409091
vt 0.545455 0.409091
vt 0.500000 0.409091
vt 0.590909 0.409091
vt 0.636364 0.409091
vt 0.681818 0.409091
vt 0.727273 0.409091
vt 0.772727 0.409091
vt 0.818182 0.409091
vt 0.863636 0.409091
vt 0.954545 0.409091
vt 0.909091 0.409091
vt 1.000000 0.409091
vt 0.000000 0.454545
vt 0.045455 0.454545
vt 0.090909 0.454545
vt 0.181818 0.454545
vt 0.136364 0.454545
vt 0.227273 0.454545
vt 0.272727 0.454545
vt 0.318182 0.454545
vt 0.363636 0.454545
vt 0.409091 0.454545
vt 0.454545 0.454545
vt 0.545455 0.454545
vt 0.500000 0.454545
vt 0.590909 0.454545
vt 0.636364 0.454545
vt 0.681818 0.454545
vt 0.727273 0.454545
vt 0.772727 0.454545
vt 0.818182 0.454545
vt 0.863636 0.454545
vt 0.909091 0.454545
vt 0.954545 0.454545
vt 0.000000 0.500000
vt 0.045455 0.500000
vt 0.090909 0.500000
vt 0.181818 0.500000
vt 0.136364 0.500000
vt 0.227273 0.500000
vt 0.272727 0.500000
vt 0.318182 0.500000
vt 0.363636 0.500000
vt 0.409091 0.500000
vt 0.454545 0.500000
vt 0.500000 0.500000
vt 0.590909 0.500000
vt 0.545455 0.500000
vt 0.636364 0.500000
vt 0.681818 0.500000
vt 0.727273 0.500000
vt 0.772727 0.500000
vt 0.818182 0.500000
vt 0.863636 0.500000
vt 0.909091 0.500000
vt 1.000000 0.454545
vt 0.954545 0.500000
vt 0.000000 0.545455
vt 0.045455 0.545455
vt 0.090909 0.545455
vt 0.181818 0.545455
vt 0.136364 0.545455
vt 0.227273 0.545455
vt 0.272727 0.545455
vt 0.318182 0.545455
vt 0.363636 0.545455
vt 0.409091 0.545455
vt 0.454545 0.545455
vt 0.500000 0.545455
vt 0.545455 0.545455
vt 0.590909 0.545455
vt 0.681818 0.545455
vt 0.636364 0.545455
vt 0.727273 0.545455
vt 0.772727 0.545455
vt 0.818182 0.545455
vt 0.863636 0.545455
vt 0.909091 0.545455
vt 1.000000 0.500000
vt 0.954545 0.545455
vt 0.045455 0.590909
vt 0.000000 0.590909
vt 0.090909 0.590909
vt 0.136364 0.590909
vt 0.181818 0.590909
vt 0.227273 0.590909
vt 0.272727 0.590909
vt 0.318182 0.590909
vt 0.363636 0.590909
vt 0.409091 0.590909
vt 0.454545 0.590909
vt 0.500000 0.590909
vt 0.545455 0.590909
vt 0.590909 0.590909
vt 0.636364 0.590909
vt 0.681818 0.590909
vt 0.727273 0.590909
vt 0.772727 0.590909
vt 0.863636 0.590909
vt 0.818182 0.590909
vt 0.909091 0.590909
vt 1.000000 0.545455
vt 0.954545 0.590909
vt 0.045455 0.636364
vt 0.000000 0.636364
vt 0.090909 0.636364
vt 0.136364 0.636364
vt 0.181818 0.636364
vt 0.227273 0.636364
vt 0.272727 0.636364
vt 0.318182 0.636364
vt 0.409091 0.636364
vt 0.363636 0.636364
vt 0.454545 0.636364
vt 0.500000 0.636364
vt 0.545455 0.636364
vt 0.590909 0.636364
vt 0.636364 0.636364
vt 0.681818 0.636364
vt 0.727273 0.636364
vt 0.772727 0.636364
vt 0.818182 0.636364
vt 0.863636 0.636364
vt 0.909091 0.636364
vt 1.000000 0.636364
vt 0.954545 0.636364
vt 0.000000 0.681818
vt 0.045455 0.681818
vt 0.136364 0.681818
vt 0.090909 0.681818
vt 0.181818 0.681818
vt 0.227273 0.681818
vt 0.272727 0.681818
vt 0.318182 0.681818
vt 0.409091 0.681818
vt 0.363636 0.681818
vt 0.454545 0.681818
vt 0.500000 0.681818
vt 0.545455 0.681818
vt 0.590909 0.681818
vt 0.636364 0.681818
vt 0.681818 0.681818
vt 0.727273 0.681818
vt 0.772727 0.681818
vt 0.818182 0.681818
vt 0.863636 0.681818
vt 0.909091 0.681818
vt 1.000000 0.681818
vt 0.954545 0.681818
vt 0.000000 0.727273
vt 0.045455 0.727273
vt 0.136364 0.727273
vt 0.090909 0.727273
vt 0.181818 0.727273
vt 0.227273 0.727273
vt 0.272727 0.727273
vt 0.318182 0.727273
vt 0.409091 0.727273
vt 0.363636 0.727273
vt 0.454545 0.727273
vt 0.500000 0.727273
vt 0.545455 0.727273
vt 0.590909 0.727273
vt 0.636364 0.727273
vt 0.681818 0.727273
vt 0.727273 0.727273
vt 0.772727 0.727273
vt 0.818182 0.727273
vt 0.863636 0.727273
vt 0.909091 0.727273
vt 1.000000 0.727273
vt 0.954545 0.727273
vt 0.000000 0.772727
vt 0.045455 0.772727
vt 0.136364 0.772727
vt 0.090909 0.772727
vt 0.181818 0.772727
vt 0.227273 0.772727
vt 0.272727 0.772727
vt 0.318182 0.772727
vt 0.409091 0.772727
vt 0.363636 0.772727
vt 0.454545 0.772727
vt 0.500000 0.772727
vt 0.545455 0.772727
vt 0.590909 0.772727
vt 0.636364 0.772727
vt 0.681818 0.772727
vt 0.727273 0.772727
vt 0.772727 0.772727
vt 0.818182 0.772727
vt 0.863636 0.772727
vt 0.909091 0.772727
vt 1.000000 0.772727
vt 0.954545 0.772727
vt 0.000000 0.818182
vt 0.045455 0.818182
vt 0.136364 0.818182
vt 0.090909 0.818182
vt 0.181818 0.818182
vt 0.227273 0.818182
vt 0.272727 0.818182
vt 0.318182 0.818182
vt 0.409091 0.818182
vt 0.363636 0.818182
vt 0.454545 0.818182
vt 0.500000 0.818182
vt 0.545455 0.818182
vt 0.590909 0.818182
vt 0.636364 0.818182
vt 0.681818 0.818182
vt 0.727273 0.818182
vt 0.772727 0.818182
vt 0.818182 0.818182
vt 0.863636 0.818182
vt 0.909091 0.818182
vt 1.000000 0.818182
vt 0.954545 0.818182
vt 0.045455 0.863636
vt 0.000000 0.863636
vt 0.090909 0.863636
vt 0.136364 0.863636
vt 0.181818 0.863636
vt 0.272727 0.863636
vt 0.227273 0.863636
vt 0.318182 0.863636
vt 0.409091 0.863636
vt 0.363636 0.863636
vt 0.454545 0.863636
vt 0.500000 0.863636
vt 0.545455 0.863636
vt 0.590909 0.863636
vt 0.636364 0.863636
vt 0.681818 0.863636
vt 0.727273 0.863636
vt 0.772727 0.863636
vt 0.818182 0.863636
vt 0.863636 0.863636
vt 0.909091 0.863636
vt 1.000000 0.863636
vt 0.954545 0.863636
vt 0.045455 0.909091
vt 0.000000 0.909091
vt 0.090909 0.909091
vt 0.136364 0.909091
vt 0.181818 0.909091
vt 0.227273 0.909091
vt 0.272727 0.909091
vt 0.318182 0.909091
vt 0.409091 0.909091
vt 0.363636 0.909091
vt 0.454545 0.909091
vt 0.500000 0.909091
vt 0.545455 0.909091
vt 0.590909 0.909091
vt 0.636364 0.909091
vt 0.681818 0.909091
vt 0.727273 0.909091
vt 0.772727 0.909091
vt 0.818182 0.909091
vt 0.863636 0.909091
vt 0.909091 0.909091
vt 1.000000 0.909091
vt 0.954545 0.909091
vt 0.045455 0.954545
vt 0.000000 0.954545
vt 0.090909 0.954545
vt 0.136364 0.954545
vt 0.181818 0.954545
vt 0.227273 0.954545
vt 0.272727 0.954545
vt 0.318182 0.954545
vt 0.409091 0.954545
vt 0.363636 0.954545
vt 0.454545 0.954545
vt 0.500000 0.954545
vt 0.545455 0.954545
vt 0.590909 0.954545
vt 0.636364 0.954545
vt 0.681818 0.954545
vt 0.727273 0.954545
vt 0.772727 0.954545
vt 0.818182 0.954545
vt 0.863636 0.954545
vt 0.909091 0.954545
vt 1.000000 0.954545
vt 0.954545 0.954545
vt 0.045455 1.000000
vt 0.000000 1.000000
vt 0.090909 1.000000
vt 0.136364 1.000000
vt 0.181818 1.000000
vt 0.227273 1.000000
vt 0.272727 1.000000
vt 0.318182 1.000000
vt 0.363636 1.000000
vt 0.409091 1.000000
vt 0.454545 1.000000
vt 0.500000 1.000000
vt 0.545455 1.000000
vt 0.636364 1.000000
vt 0.590909 1.000000
vt 0.681818 1.000000
vt 0.727273 1.000000
vt 0.772727 1.000000
vt 0.818182 1.000000
vt 0.863636 1.000000
vt 0.909091 1.000000
vt 0.954545 1.000000
vt 1.000000 0.000000
vt 1.000000 0.318182
vt 1.000000 0.590909
vt 1.000000 1.000000
s 0
f 2/1/1 24/2/1 1/3/1
f 3/4/2 25/5/2 2/1/2
f 3/4/3 27/6/3 26/7/3
f 4/8/4 28/9/4 27/6/4
f 5/10/5 29/11/5 28/9/5
f 6/12/6 30/13/6 29/11/6
f 7/14/7 31/15/7 30/13/7
f 9/16/8 31/15/8 8/17/8
f 10/18/9 32/19/9 9/16/9
f 11/20/10 33/21/10 10/18/10
f 12/22/11 34/23/11 11/20/11
f 13/24/12 35/25/12 12/22/12
f 14/26/13 36/27/13 13/24/13
f 14/26/14 38/28/14 37/29/14
f 15/30/15 39/31/15 38/28/15
f 16/32/16 40/33/16 39/31/16
f 17/34/17 41/35/17 40/33/17
f 19/36/18 41/35/18 18/37/18
f 20/38/19 42/39/19 19/36/19
f 21/40/20 43/41/20 20/38/20
f 22/42/21 44/43/21 21/40/21
f 22/42/22 46/44/22 45/45/22
f 24/2/23 48/46/23 47/47/23
f 25/5/24 49/48/24 48/46/24
f 27/6/25 49/48/25 26/7/25
f 28/9/26 50/49/26 27/6/26
f 29/11/27 51/50/27 28/9/27
f 30/13/28 52/51/28 29/11/28
f 31/15/29 53/52/29 30/13/29
f 32/19/30 54/53/30 31/15/30
f 33/21/31 55/54/31 32/19/31
f 34/23/32 56/55/32 33/21/32
f 35/25/33 57/56/33 34/23/33
f 36/27/34 58/57/34 35/25/34
f 36/27/35 60/58/35 59/59/35
f 38/28/36 60/58/36 37/29/36
f 39/31/37 61/60/37 38/28/37
f 39/31/38 63/61/38 62/62/38
f 40/33/39 64/63/39 63/61/39
f 41/35/40 65/64/40 64/63/40
f 43/41/41 65/64/41 42/39/41
f 44/43/42 66/65/42 43/41/42
f 45/45/43 67/66/43 44/43/43
f 45/45/44 69/67/44 68/68/44
f 47/47/45 71/69/45 70/70/45
f 48/46/46 72/71/46 71/69/46
f 50/49/47 72/71/47 49/48/47
f 51/50/48 73/72/48 50/49/48
f 52/51/49 74/73/49 51/50/49
f 53/52/50 75/74/50 52/51/50
f 54/53/51 76/75/51 53/52/51
f 55/54/52 77/76/52 54/53/52
f 56/55/53 78/77/53 55/54/53
f 57/56/54 79/78/54 56/55/54
f 58/57/55 80/79/55 57/56/55
f 59/59/56 81/80/56 58/57/56
f 59/59/57 83/81/57 82/82/57
f 60/58/58 84/83/58 83/81/58
f 62/62/59 84/83/59 61/60/59
f 62/62/60 86/84/60 85/85/60
f 63/61/61 87/86/61 86/84/61
f 64/63/62 88/87/62 87/86/62
f 65/64/63 89/88/63 88/87/63
f 66/65/64 90/89/64 89/88/64
f 67/66/65 91/90/65 90/89/65
f 69/67/66 91/90/66 68/68/66
f 70/70/67 94/91/67 93/92/67
f 71/69/68 95/93/68 94/91/68
f 73/72/69 95/93/69 72/71/69
f 74/73/70 96/94/70 73/72/70
f 75/74/71 97/95/71 74/73/71
f 76/75/72 98/96/72 75/74/72
f 77/76/73 99/97/73 76/75/73
f 78/77/74 100/98/74 77/76/74
f 79/78/75 101/99/75 78/77/75
f 80/79/76 102/100/76 79/78/76
f 80/79/77 104/101/77 103/102/77
f 82/82/78 104/101/78 81/80/78
f 82/82/79 106/103/79 105/104/79
f 83/81/80 107/105/80 106/103/80
f 84/83/81 108/106/81 107/105/81
f 86/84/82 108/106/82 85/85/82
f 86/84/83 110/107/83 109/108/83
f 87/86/84 111/109/84 110/107/84
f 88/87/85 112/110/85 111/109/85
f 89/88/86 113/111/86 112/110/86
f 90/89/87 114/112/87 113/111/87
f 92/113/88 114/112/88 91/90/88
f 93/92/89 117/114/89 116/115/89
f 94/91/90 118/116/90 117/114/90
f 96/94/91 118/116/91 95/93/91
f 96/94/92 120/117/92 119/118/92
f 98/96/93 120/117/93 97/95/93
f 99/97/94 121/119/94 98/96/94
f 100/98/95 122/120/95 99/97/95
f 101/99/96 123/121/96 100/98/96
f 102/100/97 124/122/97 101/99/97
f 103/102/98 125/123/98 102/100/98
f 103/102/99 127/124/99 126/125/99
f 104/101/100 128/126/100 127/124/100
f 106/103/101 128/126/101 105/104/101
f 106/103/102 130/127/102 129/128/102
f 107/105/103 131/129/103 130/127/103
f 109/108/104 131/129/104 108/106/104
f 110/107/105 132/130/105 109/108/105
f 110/107/106 134/131/106 133/132/106
f 111/109/107 135/133/107 134/131/107
f 112/110/108 136/134/108 135/133/108
f 113/111/109 137/135/109 136/134/109
f 115/136/110 137/135/110 114/112/110
f 117/114/111 139/137/111 116/115/111
f 117/114/112 141/138/112 140/139/112
f 118/116/113 142/140/113 141/138/113
f 120/117/114 142/140/114 119/118/114
f 121/119/115 143/141/115 120/117/115
f 122/120/116 144/142/116 121/119/116
f 123/121/117 145/143/117 122/120/117
f 123/121/118 147/144/118 146/145/118
f 124/122/119 148/146/119 147/144/119
f 125/123/120 149/147/120 148/146/120
f 126/125/121 150/148/121 149/147/121
f 127/124/122 151/149/122 150/148/122
f 129/128/123 151/149/123 128/126/123
f 130/127/124 152/150/124 129/128/124
f 130/127/125 154/151/125 153/152/125
f 132/130/126 154/151/126 131/129/126
f 132/130/127 156/153/127 155/154/127
f 133/132/128 157/155/128 156/153/128
f 134/131/129 158/156/129 157/155/129
f 135/133/130 159/157/130 158/156/130
f 136/134/131 160/158/131 159/157/131
f 138/159/132 160/158/132 137/135/132
f 140/139/133 162/160/133 139/137/133
f 140/139/134 164/161/134 163/162/134
f 141/138/135 165/163/135 164/161/135
f 143/141/136 165/163/136 142/140/136
f 144/142/137 166/164/137 143/141/137
f 145/143/138 167/165/138 144/142/138
f 146/145/139 168/166/139 145/143/139
f 146/145/140 170/167/140 169/168/140
f 147/144/141 171/169/141 170/167/141
f 149/147/142 171/169/142 148/146/142
f 150/148/143 172/170/143 149/147/143
f 150/148/144 174/171/144 173/172/144
f 151/149/145 175/173/145 174/171/145
f 153/152/146 175/173/146 152/150/146
f 154/151/147 176/174/147 153/152/147
f 154/151/148 178/175/148 177/176/148
f 155/154/149 179/177/149 178/175/149
f 156/153/150 180/178/150 179/177/150
f 157/155/151 181/179/151 180/178/151
f 158/156/152 182/180/152 181/179/152
f 160/158/153 182/180/153 159/157/153
f 161/181/154 183/182/154 160/158/154
f 163/162/155 185/183/155 162/160/155
f 163/162/156 187/184/156 186/185/156
f 164/161/157 188/186/157 187/184/157
f 165/163/158 189/187/158 188/186/158
f 166/164/159 190/188/159 189/187/159
f 167/165/160 191/189/160 190/188/160
f 168/166/161 192/190/161 191/189/161
f 170/167/162 192/190/162 169/168/162
f 171/169/163 193/191/163 170/167/163
f 172/170/164 194/192/164 171/169/164
f 173/172/165 195/193/165 172/170/165
f 173/172/166 197/194/166 196/195/166
f 174/171/167 198/196/167 197/194/167
f 175/173/168 199/197/168 198/196/168
f 176/174/169 200/198/169 199/197/169
f 177/176/170 201/199/170 200/198/170
f 178/175/171 202/200/171 201/199/171
f 179/177/172 203/201/172 202/200/172
f 181/179/173 203/201/173 180/178/173
f 182/180/174 204/202/174 181/179/174
f 182/180/175 206/203/175 205/204/175
f 183/182/176 207/205/176 206/203/176
f 186/185/177 208/206/177 185/183/177
f 187/184/178 209/207/178 186/185/178
f 188/186/179 210/208/179 187/184/179
f 188/186/180 212/209/180 211/210/180
f 189/187/181 213/211/181 212/209/181
f 190/188/182 214/212/182 213/211/182
f 191/189/183 215/213/183 214/212/183
f 193/191/184 215/213/184 192/190/184
f 194/192/185 216/214/185 193/191/185
f 195/193/186 217/215/186 194/192/186
f 196/195/187 218/216/187 195/193/187
f 196/195/188 220/217/188 219/218/188
f 197/194/189 221/219/189 220/217/189
f 198/196/190 222/220/190 221/219/190
f 199/197/191 223/221/191 222/220/191
f 200/198/192 224/222/192 223/221/192
f 201/199/193 225/223/193 224/222/193
f 203/201/194 225/223/194 202/200/194
f 204/202/195 226/224/195 203/201/195
f 205/204/196 227/225/196 204/202/196
f 205/204/197 229/226/197 228/227/197
f 206/203/198 230/228/198 229/226/198
f 209/207/199 231/229/199 208/206/199
f 210/208/200 232/230/200 209/207/200
f 211/210/201 233/231/201 210/208/201
f 211/210/202 235/232/202 234/233/202
f 212/209/203 236/234/203 235/232/203
f 213/211/204 237/235/204 236/234/204
f 214/212/205 238/236/205 237/235/205
f 216/214/206 238/236/206 215/213/206
f 217/215/207 239/237/207 216/214/207
f 218/216/208 240/238/208 217/215/208
f 219/218/209 241/239/209 218/216/209
f 219/218/210 243/240/210 242/241/210
f 220/217/211 244/242/211 243/240/211
f 221/219/212 245/243/212 244/242/212
f 222/220/213 246/244/213 245/243/213
f 223/221/214 247/245/214 246/244/214
f 224/222/215 248/246/215 247/245/215
f 225/223/216 249/247/216 248/246/216
f 226/224/217 250/248/217 249/247/217
f 227/225/218 251/249/218 250/248/218
f 229/226/219 251/249/219 228/227/219
f 230/228/220 252/250/220 229/226/220
f 232/230/221 254/251/221 231/229/221
f 233/231/222 255/252/222 232/230/222
f 234/233/223 256/253/223 233/231/223
f 234/233/224 258/254/224 257/255/224
f 235/232/225 259/256/225 258/254/225
f 236/234/226 260/257/226 259/256/226
f 237/235/227 261/258/227 260/257/227
f 239/237/228 261/258/228 238/236/228
f 240/238/229 262/259/229 239/237/229
f 241/239/230 263/260/230 240/238/230
f 242/241/231 264/261/231 241/239/231
f 243/240/232 265/262/232 242/241/232
f 243/240/232 267/263/232 266/264/232
f 244/242/233 268/265/233 267/263/233
f 245/243/234 269/266/234 268/265/234
f 246/244/235 270/267/235 269/266/235
f 247/245/236 271/268/236 270/267/236
f 248/246/237 272/269/237 271/268/237
f 249/247/238 273/270/238 272/269/238
f 250/248/239 274/271/239 273/270/239
f 252/250/240 274/271/240 251/249/240
f 253/272/241 275/273/241 252/250/241
f 255/252/242 277/274/242 254/251/242
f 256/253/243 278/275/243 255/252/243
f 257/255/244 279/276/244 256/253/244
f 257/255/245 281/277/245 280/278/245
f 258/254/246 282/279/246 281/277/246
f 259/256/247 283/280/247 282/279/247
f 260/257/248 284/281/248 283/280/248
f 262/259/249 284/281/249 261/258/249
f 263/260/250 285/282/250 262/259/250
f 264/261/232 286/283/232 263/260/232
f 265/262/232 287/284/232 264/261/232
f 266/264/232 288/285/232 265/262/232
f 267/263/232 289/286/232 266/264/232
f 268/265/251 290/287/251 267/263/251
f 268/265/210 292/288/210 291/289/210
f 269/266/252 293/290/252 292/288/252
f 270/267/253 294/291/253 293/290/253
f 271/268/254 295/292/254 294/291/254
f 272/269/255 296/293/255 295/292/255
f 273/270/256 297/294/256 296/293/256
f 275/273/257 297/294/257 274/271/257
f 276/295/258 298/296/258 275/273/258
f 277/274/259 301/297/259 300/298/259
f 278/275/260 302/299/260 301/297/260
f 279/276/261 303/300/261 302/299/261
f 281/277/262 303/300/262 280/278/262
f 282/279/263 304/301/263 281/277/263
f 283/280/264 305/302/264 282/279/264
f 284/281/265 306/303/265 283/280/265
f 285/282/232 307/304/232 284/281/232
f 286/283/232 308/305/232 285/282/232
f 287/284/232 309/306/232 286/283/232
f 288/285/232 310/307/232 287/284/232
f 289/286/232 311/308/232 288/285/232
f 290/287/232 312/309/232 289/286/232
f 291/289/232 313/310/232 290/287/232
f 292/288/232 314/311/232 291/289/232
f 293/290/266 315/312/266 292/288/266
f 294/291/267 316/313/267 293/290/267
f 295/292/268 317/314/268 294/291/268
f 295/292/269 319/315/269 318/316/269
f 296/293/270 320/317/270 319/315/270
f 298/296/271 320/317/271 297/294/271
f 299/318/272 321/319/272 298/296/272
f 300/298/273 324/320/273 323/321/273
f 301/297/274 325/322/274 324/320/274
f 302/299/275 326/323/275 325/322/275
f 304/301/276 326/323/276 303/300/276
f 305/302/277 327/324/277 304/301/277
f 306/303/278 328/325/278 305/302/278
f 307/304/279 329/326/279 306/303/279
f 308/305/280 330/327/280 307/304/280
f 308/305/281 332/328/281 331/329/281
f 309/306/282 333/330/282 332/328/282
f 310/307/283 334/331/283 333/330/283
f 312/309/232 334/331/232 311/308/232
f 313/310/232 335/332/232 312/309/232
f 314/311/232 336/333/232 313/310/232
f 315/312/284 337/334/284 314/311/284
f 316/313/285 338/335/285 315/312/285
f 317/314/286 339/336/286 316/313/286
f 318/316/287 340/337/287 317/314/287
f 319/315/288 341/338/288 318/316/288
f 320/317/289 342/339/289 319/315/289
f 321/319/290 343/340/290 320/317/290
f 321/319/291 345/341/291 344/342/291
f 324/320/292 346/343/292 323/321/292
f 325/322/293 347/344/293 324/320/293
f 325/322/294 349/345/294 348/346/294
f 326/323/295 350/347/295 349/345/295
f 327/324/296 351/348/296 350/347/296
f 328/325/297 352/349/297 351/348/297
f 330/327/298 352/349/298 329/326/298
f 331/329/299 353/350/299 330/327/299
f 331/329/300 355/351/300 354/352/300
f 332/328/301 356/353/301 355/351/301
f 333/330/302 357/354/302 356/353/302
f 334/331/303 358/355/303 357/354/303
f 336/333/304 358/355/304 335/332/304
f 337/334/305 359/356/305 336/333/305
f 338/335/306 360/357/306 337/334/306
f 339/336/307 361/358/307 338/335/307
f 340/337/308 362/359/308 339/336/308
f 341/338/309 363/360/309 340/337/309
f 342/339/310 364/361/310 341/338/310
f 343/340/311 365/362/311 342/339/311
f 344/342/312 366/363/312 343/340/312
f 344/342/313 368/364/313 367/365/313
f 347/344/314 369/366/314 346/343/314
f 348/346/315 370/367/315 347/344/315
f 348/346/316 372/368/316 371/369/316
f 349/345/317 373/370/317 372/368/317
f 350/347/318 374/371/318 373/370/318
f 351/348/319 375/372/319 374/371/319
f 353/350/320 375/372/320 352/349/320
f 354/352/321 376/373/321 353/350/321
f 354/352/322 378/374/322 377/375/322
f 355/351/323 379/376/323 378/374/323
f 356/353/324 380/377/324 379/376/324
f 357/354/325 381/378/325 380/377/325
f 358/355/326 382/379/326 381/378/326
f 360/357/327 382/379/327 359/356/327
f 361/358/328 383/380/328 360/357/328
f 362/359/329 384/381/329 361/358/329
f 363/360/330 385/382/330 362/359/330
f 364/361/331 386/383/331 363/360/331
f 365/362/332 387/384/332 364/361/332
f 366/363/333 388/385/333 365/362/333
f 367/365/334 389/386/334 366/363/334
f 367/365/335 391/387/335 390/388/335
f 370/367/336 392/389/336 369/366/336
f 371/369/337 393/390/337 370/367/337
f 371/369/338 395/391/338 394/392/338
f 372/368/339 396/393/339 395/391/339
f 373/370/340 397/394/340 396/393/340
f 374/371/341 398/395/341 397/394/341
f 375/372/342 399/396/342 398/395/342
f 377/375/343 399/396/343 376/373/343
f 377/375/344 401/397/344 400/398/344
f 378/374/345 402/399/345 401/397/345
f 379/376/346 403/400/346 402/399/346
f 380/377/347 404/401/347 403/400/347
f 381/378/348 405/402/348 404/401/348
f 383/380/349 405/402/349 382/379/349
f 384/381/350 406/403/350 383/380/350
f 385/382/351 407/404/351 384/381/351
f 386/383/352 408/405/352 385/382/352
f 387/384/353 409/406/353 386/383/353
f 388/385/354 410/407/354 387/384/354
f 389/386/355 411/408/355 388/385/355
f 390/388/356 412/409/356 389/386/356
f 390/388/357 414/410/357 413/411/357
f 393/390/358 415/412/358 392/389/358
f 394/392/359 416/413/359 393/390/359
f 394/392/360 418/414/360 417/415/360
f 395/391/361 419/416/361 418/414/361
f 396/393/362 420/417/362 419/416/362
f 397/394/363 421/418/363 420/417/363
f 398/395/364 422/419/364 421/418/364
f 400/398/365 422/419/365 399/396/365
f 400/398/366 424/420/366 423/421/366
f 401/397/367 425/422/367 424/420/367
f 402/399/368 426/423/368 425/422/368
f 403/400/369 427/424/369 426/423/369
f 404/401/370 428/425/370 427/424/370
f 406/403/371 428/425/371 405/402/371
f 407/404/372 429/426/372 406/403/372
f 408/405/373 430/427/373 407/404/373
f 409/406/374 431/428/374 408/405/374
f 410/407/375 432/429/375 409/406/375
f 411/408/376 433/430/376 410/407/376
f 412/409/377 434/431/377 411/408/377
f 413/411/378 435/432/378 412/409/378
f 413/411/379 437/433/379 436/434/379
f 415/412/380 439/435/380 438/436/380
f 416/413/381 440/437/381 439/435/381
f 417/415/382 441/438/382 440/437/382
f 419/416/383 441/438/383 418/414/383
f 420/417/384 442/439/384 419/416/384
f 420/417/385 444/440/385 443/441/385
f 422/419/386 444/440/386 421/418/386
f 423/421/387 445/442/387 422/419/387
f 423/421/388 447/443/388 446/444/388
f 424/420/389 448/445/389 447/443/389
f 425/422/390 449/446/390 448/445/390
f 426/423/391 450/447/391 449/446/391
f 427/424/392 451/448/392 450/447/392
f 429/426/393 451/448/393 428/425/393
f 430/427/394 452/449/394 429/426/394
f 431/428/395 453/450/395 430/427/395
f 432/429/396 454/451/396 431/428/396
f 433/430/397 455/452/397 432/429/397
f 434/431/398 456/453/398 433/430/398
f 435/432/399 457/454/399 434/431/399
f 436/434/400 458/455/400 435/432/400
f 436/434/401 460/456/401 459/457/401
f 438/436/402 462/458/402 461/459/402
f 439/435/403 463/460/403 462/458/403
f 440/437/404 464/461/404 463/460/404
f 442/439/405 464/461/405 441/438/405
f 443/441/406 465/462/406 442/439/406
f 444/440/407 466/463/407 443/441/407
f 445/442/408 467/464/408 444/440/408
f 446/444/409 468/465/409 445/442/409
f 446/444/410 470/466/410 469/467/410
f 447/443/411 471/468/411 470/466/411
f 448/445/412 472/469/412 471/468/412
f 449/446/413 473/470/413 472/469/413
f 450/447/414 474/471/414 473/470/414
f 452/449/415 474/471/415 451/448/415
f 453/450/416 475/472/416 452/449/416
f 454/451/417 476/473/417 453/450/417
f 455/452/418 477/474/418 454/451/418
f 456/453/419 478/475/419 455/452/419
f 457/454/420 479/476/420 456/453/420
f 458/455/421 480/477/421 457/454/421
f 459/457/422 481/478/422 458/455/422
f 459/457/423 483/479/423 482/480/423
f 461/459/424 485/481/424 484/482/424
f 462/458/425 486/483/425 485/481/425
f 463/460/426 487/484/426 486/483/426
f 464/461/427 488/485/427 487/484/427
f 465/462/428 489/486/428 488/485/428
f 466/463/429 490/487/429 489/486/429
f 468/465/430 490/487/430 467/464/430
f 469/467/431 491/488/431 468/465/431
f 469/467/432 493/489/432 492/490/432
f 470/466/433 494/491/433 493/489/433
f 471/468/434 495/492/434 494/491/434
f 472/469/435 496/493/435 495/492/435
f 473/470/436 497/494/436 496/493/436
f 475/472/437 497/494/437 474/471/437
f 476/473/438 498/495/438 475/472/438
f 477/474/439 499/496/439 476/473/439
f 478/475/440 500/497/440 477/474/440
f 479/476/441 501/498/441 478/475/441
f 480/477/442 502/499/442 479/476/442
f 481/478/443 503/500/443 480/477/443
f 482/480/444 504/501/444 481/478/444
f 482/480/445 506/502/445 505/503/445
f 484/482/446 508/504/446 507/505/446
f 485/481/447 509/506/447 508/504/447
f 486/483/448 510/507/448 509/506/448
f 487/484/449 511/508/449 510/507/449
f 488/485/450 512/509/450 511/508/450
f 489/486/451 513/510/451 512/509/451
f 490/487/452 514/511/452 513/510/452
f 491/488/453 515/512/453 514/511/453
f 493/489/454 515/512/454 492/490/454
f 494/491/455 516/513/455 493/489/455
f 495/492/456 517/514/456 494/491/456
f 496/493/457 518/515/457 495/492/457
f 497/494/458 519/516/458 496/493/458
f 497/494/459 521/517/459 520/518/459
f 498/495/460 522/519/460 521/517/460
f 499/496/461 523/520/461 522/519/461
f 500/497/462 524/521/462 523/520/462
f 501/498/463 525/522/463 524/521/463
f 502/499/464 526/523/464 525/522/464
f 503/500/465 527/524/465 526/523/465
f 504/501/466 528/525/466 527/524/466
f 506/502/467 528/525/467 505/503/467
f 2/1/468 25/5/468 24/2/468
f 3/4/469 26/7/469 25/5/469
f 3/4/470 4/8/470 27/6/470
f 4/8/471 5/10/471 28/9/471
f 5/10/472 6/12/472 29/11/472
f 6/12/473 7/14/473 30/13/473
f 7/14/474 8/17/474 31/15/474
f 9/16/475 32/19/475 31/15/475
f 10/18/476 33/21/476 32/19/476
f 11/20/477 34/23/477 33/21/477
f 12/22/478 35/25/478 34/23/478
f 13/24/479 36/27/479 35/25/479
f 14/26/480 37/29/480 36/27/480
f 14/26/481 15/30/481 38/28/481
f 15/30/482 16/32/482 39/31/482
f 16/32/483 17/34/483 40/33/483
f 17/34/484 18/37/484 41/35/484
f 19/36/485 42/39/485 41/35/485
f 20/38/486 43/41/486 42/39/486
f 21/40/487 44/43/487 43/41/487
f 22/42/488 45/45/488 44/43/488
f 22/42/489 23/526/489 46/44/489
f 24/2/490 25/5/490 48/46/490
f 25/5/491 26/7/491 49/48/491
f 27/6/492 50/49/492 49/48/492
f 28/9/493 51/50/493 50/49/493
f 29/11/494 52/51/494 51/50/494
f 30/13/495 53/52/495 52/51/495
f 31/15/496 54/53/496 53/52/496
f 32/19/497 55/54/497 54/53/497
f 33/21/498 56/55/498 55/54/498
f 34/23/499 57/56/499 56/55/499
f 35/25/500 58/57/500 57/56/500
f 36/27/501 59/59/501 58/57/501
f 36/27/502 37/29/502 60/58/502
f 38/28/503 61/60/503 60/58/503
f 39/31/504 62/62/504 61/60/504
f 39/31/505 40/33/505 63/61/505
f 40/33/506 41/35/506 64/63/506
f 41/35/507 42/39/507 65/64/507
f 43/41/508 66/65/508 65/64/508
f 44/43/509 67/66/509 66/65/509
f 45/45/510 68/68/510 67/66/510
f 45/45/511 46/44/511 69/67/511
f 47/47/512 48/46/512 71/69/512
f 48/46/513 49/48/513 72/71/513
f 50/49/514 73/72/514 72/71/514
f 51/50/515 74/73/515 73/72/515
f 52/51/516 75/74/516 74/73/516
f 53/52/517 76/75/517 75/74/517
f 54/53/518 77/76/518 76/75/518
f 55/54/519 78/77/519 77/76/519
f 56/55/520 79/78/520 78/77/520
f 57/56/521 80/79/521 79/78/521
f 58/57/522 81/80/522 80/79/522
f 59/59/523 82/82/523 81/80/523
f 59/59/524 60/58/524 83/81/524
f 60/58/525 61/60/525 84/83/525
f 62/62/526 85/85/526 84/83/526
f 62/62/527 63/61/527 86/84/527
f 63/61/528 64/63/528 87/86/528
f 64/63/529 65/64/529 88/87/529
f 65/64/530 66/65/530 89/88/530
f 66/65/531 67/66/531 90/89/531
f 67/66/532 68/68/532 91/90/532
f 69/67/533 92/113/533 91/90/533
f 70/70/534 71/69/534 94/91/534
f 71/69/535 72/71/535 95/93/535
f 73/72/536 96/94/536 95/93/536
f 74/73/537 97/95/537 96/94/537
f 75/74/538 98/96/538 97/95/538
f 76/75/539 99/97/539 98/96/539
f 77/76/540 100/98/540 99/97/540
f 78/77/541 101/99/541 100/98/541
f 79/78/542 102/100/542 101/99/542
f 80/79/543 103/102/543 102/100/543
f 80/79/544 81/80/544 104/101/544
f 82/82/545 105/104/545 104/101/545
f 82/82/546 83/81/546 106/103/546
f 83/81/547 84/83/547 107/105/547
f 84/83/548 85/85/548 108/106/548
f 86/84/549 109/108/549 108/106/549
f 86/84/550 87/86/550 110/107/550
f 87/86/551 88/87/551 111/109/551
f 88/87/552 89/88/552 112/110/552
f 89/88/553 90/89/553 113/111/553
f 90/89/554 91/90/554 114/112/554
f 92/113/555 115/136/555 114/112/555
f 93/92/556 94/91/556 117/114/556
f 94/91/557 95/93/557 118/116/557
f 96/94/558 119/118/558 118/116/558
f 96/94/559 97/95/559 120/117/559
f 98/96/560 121/119/560 120/117/560
f 99/97/561 122/120/561 121/119/561
f 100/98/562 123/121/562 122/120/562
f 101/99/563 124/122/563 123/121/563
f 102/100/564 125/123/564 124/122/564
f 103/102/565 126/125/565 125/123/565
f 103/102/566 104/101/566 127/124/566
f 104/101/567 105/104/567 128/126/567
f 106/103/568 129/128/568 128/126/568
f 106/103/569 107/105/569 130/127/569
f 107/105/570 108/106/570 131/129/570
f 109/108/571 132/130/571 131/129/571
f 110/107/572 133/132/572 132/130/572
f 110/107/573 111/109/573 134/131/573
f 111/109/574 112/110/574 135/133/574
f 112/110/575 113/111/575 136/134/575
f 113/111/576 114/112/576 137/135/576
f 115/136/577 138/159/577 137/135/577
f 117/114/578 140/139/578 139/137/578
f 117/114/579 118/116/579 141/138/579
f 118/116/580 119/118/580 142/140/580
f 120/117/581 143/141/581 142/140/581
f 121/119/582 144/142/582 143/141/582
f 122/120/583 145/143/583 144/142/583
f 123/121/584 146/145/584 145/143/584
f 123/121/585 124/122/585 147/144/585
f 124/122/586 125/123/586 148/146/586
f 125/123/587 126/125/587 149/147/587
f 126/125/588 127/124/588 150/148/588
f 127/124/589 128/126/589 151/149/589
f 129/128/590 152/150/590 151/149/590
f 130/127/591 153/152/591 152/150/591
f 130/127/592 131/129/592 154/151/592
f 132/130/593 155/154/593 154/151/593
f 132/130/594 133/132/594 156/153/594
f 133/132/595 134/131/595 157/155/595
f 134/131/596 135/133/596 158/156/596
f 135/133/597 136/134/597 159/157/597
f 136/134/598 137/135/598 160/158/598
f 138/159/599 161/181/599 160/158/599
f 140/139/600 163/162/600 162/160/600
f 140/139/601 141/138/601 164/161/601
f 141/138/602 142/140/602 165/163/602
f 143/141/603 166/164/603 165/163/603
f 144/142/604 167/165/604 166/164/604
f 145/143/605 168/166/605 167/165/605
f 146/145/606 169/168/606 168/166/606
f 146/145/607 147/144/607 170/167/607
f 147/144/608 148/146/608 171/169/608
f 149/147/609 172/170/609 171/169/609
f 150/148/610 173/172/610 172/170/610
f 150/148/611 151/149/611 174/171/611
f 151/149/612 152/150/612 175/173/612
f 153/152/613 176/174/613 175/173/613
f 154/151/614 177/176/614 176/174/614
f 154/151/615 155/154/615 178/175/615
f 155/154/616 156/153/616 179/177/616
f 156/153/617 157/155/617 180/178/617
f 157/155/618 158/156/618 181/179/618
f 158/156/619 159/157/619 182/180/619
f 160/158/620 183/182/620 182/180/620
f 161/181/621 184/527/621 183/182/621
f 163/162/622 186/185/622 185/183/622
f 163/162/623 164/161/623 187/184/623
f 164/161/624 165/163/624 188/186/624
f 165/163/625 166/164/625 189/187/625
f 166/164/626 167/165/626 190/188/626
f 167/165/627 168/166/627 191/189/627
f 168/166/628 169/168/628 192/190/628
f 170/167/629 193/191/629 192/190/629
f 171/169/630 194/192/630 193/191/630
f 172/170/631 195/193/631 194/192/631
f 173/172/632 196/195/632 195/193/632
f 173/172/633 174/171/633 197/194/633
f 174/171/634 175/173/634 198/196/634
f 175/173/635 176/174/635 199/197/635
f 176/174/636 177/176/636 200/198/636
f 177/176/637 178/175/637 201/199/637
f 178/175/638 179/177/638 202/200/638
f 179/177/639 180/178/639 203/201/639
f 181/179/640 204/202/640 203/201/640
f 182/180/641 205/204/641 204/202/641
f 182/180/642 183/182/642 206/203/642
f 183/182/643 184/527/643 207/205/643
f 186/185/644 209/207/644 208/206/644
f 187/184/645 210/208/645 209/207/645
f 188/186/646 211/210/646 210/208/646
f 188/186/647 189/187/647 212/209/647
f 189/187/648 190/188/648 213/211/648
f 190/188/649 191/189/649 214/212/649
f 191/189/650 192/190/650 215/213/650
f 193/191/651 216/214/651 215/213/651
f 194/192/652 217/215/652 216/214/652
f 195/193/653 218/216/653 217/215/653
f 196/195/654 219/218/654 218/216/654
f 196/195/655 197/194/655 220/217/655
f 197/194/656 198/196/656 221/219/656
f 198/196/657 199/197/657 222/220/657
f 199/197/658 200/198/658 223/221/658
f 200/198/659 201/199/659 224/222/659
f 201/199/660 202/200/660 225/223/660
f 203/201/661 226/224/661 225/223/661
f 204/202/662 227/225/662 226/224/662
f 205/204/663 228/227/663 227/225/663
f 205/204/664 206/203/664 229/226/664
f 206/203/665 207/205/665 230/228/665
f 209/207/666 232/230/666 231/229/666
f 210/208/667 233/231/667 232/230/667
f 211/210/668 234/233/668 233/231/668
f 211/210/669 212/209/669 235/232/669
f 212/209/670 213/211/670 236/234/670
f 213/211/671 214/212/671 237/235/671
f 214/212/672 215/213/672 238/236/672
f 216/214/673 239/237/673 238/236/673
f 217/215/674 240/238/674 239/237/674
f 218/216/675 241/239/675 240/238/675
f 219/218/676 242/241/676 241/239/676
f 219/218/677 220/217/677 243/240/677
f 220/217/678 221/219/678 244/242/678
f 221/219/679 222/220/679 245/243/679
f 222/220/680 223/221/680 246/244/680
f 223/221/681 224/222/681 247/245/681
f 224/222/682 225/223/682 248/246/682
f 225/223/683 226/224/683 249/247/683
f 226/224/684 227/225/684 250/248/684
f 227/225/685 228/227/685 251/249/685
f 229/226/686 252/250/686 251/249/686
f 230/228/687 253/272/687 252/250/687
f 232/230/688 255/252/688 254/251/688
f 233/231/689 256/253/689 255/252/689
f 234/233/690 257/255/690 256/253/690
f 234/233/691 235/232/691 258/254/691
f 235/232/692 236/234/692 259/256/692
f 236/234/693 237/235/693 260/257/693
f 237/235/694 238/236/694 261/258/694
f 239/237/695 262/259/695 261/258/695
f 240/238/696 263/260/696 262/259/696
f 241/239/697 264/261/697 263/260/697
f 242/241/232 265/262/232 264/261/232
f 243/240/232 266/264/232 265/262/232
f 243/240/698 244/242/698 267/263/698
f 244/242/699 245/243/699 268/265/699
f 245/243/700 246/244/700 269/266/700
f 246/244/701 247/245/701 270/267/701
f 247/245/702 248/246/702 271/268/702
f 248/246/703 249/247/703 272/269/703
f 249/247/704 250/248/704 273/270/704
f 250/248/705 251/249/705 274/271/705
f 252/250/706 275/273/706 274/271/706
f 253/272/707 276/295/707 275/273/707
f 255/252/708 278/275/708 277/274/708
f 256/253/709 279/276/709 278/275/709
f 257/255/710 280/278/710 279/276/710
f 257/255/711 258/254/711 281/277/711
f 258/254/712 259/256/712 282/279/712
f 259/256/713 260/257/713 283/280/713
f 260/257/714 261/258/714 284/281/714
f 262/259/715 285/282/715 284/281/715
f 263/260/232 286/283/232 285/282/232
f 264/261/232 287/284/232 286/283/232
f 265/262/232 288/285/232 287/284/232
f 266/264/232 289/286/232 288/285/232
f 267/263/232 290/287/232 289/286/232
f 268/265/210 291/289/210 290/287/210
f 268/265/716 269/266/716 292/288/716
f 269/266/717 270/267/717 293/290/717
f 270/267/718 271/268/718 294/291/718
f 271/268/719 272/269/719 295/292/719
f 272/269/720 273/270/720 296/293/720
f 273/270/721 274/271/721 297/294/721
f 275/273/722 298/296/722 297/294/722
f 276/295/723 299/318/723 298/296/723
f 277/274/724 278/275/724 301/297/724
f 278/275/725 279/276/725 302/299/725
f 279/276/726 280/278/726 303/300/726
f 281/277/727 304/301/727 303/300/727
f 282/279/728 305/302/728 304/301/728
f 283/280/729 306/303/729 305/302/729
f 284/281/730 307/304/730 306/303/730
f 285/282/232 308/305/232 307/304/232
f 286/283/232 309/306/232 308/305/232
f 287/284/232 310/307/232 309/306/232
f 288/285/232 311/308/232 310/307/232
f 289/286/232 312/309/232 311/308/232
f 290/287/232 313/310/232 312/309/232
f 291/289/232 314/311/232 313/310/232
f 292/288/731 315/312/731 314/311/731
f 293/290/732 316/313/732 315/312/732
f 294/291/733 317/314/733 316/313/733
f 295/292/734 318/316/734 317/314/734
f 295/292/735 296/293/735 319/315/735
f 296/293/736 297/294/736 320/317/736
f 298/296/737 321/319/737 320/317/737
f 299/318/738 322/528/738 321/319/738
f 300/298/739 301/297/739 324/320/739
f 301/297/740 302/299/740 325/322/740
f 302/299/741 303/300/741 326/323/741
f 304/301/742 327/324/742 326/323/742
f 305/302/743 328/325/743 327/324/743
f 306/303/744 329/326/744 328/325/744
f 307/304/745 330/327/745 329/326/745
f 308/305/746 331/329/746 330/327/746
f 308/305/747 309/306/747 332/328/747
f 309/306/748 310/307/748 333/330/748
f 310/307/232 311/308/232 334/331/232
f 312/309/232 335/332/232 334/331/232
f 313/310/232 336/333/232 335/332/232
f 314/311/749 337/334/749 336/333/749
f 315/312/750 338/335/750 337/334/750
f 316/313/751 339/336/751 338/335/751
f 317/314/752 340/337/752 339/336/752
f 318/316/753 341/338/753 340/337/753
f 319/315/754 342/339/754 341/338/754
f 320/317/755 343/340/755 342/339/755
f 321/319/756 344/342/756 343/340/756
f 321/319/757 322/528/757 345/341/757
f 324/320/758 347/344/758 346/343/758
f 325/322/759 348/346/759 347/344/759
f 325/322/760 326/323/760 349/345/760
f 326/323/761 327/324/761 350/347/761
f 327/324/762 328/325/762 351/348/762
f 328/325/763 329/326/763 352/349/763
f 330/327/764 353/350/764 352/349/764
f 331/329/765 354/352/765 353/350/765
f 331/329/766 332/328/766 355/351/766
f 332/328/767 333/330/767 356/353/767
f 333/330/768 334/331/768 357/354/768
f 334/331/304 335/332/304 358/355/304
f 336/333/769 359/356/769 358/355/769
f 337/334/770 360/357/770 359/356/770
f 338/335/771 361/358/771 360/357/771
f 339/336/772 362/359/772 361/358/772
f 340/337/773 363/360/773 362/359/773
f 341/338/774 364/361/774 363/360/774
f 342/339/775 365/362/775 364/361/775
f 343/340/776 366/363/776 365/362/776
f 344/342/777 367/365/777 366/363/777
f 344/342/778 345/341/778 368/364/778
f 347/344/779 370/367/779 369/366/779
f 348/346/780 371/369/780 370/367/780
f 348/346/781 349/345/781 372/368/781
f 349/345/782 350/347/782 373/370/782
f 350/347/783 351/348/783 374/371/783
f 351/348/784 352/349/784 375/372/784
f 353/350/785 376/373/785 375/372/785
f 354/352/786 377/375/786 376/373/786
f 354/352/787 355/351/787 378/374/787
f 355/351/788 356/353/788 379/376/788
f 356/353/789 357/354/789 380/377/789
f 357/354/790 358/355/790 381/378/790
f 358/355/791 359/356/791 382/379/791
f 360/357/792 383/380/792 382/379/792
f 361/358/793 384/381/793 383/380/793
f 362/359/794 385/382/794 384/381/794
f 363/360/795 386/383/795 385/382/795
f 364/361/796 387/384/796 386/383/796
f 365/362/797 388/385/797 387/384/797
f 366/363/798 389/386/798 388/385/798
f 367/365/799 390/388/799 389/386/799
f 367/365/800 368/364/800 391/387/800
f 370/367/801 393/390/801 392/389/801
f 371/369/802 394/392/802 393/390/802
f 371/369/803 372/368/803 395/391/803
f 372/368/804 373/370/804 396/393/804
f 373/370/805 374/371/805 397/394/805
f 374/371/806 375/372/806 398/395/806
f 375/372/807 376/373/807 399/396/807
f 377/375/808 400/398/808 399/396/808
f 377/375/809 378/374/809 401/397/809
f 378/374/810 379/376/810 402/399/810
f 379/376/811 380/377/811 403/400/811
f 380/377/812 381/378/812 404/401/812
f 381/378/813 382/379/813 405/402/813
f 383/380/814 406/403/814 405/402/814
f 384/381/815 407/404/815 406/403/815
f 385/382/816 408/405/816 407/404/816
f 386/383/817 409/406/817 408/405/817
f 387/384/818 410/407/818 409/406/818
f 388/385/819 411/408/819 410/407/819
f 389/386/820 412/409/820 411/408/820
f 390/388/821 413/411/821 412/409/821
f 390/388/822 391/387/822 414/410/822
f 393/390/823 416/413/823 415/412/823
f 394/392/824 417/415/824 416/413/824
f 394/392/825 395/391/825 418/414/825
f 395/391/826 396/393/826 419/416/826
f 396/393/827 397/394/827 420/417/827
f 397/394/828 398/395/828 421/418/828
f 398/395/829 399/396/829 422/419/829
f 400/398/830 423/421/830 422/419/830
f 400/398/831 401/397/831 424/420/831
f 401/397/832 402/399/832 425/422/832
f 402/399/833 403/400/833 426/423/833
f 403/400/834 404/401/834 427/424/834
f 404/401/835 405/402/835 428/425/835
f 406/403/836 429/426/836 428/425/836
f 407/404/837 430/427/837 429/426/837
f 408/405/838 431/428/838 430/427/838
f 409/406/839 432/429/839 431/428/839
f 410/407/840 433/430/840 432/429/840
f 411/408/841 434/431/841 433/430/841
f 412/409/842 435/432/842 434/431/842
f 413/411/843 436/434/843 435/432/843
f 413/411/844 414/410/844 437/433/844
f 415/412/845 416/413/845 439/435/845
f 416/413/846 417/415/846 440/437/846
f 417/415/847 418/414/847 441/438/847
f 419/416/848 442/439/848 441/438/848
f 420/417/849 443/441/849 442/439/849
f 420/417/850 421/418/850 444/440/850
f 422/419/851 445/442/851 444/440/851
f 423/421/852 446/444/852 445/442/852
f 423/421/853 424/420/853 447/443/853
f 424/420/854 425/422/854 448/445/854
f 425/422/855 426/423/855 449/446/855
f 426/423/856 427/424/856 450/447/856
f 427/424/857 428/425/857 451/448/857
f 429/426/858 452/449/858 451/448/858
f 430/427/859 453/450/859 452/449/859
f 431/428/860 454/451/860 453/450/860
f 432/429/861 455/452/861 454/451/861
f 433/430/862 456/453/862 455/452/862
f 434/431/863 457/454/863 456/453/863
f 435/432/864 458/455/864 457/454/864
f 436/434/865 459/457/865 458/455/865
f 436/434/866 437/433/866 460/456/866
f 438/436/867 439/435/867 462/458/867
f 439/435/868 440/437/868 463/460/868
f 440/437/869 441/438/869 464/461/869
f 442/439/870 465/462/870 464/461/870
f 443/441/871 466/463/871 465/462/871
f 444/440/872 467/464/872 466/463/872
f 445/442/873 468/465/873 467/464/873
f 446/444/874 469/467/874 468/465/874
f 446/444/875 447/443/875 470/466/875
f 447/443/876 448/445/876 471/468/876
f 448/445/877 449/446/877 472/469/877
f 449/446/878 450/447/878 473/470/878
f 450/447/879 451/448/879 474/471/879
f 452/449/880 475/472/880 474/471/880
f 453/450/881 476/473/881 475/472/881
f 454/451/882 477/474/882 476/473/882
f 455/452/883 478/475/883 477/474/883
f 456/453/884 479/476/884 478/475/884
f 457/454/885 480/477/885 479/476/885
f 458/455/886 481/478/886 480/477/886
f 459/457/887 482/480/887 481/478/887
f 459/457/888 460/456/888 483/479/888
f 461/459/889 462/458/889 485/481/889
f 462/458/890 463/460/890 486/483/890
f 463/460/891 464/461/891 487/484/891
f 464/461/892 465/462/892 488/485/892
f 465/462/893 466/463/893 489/486/893
f 466/463/894 467/464/894 490/487/894
f 468/465/895 491/488/895 490/487/895
f 469/467/896 492/490/896 491/488/896
f 469/467/897 470/466/897 493/489/897
f 470/466/898 471/468/898 494/491/898
f 471/468/899 472/469/899 495/492/899
f 472/469/900 473/470/900 496/493/900
f 473/470/901 474/471/901 497/494/901
f 475/472/902 498/495/902 497/494/902
f 476/473/903 499/496/903 498/495/903
f 477/474/904 500/497/904 499/496/904
f 478/475/905 501/498/905 500/497/905
f 479/476/906 502/499/906 501/498/906
f 480/477/907 503/500/907 502/499/907
f 481/478/908 504/501/908 503/500/908
f 482/480/909 505/503/909 504/501/909
f 482/480/910 483/479/910 506/502/910
f 484/482/911 485/481/911 508/504/911
f 485/481/912 486/483/912 509/506/912
f 486/483/913 487/484/913 510/507/913
f 487/484/914 488/485/914 511/508/914
f 488/485/915 489/486/915 512/509/915
f 489/486/916 490/487/916 513/510/916
f 490/487/917 491/488/917 514/511/917
f 491/488/918 492/490/918 515/512/918
f 493/489/919 516/513/919 515/512/919
f 494/491/920 517/514/920 516/513/920
f 495/492/921 518/515/921 517/514/921
f 496/493/922 519/516/922 518/515/922
f 497/494/923 520/518/923 519/516/923
f 497/494/924 498/495/924 521/517/924
f 498/495/925 499/496/925 522/519/925
f 499/496/926 500/497/926 523/520/926
f 500/497/927 501/498/927 524/521/927
f 501/498/928 502/499/928 525/522/928
f 502/499/929 503/500/929 526/523/929
f 503/500/930 504/501/930 527/524/930
f 504/501/931 505/503/931 528/525/931
f 506/502/932 529/529/932 528/525/932
