# Blender 5.0.1
# www.blender.org
mtllib ground_with_textures.mtl
o ground
v -12.297078 0.136555 12.297078
v -11.179162 0.214752 12.297078
v -10.061246 0.249837 12.297078
v -8.943330 0.225003 12.297078
v -7.825413 0.152145 12.297078
v -6.707497 0.066202 12.297078
v -5.589581 0.008523 12.297078
v -4.471665 0.000000 12.297078
v -3.353748 0.000316 12.297078
v -2.235832 0.021731 12.297078
v -1.117916 0.068627 12.297078
v 0.000000 0.135843 12.297078
v 1.117917 0.194031 12.297078
v 2.235833 0.213388 12.297078
v 3.353748 0.217815 12.297078
v 4.471665 0.233079 12.297078
v 5.589581 0.270519 12.297078
v 6.707498 0.322379 12.297078
v 7.825415 0.368706 12.297078
v 8.943330 0.405269 12.297078
v 10.061246 0.427783 12.297078
v 11.179163 0.434323 12.297078
v 12.297078 0.424395 12.297078
v -12.297078 0.139208 11.179162
v -11.179162 0.218307 11.179162
v -10.061246 0.253765 11.179162
v -8.943330 0.228669 11.179162
v -7.825413 0.154988 11.179162
v -6.707497 0.067893 11.179162
v -5.589581 0.009046 11.179162
v -4.471665 0.000000 11.179162
v -3.353748 0.009684 11.179162
v -2.235832 0.056524 11.179162
v -1.117916 0.130506 11.179162
v 0.000000 0.216348 11.179162
v 1.117917 0.249441 11.179162
v 2.235833 0.235505 11.179162
v 3.353748 0.211723 11.179162
v 4.471665 0.212943 11.179162
v 5.589581 0.253408 11.179162
v 6.707498 0.321660 11.179162
v 7.825415 0.389618 11.179162
v 8.943330 0.431792 11.179162
v 10.061246 0.455263 11.179162
v 11.179163 0.462077 11.179162
v 12.297078 0.451731 11.179162
v -12.297078 0.102715 10.061246
v -11.179162 0.168873 10.061246
v -10.061246 0.198968 10.061246
v -8.943330 0.177645 10.061246
v -7.825413 0.115775 10.061246
v -6.707497 0.045152 10.061246
v -5.589581 0.002924 10.061246
v -4.471665 0.000000 10.061246
v -3.353748 0.023730 10.061246
v -2.235832 0.089944 10.061246
v -1.117916 0.183915 10.061246
v 0.000000 0.269258 10.061246
v 1.117917 0.280682 10.061246
v 2.235833 0.240733 10.061246
v 3.353748 0.194288 10.061246
v 4.471665 0.182568 10.061246
v 5.589581 0.223856 10.061246
v 6.707498 0.304390 10.061246
v 7.825415 0.389037 10.061246
v 8.943330 0.442446 10.061246
v 10.061246 0.466296 10.061246
v 11.179163 0.473220 10.061246
v 12.297078 0.462707 10.061246
v -12.297078 0.047681 8.943330
v -11.179162 0.090890 8.943330
v -10.061246 0.111425 8.943330
v -8.943330 0.096831 8.943330
v -7.825413 0.055936 8.943330
v -6.707497 0.014258 8.943330
v -5.589581 0.004358 8.943330
v -4.471665 0.009378 8.943330
v -3.353748 0.038139 8.943330
v -2.235832 0.108628 8.943330
v -1.117916 0.211856 8.943330
v 0.000000 0.296256 8.943330
v 1.117917 0.300495 8.943330
v 2.235833 0.248814 8.943330
v 3.353748 0.188222 8.943330
v 4.471665 0.166569 8.943330
v 5.589581 0.204239 8.943330
v 6.707498 0.287014 8.943330
v 7.825415 0.377571 8.943330
v 8.943330 0.436323 8.943330
v 10.061246 0.460068 8.943330
v 11.179163 0.466930 8.943330
v 12.297078 0.456511 8.943330
v -12.297078 0.006349 7.825413
v -11.179162 0.023212 7.825413
v -10.061246 0.032651 7.825413
v -8.943330 0.025873 7.825413
v -7.825413 0.010273 7.825413
v -6.707497 0.026582 7.825413
v -5.589581 0.062670 7.825413
v -4.471665 0.081024 7.825413
v -3.353748 0.098690 7.825413
v -2.235832 0.138189 7.825413
v -1.117916 0.209101 7.825413
v 0.000000 0.296277 7.825413
v 1.117917 0.310384 7.825413
v 2.235833 0.263803 7.825413
v 3.353748 0.204144 7.825413
v 4.471665 0.178376 7.825413
v 5.589581 0.207647 7.825413
v 6.707498 0.279861 7.825413
v 7.825415 0.360264 7.825413
v 8.943330 0.411638 7.825413
v 10.061246 0.437038 7.825413
v 11.179163 0.443671 7.825413
v 12.297078 0.433601 7.825413
v -12.297078 0.000000 6.707497
v -11.179162 0.000011 6.707497
v -10.061246 0.000030 6.707497
v -8.943330 0.000000 6.707497
v -7.825413 0.025080 6.707497
v -6.707497 0.092080 6.707497
v -5.589581 0.160837 6.707497
v -4.471665 0.192566 6.707497
v -3.353748 0.189538 6.707497
v -2.235832 0.186254 6.707497
v -1.117916 0.202166 6.707497
v 0.000000 0.261586 6.707497
v 1.117917 0.297677 6.707497
v 2.235833 0.273292 6.707497
v 3.353748 0.228734 6.707497
v 4.471665 0.205363 6.707497
v 5.589581 0.223624 6.707497
v 6.707498 0.275512 6.707497
v 7.825415 0.332967 6.707497
v 8.943330 0.371791 6.707497
v 10.061246 0.398851 6.707497
v 11.179163 0.405158 6.707497
v 12.297078 0.395675 6.707497
v -12.297078 0.009413 5.589581
v -11.179162 0.012643 5.589581
v -10.061246 0.009579 5.589581
v -8.943330 0.005897 5.589581
v -7.825413 0.057751 5.589581
v -6.707497 0.156373 5.589581
v -5.589581 0.249534 5.589581
v -4.471665 0.291358 5.589581
v -3.353748 0.267261 5.589581
v -2.235832 0.220027 5.589581
v -1.117916 0.182742 5.589581
v 0.000000 0.192446 5.589581
v 1.117917 0.244914 5.589581
v 2.235833 0.251550 5.589581
v 3.353748 0.231015 5.589581
v 4.471665 0.215833 5.589581
v 5.589581 0.224242 5.589581
v 6.707498 0.252989 5.589581
v 7.825415 0.283559 5.589581
v 8.943330 0.322751 5.589581
v 10.061246 0.351225 5.589581
v 11.179163 0.356177 5.589581
v 12.297078 0.345549 5.589581
v -12.297078 0.036155 4.471665
v -11.179162 0.043153 4.471665
v -10.061246 0.036527 4.471665
v -8.943330 0.026285 4.471665
v -7.825413 0.076910 4.471665
v -6.707497 0.182626 4.471665
v -5.589581 0.284787 4.471665
v -4.471665 0.330322 4.471665
v -3.353748 0.297656 4.471665
v -2.235832 0.215870 4.471665
v -1.117916 0.140216 4.471665
v 0.000000 0.110181 4.471665
v 1.117917 0.146048 4.471665
v 2.235833 0.176721 4.471665
v 3.353748 0.181750 4.471665
v 4.471665 0.178438 4.471665
v 5.589581 0.181585 4.471665
v 6.707498 0.194620 4.471665
v 7.825415 0.241029 4.471665
v 8.943330 0.311078 4.471665
v 10.061246 0.354557 4.471665
v 11.179163 0.354193 4.471665
v 12.297078 0.318028 4.471665
v -12.297078 0.066012 3.353748
v -11.179162 0.067848 3.353748
v -10.061246 0.050797 3.353748
v -8.943330 0.030560 3.353748
v -7.825413 0.067380 3.353748
v -6.707497 0.156814 3.353748
v -5.589581 0.249201 3.353748
v -4.471665 0.290990 3.353748
v -3.353748 0.260996 3.353748
v -2.235832 0.173927 3.353748
v -1.117916 0.082161 3.353748
v 0.000000 0.037390 3.353748
v 1.117917 0.055308 3.353748
v 2.235833 0.076737 3.353748
v 3.353748 0.088911 3.353748
v 4.471665 0.097219 3.353748
v 5.589581 0.111614 3.353748
v 6.707498 0.152391 3.353748
v 7.825415 0.247706 3.353748
v 8.943330 0.348603 3.353748
v 10.061246 0.407022 3.353748
v 11.179163 0.401087 3.353748
v 12.297078 0.337315 3.353748
v -12.297078 0.065119 2.235832
v -11.179162 0.048432 2.235832
v -10.061246 0.018781 2.235832
v -8.943330 -0.006765 2.235832
v -7.825413 0.008207 2.235832
v -6.707497 0.081624 2.235832
v -5.589581 0.160337 2.235832
v -4.471665 0.192004 2.235832
v -3.353748 0.169232 2.235832
v -2.235832 0.104583 2.235832
v -1.117916 0.034356 2.235832
v 0.000000 0.000728 2.235832
v 1.117917 0.004924 2.235832
v 2.235833 0.015990 2.235832
v 3.353748 0.029329 2.235832
v 4.471665 0.047021 2.235832
v 5.589581 0.073397 2.235832
v 6.707498 0.141216 2.235832
v 7.825415 0.264010 2.235832
v 8.943330 0.387226 2.235832
v 10.061246 0.458299 2.235832
v 11.179163 0.447716 2.235832
v 12.297078 0.362143 2.235832
v -12.297078 0.029975 1.117916
v -11.179162 -0.005510 1.117916
v -10.061246 -0.044867 1.117916
v -8.943330 -0.068021 1.117916
v -7.825413 -0.063142 1.117916
v -6.707497 -0.010586 1.117916
v -5.589581 0.057128 1.117916
v -4.471665 0.080284 1.117916
v -3.353748 0.067245 1.117916
v -2.235832 0.032613 1.117916
v -1.117916 0.003318 1.117916
v 0.000000 -0.000000 1.117916
v 1.117917 -0.000000 1.117916
v 2.235833 0.001367 1.117916
v 3.353748 0.010161 1.117916
v 4.471665 0.025135 1.117916
v 5.589581 0.044868 1.117916
v 6.707498 0.119306 1.117916
v 7.825415 0.250614 1.117916
v 8.943330 0.383016 1.117916
v 10.061246 0.458936 1.117916
v 11.179163 0.445731 1.117916
v 12.297078 0.350630 1.117916
v -12.297078 -0.017197 -0.000000
v -11.179162 -0.066224 -0.000000
v -10.061246 -0.109662 -0.000000
v -8.943330 -0.126240 -0.000000
v -7.825413 -0.107104 -0.000000
v -6.707497 -0.060017 -0.000000
v -5.589581 -0.008496 -0.000000
v -4.471665 0.008804 0.000000
v -3.353748 0.005387 0.000000
v -2.235832 0.000045 0.000000
v -1.117916 0.000000 0.000000
v 0.000000 0.000000 0.000000
v 1.117917 0.000000 0.000000
v 2.235833 0.000000 0.000000
v 3.353748 0.000836 0.000000
v 4.471665 0.006975 0.000000
v 5.589581 0.017617 0.000000
v 6.707498 0.077241 0.000000
v 7.825415 0.194511 0.000000
v 8.943330 0.318341 0.000000
v 10.061246 0.391872 0.000000
v 11.179163 0.380607 0.000000
v 12.297078 0.290358 0.000000
v -12.297078 -0.050411 -1.117917
v -11.179162 -0.103654 -1.117917
v -10.061246 -0.144359 -1.117917
v -8.943330 -0.152132 -1.117917
v -7.825413 -0.120739 -1.117917
v -6.707497 -0.062341 -1.117917
v -5.589581 -0.013474 -1.117917
v -4.471665 0.000000 -1.117917
v -3.353748 0.000000 -1.117917
v -2.235832 0.000000 -1.117917
v -1.117916 0.000000 -1.117917
v 0.000000 0.000000 -1.117917
v 1.117917 0.000000 -1.117917
v 2.235833 0.000000 -1.117917
v 3.353748 0.000000 -1.117917
v 4.471665 0.000020 -1.117917
v 5.589581 0.002834 -1.117917
v 6.707498 0.038670 -1.117917
v 7.825415 0.135864 -1.117917
v 8.943330 0.245129 -1.117917
v 10.061246 0.313118 -1.117917
v 11.179163 0.308532 -1.117917
v 12.297078 0.235994 -1.117917
v -12.297078 -0.053063 -2.235833
v -11.179162 -0.100075 -2.235833
v -10.061246 -0.132014 -2.235833
v -8.943330 -0.131233 -2.235833
v -7.825413 -0.094718 -2.235833
v -6.707497 -0.043700 -2.235833
v -5.589581 -0.006545 -2.235833
v -4.471665 0.000000 -2.235833
v -3.353748 0.000000 -2.235833
v -2.235832 0.000000 -2.235833
v -1.117916 0.000000 -2.235833
v 0.000000 0.000000 -2.235833
v 1.117917 0.000000 -2.235833
v 2.235833 0.000000 -2.235833
v 3.353748 0.000000 -2.235833
v 4.471665 0.003859 -2.235833
v 5.589581 0.025806 -2.235833
v 6.707498 0.061199 -2.235833
v 7.825415 0.130732 -2.235833
v 8.943330 0.215649 -2.235833
v 10.061246 0.273053 -2.235833
v 11.179163 0.277093 -2.235833
v 12.297078 0.230698 -2.235833
v -12.297078 -0.020467 -3.353748
v -11.179162 -0.013701 -3.353748
v -10.061246 -0.005079 -3.353748
v -8.943330 -0.013315 -3.353748
v -7.825413 -0.027988 -3.353748
v -6.707497 -0.015372 -3.353748
v -5.589581 0.005831 -3.353748
v -4.471665 0.009805 -3.353748
v -3.353748 0.010110 -3.353748
v -2.235832 0.006695 -3.353748
v -1.117916 0.001914 -3.353748
v 0.000000 0.000000 -3.353748
v 1.117917 0.000000 -3.353748
v 2.235833 0.000000 -3.353748
v 3.353748 0.005054 -3.353748
v 4.471665 0.035369 -3.353748
v 5.589581 0.086007 -3.353748
v 6.707498 0.147479 -3.353748
v 7.825415 0.209839 -3.353748
v 8.943330 0.272744 -3.353748
v 10.061246 0.320356 -3.353748
v 11.179163 0.333784 -3.353748
v 12.297078 0.314164 -3.353748
v -12.297078 0.105759 -4.471665
v -11.179162 0.220597 -4.471665
v -10.061246 0.282454 -4.471665
v -8.943330 0.255166 -4.471665
v -7.825413 0.165065 -4.471665
v -6.707497 0.071371 -4.471665
v -5.589581 0.045759 -4.471665
v -4.471665 0.056634 -4.471665
v -3.353748 0.057443 -4.471665
v -2.235832 0.047923 -4.471665
v -1.117916 0.031210 -4.471665
v 0.000000 0.013199 -4.471665
v 1.117917 0.001330 -4.471665
v 2.235833 0.002145 -4.471665
v 3.353748 0.032256 -4.471665
v 4.471665 0.092027 -4.471665
v 5.589581 0.171822 -4.471665
v 6.707498 0.260411 -4.471665
v 7.825415 0.346165 -4.471665
v 8.943330 0.418276 -4.471665
v 10.061246 0.467877 -4.471665
v 11.179163 0.488957 -4.471665
v 12.297078 0.478981 -4.471665
v -12.297078 0.271818 -5.589581
v -11.179162 0.478963 -5.589581
v -10.061246 0.589156 -5.589581
v -8.943330 0.560380 -5.589581
v -7.825413 0.415167 -5.589581
v -6.707497 0.236076 -5.589581
v -5.589581 0.129120 -5.589581
v -4.471665 0.134627 -5.589581
v -3.353748 0.135980 -5.589581
v -2.235832 0.119842 -5.589581
v -1.117916 0.090124 -5.589581
v 0.000000 0.054238 -5.589581
v 1.117917 0.021683 -5.589581
v 2.235833 0.020639 -5.589581
v 3.353748 0.075894 -5.589581
v 4.471665 0.164111 -5.589581
v 5.589581 0.271852 -5.589581
v 6.707498 0.386292 -5.589581
v 7.825415 0.494292 -5.589581
v 8.943330 0.583724 -5.589581
v 10.061246 0.644684 -5.589581
v 11.179163 0.670476 -5.589581
v 12.297078 0.658278 -5.589581
v -12.297078 0.396195 -6.707498
v -11.179162 0.653470 -6.707498
v -10.061246 0.800532 -6.707498
v -8.943330 0.783494 -6.707498
v -7.825413 0.619645 -6.707498
v -6.707497 0.400313 -6.707498
v -5.589581 0.245372 -6.707498
v -4.471665 0.230841 -6.707498
v -3.353748 0.232734 -6.707498
v -2.235832 0.210044 -6.707498
v -1.117916 0.167405 -6.707498
v 0.000000 0.113640 -6.707498
v 1.117917 0.063646 -6.707498
v 2.235833 0.063579 -6.707498
v 3.353748 0.127313 -6.707498
v 4.471665 0.240840 -6.707498
v 5.589581 0.373673 -6.707498
v 6.707498 0.511232 -6.707498
v 7.825415 0.639069 -6.707498
v 8.943330 0.743917 -6.707498
v 10.061246 0.814973 -6.707498
v 11.179163 0.844948 -6.707498
v 12.297078 0.830777 -6.707498
v -12.297078 0.408955 -7.825415
v -11.179162 0.675563 -7.825415
v -10.061246 0.843378 -7.825415
v -8.943330 0.845376 -7.825415
v -7.825413 0.697269 -7.825415
v -6.707497 0.489135 -7.825415
v -5.589581 0.340486 -7.825415
v -4.471665 0.329349 -7.825415
v -3.353748 0.331725 -7.825415
v -2.235832 0.303154 -7.825415
v -1.117916 0.248888 -7.825415
v 0.000000 0.178962 -7.825415
v 1.117917 0.119451 -7.825415
v 2.235833 0.118572 -7.825415
v 3.353748 0.183998 -7.825415
v 4.471665 0.311548 -7.825415
v 5.589581 0.465118 -7.825415
v 6.707498 0.621726 -7.825415
v 7.825415 0.765875 -7.825415
v 8.943330 0.883378 -7.825415
v 10.061246 0.962714 -7.825415
v 11.179163 0.996120 -7.825415
v 12.297078 0.980332 -7.825415
v -12.297078 0.302777 -8.943330
v -11.179162 0.536900 -8.943330
v -10.061246 0.700516 -8.943330
v -8.943330 0.726946 -8.943330
v -7.825413 0.627657 -8.943330
v -6.707497 0.481804 -8.943330
v -5.589581 0.394538 -8.943330
v -4.471665 0.413857 -8.943330
v -3.353748 0.416615 -8.943330
v -2.235832 0.383395 -8.943330
v -1.117916 0.319922 -8.943330
v 0.000000 0.237161 -8.943330
v 1.117917 0.172833 -8.943330
v 2.235833 0.170042 -8.943330
v 3.353748 0.235225 -8.943330
v 4.471665 0.366814 -8.943330
v 5.589581 0.535503 -8.943330
v 6.707498 0.705976 -8.943330
v 7.825415 0.861979 -8.943330
v 8.943330 0.988671 -8.943330
v 10.061246 1.074015 -8.943330
v 11.179163 1.109909 -8.943330
v 12.297078 1.092948 -8.943330
v -12.297078 0.139245 -10.061246
v -11.179162 0.305566 -10.061246
v -10.061246 0.443403 -10.061246
v -8.943330 0.495162 -10.061246
v -7.825413 0.466436 -10.061246
v -6.707497 0.417846 -10.061246
v -5.589581 0.428709 -10.061246
v -4.471665 0.470396 -10.061246
v -3.353748 0.473397 -10.061246
v -2.235832 0.437213 -10.061246
v -1.117916 0.367864 -10.061246
v 0.000000 0.276970 -10.061246
v 1.117917 0.209907 -10.061246
v 2.235833 0.204867 -10.061246
v 3.353748 0.268707 -10.061246
v 4.471665 0.400289 -10.061246
v 5.589581 0.576731 -10.061246
v 6.707498 0.755062 -10.061246
v 7.825415 0.917779 -10.061246
v 8.943330 1.049671 -10.061246
v 10.061246 1.138414 -10.061246
v 11.179163 1.175716 -10.061246
v 12.297078 1.158091 -10.061246
v -12.297078 0.017318 -11.179163
v -11.179162 0.098192 -11.179163
v -10.061246 0.196981 -11.179163
v -8.943330 0.269481 -11.179163
v -7.825413 0.315201 -11.179163
v -6.707497 0.371796 -11.179163
v -5.589581 0.446796 -11.179163
v -4.471665 0.489623 -11.179163
v -3.353748 0.492705 -11.179163
v -2.235832 0.455535 -11.179163
v -1.117916 0.384232 -11.179163
v 0.000000 0.290675 -11.179163
v 1.117917 0.221630 -11.179163
v 2.235833 0.214569 -11.179163
v 3.353748 0.276587 -11.179163
v 4.471665 0.406751 -11.179163
v 5.589581 0.584094 -11.179163
v 6.707498 0.763810 -11.179163
v 7.825415 0.927710 -11.179163
v 8.943330 1.060518 -11.179163
v 10.061246 1.149860 -11.179163
v 11.179163 1.187409 -11.179163
v 12.297078 1.169668 -11.179163
v -12.297078 0.000040 -12.297078
v -11.179162 0.021827 -12.297078
v -10.061246 0.080256 -12.297078
v -8.943330 0.164298 -12.297078
v -7.825413 0.260927 -12.297078
v -6.707497 0.353582 -12.297078
v -5.589581 0.426796 -12.297078
v -4.471665 0.468362 -12.297078
v -3.353748 0.471354 -12.297078
v -2.235832 0.435275 -12.297078
v -1.117916 0.366135 -12.297078
v 0.000000 0.275459 -12.297078
v 1.117917 0.205306 -12.297078
v 2.235833 0.196737 -12.297078
v 3.353748 0.256755 -12.297078
v 4.471665 0.384391 -12.297078
v 5.589581 0.556754 -12.297078
v 6.707498 0.731300 -12.297078
v 7.825415 0.890783 -12.297078
v 8.943330 1.020170 -12.297078
v 10.061246 1.107277 -12.297078
v 11.179163 1.143900 -12.297078
v 12.297078 1.126595 -12.297078
vn -0.0698 0.9976 0.0024
vn -0.0314 0.9995 0.0032
vn 0.0223 0.9997 0.0034
vn 0.0224 0.9997 0.0035
vn 0.0654 0.9979 0.0029
vn 0.0658 0.9978 0.0033
vn 0.0772 0.9970 0.0019
vn 0.0772 0.9970 0.0020
vn 0.0520 0.9986 0.0010
vn 0.0526 0.9986 0.0015
vn 0.0079 1.0000 0.0002
vn 0.0066 1.0000 -0.0013
vn 0.0081 1.0000 -0.0025
vn -0.0003 1.0000 -0.0000
vn -0.0192 0.9998 0.0084
vn -0.0419 0.9986 0.0311
vn -0.0599 0.9967 0.0552
vn -0.0608 0.9966 0.0551
vn -0.0651 0.9964 0.0551
vn -0.0518 0.9961 0.0717
vn -0.0173 0.9986 0.0495
vn -0.0206 0.9986 0.0480
vn -0.0279 0.9984 0.0495
vn 0.0169 0.9997 0.0198
vn 0.0213 0.9996 0.0198
vn -0.0011 1.0000 -0.0054
vn -0.0011 0.9999 -0.0105
vn -0.0348 0.9993 -0.0166
vn -0.0349 0.9993 -0.0164
vn -0.0366 0.9990 -0.0268
vn -0.0609 0.9980 -0.0153
vn -0.0609 0.9980 -0.0154
vn -0.0414 0.9991 -0.0006
vn -0.0439 0.9990 -0.0006
vn -0.0352 0.9992 0.0212
vn -0.0327 0.9993 0.0187
vn -0.0201 0.9995 0.0237
vn -0.0058 0.9997 0.0246
vn 0.0093 0.9996 0.0248
vn -0.0590 0.9977 -0.0326
vn -0.0293 0.9985 -0.0465
vn -0.0269 0.9987 -0.0442
vn 0.0207 0.9987 -0.0473
vn 0.0224 0.9985 -0.0489
vn 0.0657 0.9968 -0.0455
vn 0.0776 0.9964 -0.0349
vn 0.0526 0.9984 -0.0203
vn 0.0540 0.9983 -0.0203
vn 0.0615 0.9979 -0.0203
vn 0.0062 1.0000 -0.0040
vn -0.0088 1.0000 0.0012
vn -0.0087 1.0000 -0.0000
vn -0.0088 0.9999 0.0072
vn -0.0419 0.9990 0.0126
vn -0.0660 0.9974 0.0298
vn -0.0651 0.9974 0.0297
vn -0.0601 0.9978 0.0298
vn -0.0763 0.9960 0.0474
vn -0.0762 0.9960 0.0474
vn -0.0827 0.9954 0.0477
vn -0.0296 0.9984 0.0473
vn -0.0297 0.9984 0.0491
vn 0.0357 0.9990 0.0279
vn 0.0213 0.9998 0.0047
vn 0.0169 0.9998 0.0047
vn -0.0011 0.9999 -0.0156
vn -0.0353 0.9993 -0.0157
vn -0.0718 0.9971 -0.0264
vn -0.0794 0.9966 -0.0204
vn -0.0727 0.9972 -0.0164
vn -0.0755 0.9970 -0.0154
vn -0.0755 0.9970 -0.0147
vn -0.0377 0.9993 -0.0005
vn -0.0212 0.9997 0.0097
vn -0.0210 0.9997 0.0095
vn -0.0061 0.9999 0.0099
vn 0.0094 0.9999 0.0100
vn -0.0386 0.9980 -0.0491
vn -0.0387 0.9980 -0.0507
vn -0.0387 0.9975 -0.0588
vn -0.0226 0.9970 -0.0738
vn -0.0247 0.9968 -0.0757
vn -0.0108 0.9979 -0.0633
vn 0.0160 0.9970 -0.0751
vn 0.0168 0.9969 -0.0765
vn 0.0190 0.9968 -0.0781
vn 0.0551 0.9959 -0.0720
vn 0.0630 0.9966 -0.0533
vn 0.0377 0.9989 -0.0276
vn 0.0374 0.9986 -0.0372
vn 0.0376 0.9989 -0.0276
vn -0.0022 1.0000 0.0065
vn -0.0009 1.0000 0.0048
vn -0.0246 0.9996 0.0097
vn -0.0235 0.9997 0.0106
vn -0.0212 0.9997 0.0120
vn -0.0610 0.9980 0.0148
vn -0.0591 0.9982 0.0129
vn -0.0878 0.9959 0.0208
vn -0.0864 0.9961 0.0189
vn -0.0838 0.9963 0.0167
vn -0.0757 0.9968 0.0245
vn -0.0761 0.9968 0.0249
vn -0.0064 0.9998 0.0196
vn -0.0070 0.9998 0.0209
vn -0.0102 0.9996 0.0274
vn 0.0462 0.9988 0.0177
vn 0.0517 0.9985 0.0173
vn 0.0463 0.9988 0.0140
vn 0.0541 0.9985 0.0072
vn 0.0541 0.9985 0.0082
vn 0.0149 0.9998 -0.0099
vn 0.0105 0.9999 -0.0054
vn -0.0353 0.9993 -0.0159
vn -0.0337 0.9993 -0.0143
vn -0.0716 0.9973 -0.0164
vn -0.0738 0.9971 -0.0175
vn -0.0769 0.9970 -0.0117
vn -0.0501 0.9987 -0.0079
vn -0.0525 0.9986 -0.0102
vn -0.0213 0.9998 -0.0055
vn -0.0212 0.9998 -0.0055
vn -0.0062 1.0000 -0.0056
vn -0.0061 1.0000 -0.0056
vn 0.0094 0.9999 -0.0056
vn -0.0151 0.9992 -0.0369
vn -0.0134 0.9978 -0.0653
vn -0.0084 0.9981 -0.0604
vn 0.0085 0.9978 -0.0652
vn 0.0095 0.9977 -0.0668
vn 0.0365 0.9974 -0.0619
vn 0.0365 0.9973 -0.0633
vn 0.0365 0.9978 -0.0548
vn 0.0372 0.9985 -0.0408
vn 0.0371 0.9989 -0.0294
vn 0.0090 0.9999 0.0096
vn 0.0089 0.9999 0.0110
vn 0.0090 1.0000 0.0027
vn -0.0045 0.9986 0.0521
vn -0.0207 0.9980 0.0590
vn -0.0229 0.9981 0.0566
vn -0.0177 0.9978 0.0638
vn -0.0628 0.9966 0.0540
vn -0.0919 0.9954 0.0260
vn -0.0919 0.9954 0.0263
vn -0.0765 0.9971 -0.0012
vn -0.0777 0.9970 -0.0025
vn -0.0082 1.0000 0.0044
vn -0.0038 1.0000 -0.0000
vn 0.0416 0.9991 0.0088
vn 0.0537 0.9985 0.0138
vn 0.0482 0.9986 0.0198
vn 0.0212 0.9997 0.0124
vn 0.0211 0.9997 0.0121
vn 0.0219 0.9995 0.0232
vn -0.0299 0.9995 0.0068
vn -0.0337 0.9994 0.0106
vn -0.0691 0.9976 -0.0017
vn -0.0674 0.9977 0.0012
vn -0.0645 0.9979 0.0030
vn -0.0762 0.9970 -0.0109
vn -0.0492 0.9986 -0.0188
vn -0.0459 0.9988 -0.0155
vn -0.0220 0.9995 -0.0213
vn -0.0219 0.9995 -0.0213
vn -0.0234 0.9991 -0.0349
vn -0.0060 0.9998 -0.0207
vn -0.0059 0.9998 -0.0207
vn -0.0057 0.9994 -0.0343
vn 0.0092 0.9997 -0.0206
vn 0.0091 0.9997 -0.0207
vn 0.0093 0.9997 -0.0208
vn -0.0000 1.0000 -0.0057
vn -0.0000 1.0000 0.0014
vn -0.0042 0.9997 -0.0250
vn -0.0000 0.9998 -0.0207
vn 0.0030 0.9997 -0.0262
vn 0.0061 0.9996 -0.0292
vn -0.0224 0.9995 -0.0231
vn -0.0146 0.9998 0.0128
vn -0.0146 0.9998 0.0132
vn -0.0146 0.9998 0.0114
vn -0.0322 0.9978 0.0575
vn -0.0322 0.9978 0.0585
vn -0.0322 0.9981 0.0530
vn -0.0164 0.9960 0.0875
vn -0.0157 0.9949 0.0993
vn -0.0175 0.9949 0.0992
vn -0.0265 0.9947 0.0992
vn -0.0352 0.9961 0.0809
vn -0.0632 0.9971 0.0429
vn -0.0531 0.9986 -0.0062
vn -0.0323 0.9990 -0.0310
vn 0.0416 0.9991 -0.0114
vn 0.0398 0.9992 0.0085
vn 0.0220 0.9995 0.0231
vn 0.0209 0.9995 0.0220
vn -0.0262 0.9994 0.0241
vn -0.0645 0.9978 0.0143
vn -0.0488 0.9988 -0.0039
vn -0.0513 0.9987 -0.0039
vn -0.0347 0.9991 -0.0244
vn -0.0235 0.9991 -0.0348
vn -0.0234 0.9987 -0.0443
vn -0.0049 0.9991 -0.0432
vn 0.0088 0.9994 -0.0342
vn 0.0087 0.9994 -0.0342
vn -0.0000 1.0000 0.0084
vn -0.0001 0.9999 0.0104
vn 0.0007 0.9999 0.0103
vn -0.0001 0.9999 0.0113
vn 0.0023 1.0000 0.0062
vn 0.0017 1.0000 0.0069
vn -0.0224 0.9997 0.0053
vn -0.0598 0.9978 0.0292
vn -0.0527 0.9985 0.0171
vn -0.0482 0.9984 0.0293
vn -0.0613 0.9965 0.0573
vn -0.0328 0.9960 0.0835
vn -0.0283 0.9965 0.0791
vn 0.0215 0.9959 0.0880
vn 0.0421 0.9967 0.0693
vn 0.0333 0.9990 0.0302
vn -0.0089 0.9998 -0.0171
vn -0.0087 0.9998 -0.0174
vn -0.0134 0.9998 -0.0175
vn -0.0477 0.9970 -0.0616
vn -0.0468 0.9970 -0.0617
vn -0.0521 0.9967 -0.0616
vn 0.0218 0.9987 -0.0471
vn 0.0398 0.9990 -0.0194
vn 0.0176 0.9998 0.0045
vn 0.0172 0.9998 0.0057
vn 0.0160 0.9999 0.0020
vn -0.0162 0.9998 0.0101
vn -0.0163 0.9998 0.0094
vn -0.0162 0.9998 0.0136
vn -0.0257 0.9997 0.0006
vn -0.0273 0.9994 -0.0201
vn -0.0348 0.9984 -0.0440
vn -0.0348 0.9984 -0.0439
vn -0.0350 0.9984 -0.0441
vn -0.0248 0.9988 -0.0432
vn -0.0050 0.9991 -0.0432
vn -0.0044 0.9991 -0.0426
vn 0.0090 0.9990 -0.0443
vn 0.0085 0.9990 -0.0438
vn -0.0029 0.9997 0.0239
vn 0.0059 0.9996 0.0273
vn 0.0076 0.9998 0.0200
vn 0.0062 0.9998 0.0212
vn 0.0036 0.9997 0.0241
vn -0.0458 0.9988 0.0177
vn -0.0462 0.9985 0.0277
vn -0.0922 0.9955 0.0198
vn -0.0910 0.9956 0.0202
vn -0.0879 0.9960 0.0171
vn -0.0870 0.9958 0.0274
vn -0.0852 0.9960 0.0285
vn -0.0390 0.9987 0.0332
vn -0.0374 0.9988 0.0315
vn 0.0254 0.9992 0.0310
vn 0.0292 0.9990 0.0348
vn 0.0729 0.9970 0.0271
vn 0.0333 0.9994 -0.0037
vn 0.0378 0.9993 -0.0037
vn -0.0087 0.9992 -0.0380
vn -0.0320 0.9968 -0.0734
vn -0.0227 0.9967 -0.0780
vn -0.0321 0.9963 -0.0798
vn -0.0273 0.9957 -0.0881
vn -0.0273 0.9957 -0.0887
vn 0.0183 0.9976 -0.0668
vn 0.0136 0.9989 -0.0440
vn -0.0025 0.9994 -0.0350
vn -0.0052 0.9994 -0.0354
vn 0.0001 0.9994 -0.0334
vn -0.0110 0.9992 -0.0380
vn -0.0117 0.9992 -0.0379
vn -0.0414 0.9978 -0.0521
vn -0.0625 0.9973 -0.0379
vn -0.0383 0.9992 -0.0103
vn -0.0389 0.9992 -0.0104
vn -0.0356 0.9993 -0.0103
vn -0.0021 1.0000 0.0006
vn -0.0044 1.0000 0.0030
vn 0.0095 1.0000 -0.0018
vn -0.0031 0.9997 0.0233
vn -0.0039 0.9997 0.0244
vn -0.0064 0.9996 0.0272
vn 0.0106 0.9998 0.0174
vn 0.0084 0.9998 0.0188
vn 0.0152 0.9996 0.0221
vn 0.0157 0.9999 0.0072
vn 0.0136 0.9999 0.0083
vn -0.0329 0.9995 0.0038
vn -0.0797 0.9968 -0.0085
vn -0.0847 0.9960 -0.0285
vn -0.0867 0.9959 -0.0274
vn -0.0925 0.9954 -0.0230
vn -0.0390 0.9987 -0.0335
vn -0.0373 0.9988 -0.0318
vn 0.0280 0.9990 -0.0340
vn 0.0292 0.9990 -0.0351
vn 0.0752 0.9965 -0.0353
vn 0.0753 0.9965 -0.0350
vn 0.0729 0.9968 -0.0327
vn 0.0675 0.9970 -0.0378
vn 0.0689 0.9969 -0.0374
vn 0.0268 0.9983 -0.0518
vn -0.0160 0.9978 -0.0650
vn -0.0232 0.9961 -0.0850
vn -0.0302 0.9963 -0.0810
vn -0.0077 0.9963 -0.0859
vn -0.0077 0.9961 -0.0883
vn -0.0108 0.9960 -0.0891
vn -0.0069 0.9965 -0.0829
vn -0.0074 0.9965 -0.0828
vn -0.0128 0.9973 -0.0725
vn -0.0364 0.9974 -0.0624
vn -0.0849 0.9957 -0.0376
vn -0.0625 0.9980 0.0060
vn -0.0388 0.9987 0.0335
vn 0.0028 0.9990 0.0444
vn 0.0018 0.9990 0.0455
vn 0.0081 0.9990 0.0428
vn 0.0569 0.9975 0.0418
vn -0.0016 1.0000 -0.0008
vn 0.0152 0.9997 -0.0174
vn 0.0150 0.9997 -0.0174
vn 0.0151 0.9997 -0.0174
vn 0.0205 0.9993 -0.0310
vn 0.0196 0.9993 -0.0313
vn 0.0253 0.9993 -0.0286
vn -0.0134 0.9994 -0.0334
vn -0.0654 0.9965 -0.0527
vn -0.0714 0.9952 -0.0669
vn -0.0701 0.9953 -0.0669
vn -0.0783 0.9947 -0.0668
vn -0.0327 0.9960 -0.0837
vn -0.0282 0.9965 -0.0792
vn 0.0235 0.9961 -0.0850
vn 0.0267 0.9957 -0.0882
vn 0.0774 0.9937 -0.0816
vn 0.0817 0.9948 -0.0603
vn 0.0817 0.9947 -0.0617
vn 0.0818 0.9952 -0.0531
vn 0.0400 0.9983 -0.0427
vn -0.0038 0.9995 -0.0328
vn -0.0133 0.9985 -0.0528
vn -0.0160 0.9988 -0.0467
vn -0.0151 0.9989 -0.0450
vn -0.0114 0.9985 -0.0537
vn -0.0113 0.9985 -0.0538
vn -0.0122 0.9989 -0.0460
vn -0.0116 0.9987 -0.0490
vn -0.0236 0.9987 -0.0448
vn -0.0605 0.9976 -0.0341
vn -0.0849 0.9963 -0.0100
vn -0.0899 0.9958 0.0145
vn -0.0522 0.9980 0.0362
vn -0.0522 0.9980 0.0345
vn -0.0522 0.9976 0.0451
vn 0.0074 0.9990 0.0437
vn 0.0095 0.9989 0.0458
vn 0.0763 0.9962 0.0416
vn 0.0149 0.9994 -0.0314
vn 0.0308 0.9981 -0.0525
vn 0.0384 0.9976 -0.0571
vn 0.0309 0.9984 -0.0483
vn 0.0217 0.9982 -0.0558
vn 0.0221 0.9982 -0.0553
vn 0.0228 0.9981 -0.0568
vn -0.0089 0.9982 -0.0592
vn -0.0044 0.9985 -0.0547
vn -0.0469 0.9969 -0.0636
vn -0.0649 0.9938 -0.0905
vn -0.0651 0.9941 -0.0869
vn -0.0646 0.9945 -0.0821
vn -0.0244 0.9951 -0.0957
vn -0.0244 0.9951 -0.0956
vn -0.0206 0.9956 -0.0919
vn 0.0160 0.9953 -0.0951
vn 0.0159 0.9953 -0.0951
vn 0.0203 0.9948 -0.0994
vn 0.0575 0.9942 -0.0907
vn 0.0626 0.9960 -0.0641
vn 0.0302 0.9991 -0.0284
vn 0.0291 0.9992 -0.0285
vn 0.0273 0.9991 -0.0315
vn -0.0003 1.0000 -0.0019
vn -0.0007 1.0000 0.0004
vn 0.0019 1.0000 -0.0023
vn -0.0068 0.9999 -0.0117
vn -0.0056 0.9999 -0.0087
vn -0.0099 0.9998 -0.0151
vn -0.0065 0.9998 -0.0164
vn -0.0039 1.0000 -0.0003
vn -0.0151 0.9997 -0.0185
vn -0.0118 0.9997 -0.0214
vn -0.0219 0.9995 -0.0235
vn -0.0224 0.9995 -0.0215
vn -0.0635 0.9977 -0.0225
vn -0.0664 0.9975 -0.0255
vn -0.1129 0.9935 -0.0157
vn -0.1112 0.9937 -0.0171
vn -0.1166 0.9930 -0.0195
vn -0.1154 0.9933 -0.0060
vn -0.1136 0.9935 -0.0078
vn -0.0656 0.9978 -0.0016
vn -0.0678 0.9977 -0.0038
vn 0.0106 0.9999 -0.0006
vn 0.0095 1.0000 0.0006
vn 0.0806 0.9967 -0.0060
vn 0.0805 0.9967 -0.0060
vn 0.0763 0.9971 -0.0018
vn 0.0317 0.9986 -0.0421
vn 0.0382 0.9977 -0.0554
vn 0.0364 0.9978 -0.0561
vn 0.0155 0.9984 -0.0552
vn 0.0177 0.9983 -0.0549
vn -0.0171 0.9985 -0.0520
vn -0.0445 0.9981 -0.0417
vn -0.0437 0.9982 -0.0403
vn -0.0421 0.9983 -0.0393
vn -0.0466 0.9979 -0.0441
vn -0.0460 0.9980 -0.0441
vn -0.0181 0.9980 -0.0612
vn -0.0154 0.9982 -0.0586
vn 0.0074 0.9982 -0.0595
vn 0.0073 0.9982 -0.0595
vn 0.0116 0.9979 -0.0638
vn 0.0309 0.9979 -0.0565
vn 0.0309 0.9980 -0.0552
vn 0.0309 0.9975 -0.0630
vn 0.0262 0.9992 -0.0291
vn 0.0262 0.9993 -0.0279
vn 0.0016 1.0000 0.0002
vn 0.0008 1.0000 -0.0014
vn -0.0000 1.0000 -0.0000
vn -0.0005 1.0000 -0.0005
vn -0.0010 1.0000 -0.0001
vn -0.0076 0.9999 -0.0111
vn -0.0146 0.9996 -0.0222
vn -0.0532 0.9983 -0.0243
vn -0.0531 0.9983 -0.0257
vn -0.0531 0.9980 -0.0330
vn -0.1043 0.9938 -0.0374
vn -0.1123 0.9921 -0.0557
vn -0.1137 0.9921 -0.0536
vn -0.1156 0.9920 -0.0498
vn -0.0666 0.9961 -0.0587
vn -0.0666 0.9961 -0.0585
vn -0.0629 0.9957 -0.0683
vn 0.0109 0.9982 -0.0590
vn 0.0110 0.9982 -0.0590
vn 0.0118 0.9981 -0.0599
vn 0.0825 0.9950 -0.0558
vn 0.0846 0.9947 -0.0579
vn 0.0462 0.9984 -0.0313
vn 0.0457 0.9985 -0.0315
vn 0.0438 0.9986 -0.0297
vn 0.0376 0.9988 -0.0322
vn 0.0374 0.9988 -0.0321
vn 0.0109 0.9996 -0.0271
vn 0.0148 0.9994 -0.0310
vn -0.0281 0.9993 -0.0231
vn -0.0522 0.9986 -0.0122
vn -0.0453 0.9990 -0.0035
vn -0.0449 0.9990 -0.0033
vn -0.0423 0.9991 -0.0022
vn -0.0138 0.9999 -0.0062
vn -0.0121 0.9999 -0.0045
vn 0.0009 1.0000 -0.0067
vn 0.0015 1.0000 -0.0063
vn 0.0031 1.0000 -0.0079
vn 0.0025 1.0000 -0.0041
vn 0.0026 1.0000 0.0003
vn -0.0001 1.0000 -0.0001
vn -0.0024 1.0000 -0.0011
vn -0.0000 1.0000 -0.0004
vn -0.0060 0.9999 -0.0097
vn -0.0320 0.9994 -0.0132
vn -0.0866 0.9957 -0.0344
vn -0.0981 0.9938 -0.0521
vn -0.0971 0.9939 -0.0521
vn -0.1032 0.9933 -0.0520
vn -0.0630 0.9957 -0.0677
vn -0.0606 0.9960 -0.0652
vn 0.0068 0.9976 -0.0684
vn 0.0071 0.9977 -0.0673
vn 0.0803 0.9947 -0.0641
vn 0.0420 0.9991 -0.0024
vn 0.0325 0.9994 0.0071
vn 0.0286 0.9996 0.0032
vn 0.0031 0.9999 0.0149
vn -0.0007 0.9999 0.0110
vn -0.0304 0.9993 0.0210
vn -0.0281 0.9994 0.0187
vn -0.0504 0.9985 0.0209
vn -0.0489 0.9986 0.0199
vn -0.0522 0.9984 0.0232
vn -0.0437 0.9989 0.0167
vn -0.0439 0.9989 0.0168
vn -0.0101 0.9999 0.0035
vn -0.0090 1.0000 0.0031
vn -0.0121 0.9999 0.0062
vn 0.0004 1.0000 0.0093
vn 0.0007 1.0000 0.0084
vn 0.0028 1.0000 0.0003
vn 0.0002 1.0000 0.0006
vn -0.0019 1.0000 0.0021
vn -0.0025 1.0000 0.0034
vn -0.0032 1.0000 0.0037
vn -0.0318 0.9993 0.0203
vn -0.0313 0.9992 0.0239
vn -0.0213 0.9996 0.0204
vn -0.0866 0.9960 0.0201
vn -0.0689 0.9976 -0.0046
vn -0.0757 0.9971 -0.0046
vn -0.0560 0.9980 -0.0310
vn -0.0560 0.9979 -0.0310
vn -0.0513 0.9983 -0.0263
vn 0.0002 0.9995 -0.0320
vn 0.0041 0.9993 -0.0358
vn 0.0647 0.9975 -0.0281
vn -0.0060 0.9996 0.0291
vn -0.0077 0.9970 0.0770
vn 0.0033 0.9941 0.1088
vn 0.0033 0.9940 0.1089
vn 0.0073 0.9936 0.1128
vn -0.0325 0.9940 0.1048
vn -0.0455 0.9972 0.0595
vn -0.0332 0.9991 0.0253
vn -0.0047 0.9999 0.0099
vn -0.0059 0.9999 0.0111
vn -0.0001 1.0000 0.0089
vn 0.0009 1.0000 0.0079
vn 0.0014 1.0000 0.0090
vn 0.0021 1.0000 0.0090
vn 0.0022 1.0000 -0.0015
vn 0.0002 1.0000 0.0031
vn -0.0038 1.0000 0.0026
vn -0.0216 0.9994 0.0255
vn -0.0251 0.9994 0.0226
vn -0.0316 0.9981 0.0537
vn -0.0353 0.9981 0.0514
vn -0.0433 0.9976 0.0536
vn -0.0587 0.9956 0.0736
vn -0.0594 0.9956 0.0728
vn -0.0557 0.9955 0.0768
vn -0.0756 0.9947 0.0704
vn -0.0469 0.9978 0.0466
vn -0.0512 0.9974 0.0509
vn -0.0078 0.9989 0.0465
vn -0.0036 0.9991 0.0423
vn 0.0175 0.9986 0.0506
vn -0.0060 0.9937 0.1122
vn -0.0075 0.9787 0.2051
vn 0.0236 0.9682 0.2490
vn 0.0781 0.9694 0.2328
vn 0.0823 0.9821 0.1696
vn 0.0228 0.9967 0.0773
vn 0.0227 0.9968 0.0769
vn 0.0227 0.9969 0.0748
vn -0.0080 0.9992 0.0383
vn -0.0066 0.9992 0.0388
vn -0.0036 0.9994 0.0357
vn 0.0026 0.9992 0.0408
vn -0.0005 0.9991 0.0422
vn 0.0050 0.9992 0.0399
vn 0.0039 0.9991 0.0423
vn 0.0132 0.9992 0.0370
vn 0.0149 0.9992 0.0369
vn 0.0161 0.9995 0.0262
vn 0.0008 0.9999 0.0144
vn 0.0041 0.9999 0.0164
vn -0.0002 1.0000 0.0014
vn -0.0040 1.0000 0.0019
vn -0.0270 0.9995 0.0187
vn -0.0269 0.9993 0.0271
vn -0.0474 0.9980 0.0421
vn -0.0511 0.9973 0.0528
vn -0.0547 0.9956 0.0764
vn -0.0547 0.9956 0.0766
vn -0.0554 0.9934 0.1004
vn -0.0598 0.9904 0.1248
vn -0.0586 0.9907 0.1231
vn -0.0558 0.9911 0.1209
vn -0.0431 0.9906 0.1298
vn -0.0422 0.9907 0.1290
vn -0.0153 0.9908 0.1341
vn -0.0153 0.9908 0.1342
vn -0.0119 0.9913 0.1308
vn 0.0088 0.9905 0.1375
vn -0.1011 0.9841 0.1462
vn -0.0538 0.9729 0.2249
vn 0.0242 0.9643 0.2639
vn 0.0242 0.9642 0.2639
vn 0.0248 0.9641 0.2645
vn 0.1243 0.9572 0.2613
vn 0.1545 0.9642 0.2157
vn 0.0926 0.9851 0.1452
vn 0.0942 0.9849 0.1451
vn 0.0842 0.9858 0.1453
vn -0.0082 0.9973 0.0724
vn -0.0073 0.9974 0.0720
vn -0.0097 0.9972 0.0744
vn -0.0010 0.9976 0.0698
vn -0.0010 0.9976 0.0699
vn 0.0114 0.9977 0.0671
vn 0.0115 0.9977 0.0671
vn 0.0144 0.9974 0.0701
vn 0.0265 0.9976 0.0642
vn 0.0265 0.9975 0.0649
vn 0.0265 0.9973 0.0682
vn 0.0320 0.9981 0.0526
vn 0.0320 0.9981 0.0529
vn 0.0320 0.9981 0.0527
vn 0.0273 0.9990 0.0368
vn 0.0291 0.9989 0.0367
vn 0.0196 0.9991 0.0374
vn 0.0001 0.9998 0.0174
vn 0.0092 0.9998 0.0182
vn -0.0269 0.9995 0.0165
vn -0.0269 0.9994 0.0232
vn -0.0556 0.9976 0.0424
vn -0.0502 0.9976 0.0473
vn -0.0711 0.9954 0.0642
vn -0.0721 0.9953 0.0641
vn -0.0774 0.9949 0.0641
vn -0.0787 0.9928 0.0904
vn -0.0787 0.9929 0.0888
vn -0.0786 0.9920 0.0986
vn -0.0759 0.9907 0.1129
vn -0.0760 0.9908 0.1116
vn -0.0759 0.9899 0.1194
vn -0.0637 0.9894 0.1308
vn -0.0638 0.9893 0.1311
vn -0.0488 0.9873 0.1511
vn -0.0489 0.9873 0.1512
vn -0.0438 0.9883 0.1463
vn -0.0207 0.9872 0.1582
vn -0.0205 0.9871 0.1588
vn -0.0186 0.9876 0.1562
vn 0.0098 0.9872 0.1593
vn 0.0098 0.9872 0.1595
vn 0.0109 0.9881 0.1536
vn -0.1811 0.9774 0.1087
vn -0.0969 0.9834 0.1535
vn 0.0150 0.9825 0.1858
vn 0.1423 0.9707 0.1937
vn 0.1895 0.9659 0.1767
vn 0.1359 0.9802 0.1440
vn 0.0129 0.9946 0.1034
vn -0.0014 0.9963 0.0860
vn -0.0030 0.9964 0.0851
vn -0.0031 0.9963 0.0857
vn 0.0173 0.9964 0.0833
vn 0.0151 0.9964 0.0835
vn 0.0247 0.9961 0.0852
vn 0.0380 0.9960 0.0804
vn 0.0380 0.9961 0.0793
vn 0.0380 0.9966 0.0737
vn 0.0479 0.9965 0.0689
vn 0.0480 0.9966 0.0674
vn 0.0480 0.9971 0.0598
vn 0.0446 0.9976 0.0530
vn 0.0446 0.9976 0.0526
vn 0.0520 0.9971 0.0549
vn 0.0005 0.9993 0.0379
vn 0.0005 0.9993 0.0380
vn 0.0005 0.9988 0.0495
vn -0.0522 0.9978 0.0403
vn -0.0493 0.9980 0.0385
vn -0.0786 0.9959 0.0458
vn -0.0957 0.9931 0.0682
vn -0.0964 0.9930 0.0682
vn -0.1001 0.9926 0.0681
vn -0.1014 0.9907 0.0902
vn -0.0956 0.9893 0.1106
vn -0.0791 0.9886 0.1280
vn -0.0583 0.9876 0.1459
vn -0.0583 0.9876 0.1460
vn -0.0539 0.9884 0.1416
vn -0.0248 0.9881 0.1519
vn -0.0247 0.9880 0.1524
vn 0.0125 0.9880 0.1542
vn -0.2282 0.9735 0.0152
vn -0.2280 0.9735 0.0151
vn -0.2243 0.9745 0.0111
vn -0.1304 0.9913 0.0196
vn -0.0018 0.9993 0.0383
vn 0.1311 0.9898 0.0548
vn 0.1872 0.9796 0.0729
vn 0.1873 0.9796 0.0730
vn 0.1826 0.9808 0.0681
vn 0.1341 0.9876 0.0812
vn 0.1341 0.9876 0.0813
vn 0.1314 0.9882 0.0785
vn 0.0114 0.9962 0.0863
vn 0.0099 0.9964 0.0848
vn -0.0019 0.9961 0.0880
vn 0.0227 0.9960 0.0862
vn 0.0276 0.9969 0.0732
vn 0.0483 0.9954 0.0829
vn 0.0623 0.9954 0.0726
vn 0.0475 0.9973 0.0560
vn 0.0546 0.9973 0.0484
vn 0.0018 0.9989 0.0467
vn -0.0578 0.9971 0.0500
vn -0.0577 0.9971 0.0501
vn -0.1009 0.9936 0.0504
vn -0.1178 0.9911 0.0627
vn -0.1172 0.9911 0.0627
vn -0.1138 0.9915 0.0627
vn -0.1217 0.9893 0.0809
vn -0.1236 0.9890 0.0809
vn -0.1337 0.9877 0.0808
vn -0.1131 0.9888 0.0977
vn -0.0928 0.9893 0.1122
vn -0.0666 0.9897 0.1271
vn -0.0666 0.9896 0.1271
vn -0.0629 0.9903 0.1235
vn -0.0281 0.9908 0.1325
vn -0.0266 0.9910 0.1310
vn 0.0140 0.9909 0.1340
vn -0.2041 0.9746 -0.0926
vn -0.1455 0.9816 -0.1236
vn -0.1437 0.9821 -0.1218
vn -0.0234 0.9917 -0.1267
vn 0.1306 0.9859 -0.1044
vn 0.1827 0.9813 -0.0611
vn 0.0778 0.9969 -0.0065
vn 0.0100 0.9988 0.0483
vn -0.0023 0.9971 0.0756
vn -0.0023 0.9971 0.0755
vn 0.0276 0.9969 0.0736
vn 0.0296 0.9967 0.0757
vn 0.0525 0.9963 0.0674
vn 0.0565 0.9958 0.0715
vn 0.0737 0.9953 0.0632
vn 0.0552 0.9972 0.0498
vn 0.0616 0.9967 0.0519
vn 0.0016 0.9989 0.0468
vn 0.0025 0.9989 0.0477
vn -0.0583 0.9972 0.0458
vn -0.0583 0.9973 0.0458
vn -0.1150 0.9922 0.0473
vn -0.1132 0.9925 0.0455
vn -0.1359 0.9895 0.0489
vn -0.1385 0.9884 0.0622
vn -0.1399 0.9882 0.0621
vn -0.1475 0.9871 0.0620
vn -0.1275 0.9890 0.0745
vn -0.1081 0.9901 0.0892
vn -0.1042 0.9909 0.0852
vn -0.0731 0.9927 0.0962
vn -0.0705 0.9931 0.0935
vn -0.0308 0.9945 0.1001
vn -0.0297 0.9946 0.0990
vn 0.0151 0.9947 0.1013
vn -0.1456 0.9789 -0.1432
vn -0.1199 0.9722 -0.2012
vn -0.1198 0.9718 -0.2029
vn -0.1196 0.9699 -0.2120
vn -0.0451 0.9736 -0.2239
vn 0.0866 0.9755 -0.2023
vn 0.1281 0.9816 -0.1416
vn 0.0777 0.9953 -0.0569
vn -0.0173 0.9994 0.0305
vn -0.0162 0.9994 0.0305
vn -0.0108 0.9995 0.0305
vn -0.0026 0.9987 0.0506
vn -0.0025 0.9987 0.0505
vn 0.0310 0.9983 0.0494
vn 0.0323 0.9982 0.0507
vn 0.0592 0.9972 0.0454
vn 0.0618 0.9969 0.0480
vn 0.0810 0.9958 0.0427
vn 0.0618 0.9975 0.0355
vn 0.0598 0.9976 0.0355
vn 0.0719 0.9968 0.0355
vn 0.0035 0.9995 0.0321
vn 0.0045 0.9994 0.0331
vn -0.0576 0.9979 0.0305
vn -0.0582 0.9978 0.0311
vn -0.1168 0.9927 0.0297
vn -0.1169 0.9927 0.0297
vn -0.1533 0.9877 0.0307
vn -0.1524 0.9878 0.0330
vn -0.1491 0.9884 0.0296
vn -0.1540 0.9873 0.0399
vn -0.1529 0.9873 0.0421
vn -0.1410 0.9889 0.0464
vn -0.1381 0.9895 0.0434
vn -0.1147 0.9920 0.0518
vn -0.1125 0.9924 0.0495
vn -0.0775 0.9954 0.0558
vn -0.0760 0.9956 0.0543
vn -0.0327 0.9978 0.0581
vn -0.0320 0.9978 0.0575
vn 0.0157 0.9981 0.0588
vn -0.0717 0.9915 -0.1081
vn -0.0866 0.9795 -0.1817
vn -0.0632 0.9746 -0.2148
vn -0.0408 0.9794 -0.1977
vn -0.0401 0.9794 -0.1977
vn -0.0445 0.9793 -0.1977
vn -0.0501 0.9897 -0.1339
vn -0.0669 0.9969 -0.0411
vn -0.0378 0.9991 0.0167
vn -0.0373 0.9992 0.0162
vn -0.0027 0.9998 0.0172
vn 0.0328 0.9993 0.0168
vn 0.0332 0.9993 0.0173
vn 0.0628 0.9979 0.0155
vn 0.0636 0.9978 0.0164
vn 0.0822 0.9965 0.0134
vn 0.0834 0.9964 0.0146
vn 0.0608 0.9981 0.0114
vn 0.0616 0.9980 0.0122
vn 0.0054 0.9999 0.0096
vn 0.0063 0.9999 0.0105
vn -0.0562 0.9984 0.0079
vn -0.0570 0.9983 0.0087
vn -0.1163 0.9932 0.0064
vn -0.1169 0.9931 0.0070
vn -0.1563 0.9877 0.0061
vn -0.1559 0.9878 0.0057
vn -0.1582 0.9874 0.0070
vn -0.1582 0.9874 0.0071
vn -0.1445 0.9895 0.0083
vn -0.1445 0.9895 0.0082
vn -0.1176 0.9930 0.0092
vn -0.1172 0.9931 0.0088
vn -0.0794 0.9968 0.0099
vn -0.0791 0.9968 0.0097
vn -0.0335 0.9994 0.0103
vn -0.0333 0.9994 0.0102
vn 0.0159 0.9998 0.0105
vn -0.0195 0.9997 -0.0155
vn -0.0521 0.9963 -0.0681
vn -0.0746 0.9918 -0.1036
vn -0.0857 0.9919 -0.0933
vn -0.0825 0.9954 -0.0483
vn -0.0661 0.9977 -0.0171
vn -0.0653 0.9977 -0.0163
vn -0.0377 0.9991 -0.0184
vn -0.0372 0.9991 -0.0179
vn -0.0027 0.9998 -0.0191
vn -0.0027 0.9998 -0.0190
vn 0.0332 0.9993 -0.0191
vn 0.0636 0.9978 -0.0181
vn 0.0834 0.9964 -0.0161
vn 0.0616 0.9980 -0.0136
vn 0.0063 0.9999 -0.0146
vn -0.0545 0.9984 -0.0168
vn -0.0536 0.9984 -0.0159
vn -0.1145 0.9932 -0.0187
vn -0.1134 0.9934 -0.0176
vn -0.1545 0.9878 -0.0219
vn -0.1546 0.9878 -0.0204
vn -0.1524 0.9881 -0.0198
vn -0.1563 0.9873 -0.0282
vn -0.1565 0.9873 -0.0264
vn -0.1431 0.9892 -0.0307
vn -0.1412 0.9896 -0.0288
vn -0.1164 0.9926 -0.0343
vn -0.1149 0.9928 -0.0328
vn -0.0786 0.9962 -0.0369
vn -0.0786 0.9962 -0.0370
vn -0.0776 0.9963 -0.0360
vn -0.0331 0.9987 -0.0385
vn -0.0327 0.9987 -0.0380
vn 0.0159 0.9991 -0.0389
vn -0.0706 0.9975 0.0032
vn -0.0317 0.9995 0.0035
vn 0.0222 0.9997 0.0033
vn 0.0767 0.9971 0.0015
vn 0.0515 0.9987 0.0005
vn 0.0076 1.0000 -0.0000
vn -0.0087 0.9999 0.0084
vn -0.0418 0.9986 0.0311
vn -0.0659 0.9963 0.0551
vn -0.0764 0.9945 0.0716
vn 0.0125 0.9997 0.0198
vn -0.0040 1.0000 -0.0054
vn -0.0137 0.9997 -0.0180
vn -0.0335 0.9993 -0.0153
vn -0.0463 0.9989 -0.0006
vn -0.0607 0.9980 0.0187
vn -0.0377 0.9990 0.0237
vn -0.0210 0.9995 0.0246
vn -0.0061 0.9997 0.0248
vn 0.0089 0.9997 0.0244
vn -0.0705 0.9965 -0.0441
vn -0.0317 0.9983 -0.0489
vn 0.0191 0.9988 -0.0456
vn 0.0552 0.9979 -0.0350
vn 0.0630 0.9978 -0.0203
vn 0.0377 0.9993 -0.0055
vn -0.0212 0.9997 0.0126
vn -0.0591 0.9978 0.0298
vn -0.0837 0.9954 0.0476
vn -0.0760 0.9960 0.0471
vn -0.0102 0.9996 0.0279
vn 0.0125 0.9999 0.0047
vn 0.0415 0.9990 -0.0156
vn 0.0415 0.9991 -0.0105
vn 0.0105 0.9996 -0.0272
vn -0.0607 0.9982 -0.0005
vn -0.0477 0.9988 0.0095
vn -0.0213 0.9997 0.0099
vn -0.0062 0.9999 0.0100
vn 0.0093 0.9999 0.0098
vn -0.0589 0.9958 -0.0695
vn -0.0268 0.9966 -0.0780
vn 0.0365 0.9979 -0.0534
vn 0.0089 1.0000 0.0013
vn -0.0045 1.0000 0.0084
vn -0.0257 0.9996 0.0129
vn -0.0629 0.9979 0.0167
vn -0.0753 0.9969 0.0241
vn -0.0038 0.9998 0.0177
vn 0.0357 0.9993 0.0072
vn 0.0415 0.9991 -0.0054
vn 0.0194 0.9997 -0.0143
vn -0.0477 0.9988 -0.0055
vn -0.0213 0.9998 -0.0056
vn 0.0093 0.9999 -0.0055
vn -0.0386 0.9974 -0.0604
vn 0.0061 0.9980 -0.0633
vn 0.0139 0.9991 -0.0408
vn -0.0146 0.9998 0.0110
vn -0.0322 0.9981 0.0521
vn -0.0164 0.9978 0.0639
vn -0.0158 0.9984 0.0541
vn -0.0353 0.9990 0.0264
vn -0.0633 0.9980 -0.0025
vn -0.0753 0.9972 -0.0000
vn -0.0126 0.9999 0.0088
vn 0.0194 0.9998 0.0106
vn -0.0262 0.9997 0.0030
vn -0.0525 0.9984 -0.0220
vn -0.0212 0.9996 -0.0206
vn -0.0061 0.9998 -0.0208
vn -0.0151 0.9997 -0.0207
vn -0.0084 0.9995 -0.0292
vn -0.0000 0.9997 -0.0231
vn 0.0140 0.9998 0.0132
vn -0.0597 0.9965 0.0584
vn -0.0612 0.9943 0.0873
vn -0.0282 0.9947 0.0992
vn 0.0027 0.9967 0.0810
vn 0.0027 0.9972 0.0752
vn 0.0029 0.9991 0.0430
vn 0.0029 0.9993 0.0366
vn -0.0142 0.9999 -0.0062
vn -0.0142 0.9998 -0.0118
vn -0.0777 0.9965 -0.0309
vn -0.0126 0.9999 -0.0114
vn 0.0218 0.9997 0.0085
vn 0.0533 0.9983 0.0220
vn -0.0163 0.9998 0.0143
vn -0.0464 0.9989 -0.0039
vn -0.0717 0.9971 -0.0243
vn -0.0459 0.9983 -0.0356
vn 0.0085 0.9994 -0.0339
vn -0.0029 0.9999 0.0113
vn -0.0000 1.0000 0.0053
vn -0.0877 0.9945 0.0572
vn -0.0828 0.9934 0.0788
vn -0.0372 0.9954 0.0880
vn 0.0027 0.9976 0.0694
vn 0.0029 0.9995 0.0302
vn -0.0530 0.9967 -0.0616
vn -0.0322 0.9984 -0.0471
vn -0.0059 0.9998 -0.0194
vn 0.0184 0.9998 0.0020
vn 0.0209 0.9997 0.0094
vn -0.0075 1.0000 0.0006
vn -0.0464 0.9987 -0.0201
vn -0.0513 0.9977 -0.0441
vn 0.0095 0.9990 -0.0448
vn -0.0063 0.9996 0.0273
vn 0.0027 0.9997 0.0241
vn 0.0033 0.9998 0.0182
vn -0.0452 0.9988 0.0171
vn -0.0910 0.9954 0.0314
vn -0.0407 0.9986 0.0348
vn 0.0215 0.9994 0.0272
vn 0.0422 0.9991 -0.0037
vn 0.0675 0.9970 -0.0379
vn 0.0268 0.9969 -0.0734
vn -0.0467 0.9950 -0.0880
vn -0.0059 0.9977 -0.0668
vn -0.0045 0.9990 -0.0440
vn 0.0030 0.9994 -0.0334
vn -0.0257 0.9983 -0.0521
vn -0.0273 0.9989 -0.0380
vn -0.0350 0.9993 -0.0104
vn -0.0255 0.9997 0.0030
vn 0.0003 1.0000 -0.0018
vn 0.0323 0.9992 -0.0246
vn -0.0016 0.9998 0.0221
vn 0.0092 1.0000 0.0038
vn -0.0452 0.9989 -0.0085
vn -0.0941 0.9953 -0.0230
vn -0.0910 0.9954 -0.0317
vn -0.0407 0.9986 -0.0351
vn 0.0268 0.9991 -0.0328
vn 0.0817 0.9953 -0.0517
vn 0.0399 0.9971 -0.0649
vn 0.0030 0.9974 -0.0725
vn -0.0028 0.9980 -0.0625
vn -0.0117 0.9992 -0.0377
vn -0.0415 0.9991 0.0060
vn -0.0898 0.9954 0.0334
vn -0.0521 0.9975 0.0468
vn 0.0003 0.9991 0.0419
vn 0.0323 0.9993 0.0172
vn 0.0149 0.9997 -0.0174
vn 0.0265 0.9992 -0.0286
vn 0.0228 0.9992 -0.0334
vn -0.0329 0.9981 -0.0528
vn -0.0796 0.9946 -0.0669
vn -0.0821 0.9935 -0.0790
vn -0.0372 0.9954 -0.0881
vn 0.0203 0.9964 -0.0818
vn 0.0576 0.9964 -0.0618
vn 0.0626 0.9971 -0.0426
vn 0.0301 0.9990 -0.0328
vn -0.0160 0.9989 -0.0450
vn -0.0074 0.9990 -0.0449
vn -0.0129 0.9993 -0.0342
vn -0.0364 0.9993 -0.0100
vn -0.1092 0.9939 0.0145
vn -0.1095 0.9934 0.0343
vn -0.0634 0.9969 0.0457
vn 0.0569 0.9981 0.0222
vn 0.0317 0.9983 -0.0482
vn -0.0134 0.9979 -0.0637
vn -0.0653 0.9945 -0.0820
vn -0.0699 0.9933 -0.0917
vn -0.0282 0.9946 -0.0994
vn 0.0116 0.9958 -0.0908
vn 0.0309 0.9975 -0.0642
vn -0.0099 0.9999 -0.0131
vn -0.0236 0.9994 -0.0255
vn -0.0605 0.9980 -0.0196
vn -0.1096 0.9940 -0.0037
vn -0.0634 0.9980 0.0006
vn 0.0118 0.9999 -0.0018
vn 0.0848 0.9963 -0.0103
vn 0.0437 0.9976 -0.0542
vn 0.0388 0.9976 -0.0578
vn 0.0148 0.9985 -0.0520
vn -0.0044 0.9992 -0.0393
vn -0.0604 0.9965 -0.0585
vn -0.0207 0.9977 -0.0638
vn 0.0031 0.9985 -0.0552
vn 0.0048 0.9996 -0.0291
vn -0.0664 0.9971 -0.0375
vn -0.1165 0.9919 -0.0498
vn -0.1174 0.9914 -0.0574
vn -0.0676 0.9959 -0.0597
vn 0.0804 0.9953 -0.0537
vn 0.0364 0.9989 -0.0310
vn 0.0070 0.9997 -0.0232
vn -0.0171 0.9998 -0.0122
vn -0.0421 0.9991 -0.0021
vn -0.0460 0.9989 -0.0044
vn -0.0155 0.9998 -0.0079
vn -0.0532 0.9980 -0.0344
vn -0.1042 0.9932 -0.0521
vn -0.1099 0.9918 -0.0650
vn 0.0041 0.9979 -0.0643
vn 0.0647 0.9967 -0.0485
vn 0.0476 0.9989 0.0032
vn 0.0364 0.9993 0.0110
vn 0.0070 0.9998 0.0187
vn -0.0326 0.9992 0.0233
vn -0.0332 0.9994 0.0062
vn -0.0316 0.9993 0.0201
vn -0.0621 0.9981 -0.0046
vn -0.0972 0.9949 -0.0262
vn -0.0607 0.9975 -0.0358
vn -0.0036 0.9996 -0.0281
vn 0.0415 0.9991 -0.0047
vn 0.0419 0.9962 0.0770
vn 0.0284 0.9932 0.1128
vn -0.0007 0.9945 0.1049
vn 0.0131 0.9981 0.0596
vn -0.0113 0.9996 0.0253
vn -0.0190 0.9998 0.0111
vn -0.0556 0.9960 0.0705
vn -0.0561 0.9971 0.0509
vn -0.0425 0.9982 0.0422
vn -0.0120 0.9986 0.0506
vn 0.0414 0.9964 0.0744
vn -0.1000 0.9738 0.2041
vn -0.0535 0.9671 0.2487
vn 0.0072 0.9723 0.2335
vn 0.0129 0.9853 0.1702
vn -0.0113 0.9969 0.0774
vn -0.0190 0.9992 0.0357
vn 0.0043 0.9996 0.0262
vn -0.0710 0.9946 0.0763
vn -0.0786 0.9919 0.1002
vn -0.0759 0.9898 0.1207
vn -0.0439 0.9904 0.1307
vn -0.0187 0.9903 0.1375
vn 0.0174 0.9892 0.1458
vn -0.1777 0.9588 0.2216
vn -0.0946 0.9600 0.2634
vn 0.0235 0.9644 0.2633
vn 0.0784 0.9729 0.2177
vn 0.0826 0.9859 0.1453
vn 0.0228 0.9970 0.0743
vn -0.0012 0.9975 0.0701
vn 0.0085 0.9979 0.0642
vn 0.0149 0.9985 0.0526
vn 0.0161 0.9992 0.0367
vn -0.0007 0.9999 0.0165
vn -0.0785 0.9948 0.0641
vn -0.0956 0.9915 0.0887
vn -0.1012 0.9886 0.1113
vn -0.0953 0.9868 0.1308
vn -0.0789 0.9861 0.1459
vn -0.0538 0.9863 0.1560
vn 0.0088 0.9873 0.1584
vn -0.2217 0.9634 0.1504
vn -0.1282 0.9745 0.1843
vn 0.0252 0.9803 0.1957
vn 0.1267 0.9757 0.1785
vn 0.1565 0.9772 0.1436
vn 0.0947 0.9902 0.1030
vn -0.0049 0.9963 0.0857
vn 0.0144 0.9967 0.0804
vn 0.0265 0.9973 0.0689
vn 0.0320 0.9981 0.0530
vn 0.0291 0.9989 0.0375
vn 0.0009 0.9993 0.0384
vn -0.1008 0.9926 0.0681
vn -0.1175 0.9890 0.0901
vn -0.1214 0.9865 0.1102
vn -0.1127 0.9854 0.1276
vn -0.0924 0.9856 0.1412
vn -0.0627 0.9867 0.1503
vn -0.0265 0.9877 0.1541
vn 0.0108 0.9882 0.1525
vn -0.2319 0.9725 0.0192
vn -0.1483 0.9882 0.0379
vn 0.0152 0.9984 0.0553
vn 0.1447 0.9871 0.0685
vn 0.1919 0.9783 0.0777
vn 0.1368 0.9870 0.0840
vn 0.0129 0.9961 0.0878
vn 0.0380 0.9966 0.0726
vn 0.0480 0.9971 0.0583
vn -0.1131 0.9916 0.0627
vn -0.1356 0.9875 0.0808
vn -0.1381 0.9856 0.0974
vn -0.1271 0.9856 0.1118
vn -0.1037 0.9870 0.1231
vn -0.0702 0.9889 0.1307
vn -0.0296 0.9905 0.1339
vn 0.0126 0.9911 0.1326
vn -0.2303 0.9657 -0.1198
vn -0.1473 0.9811 -0.1254
vn -0.0018 0.9944 -0.1053
vn 0.0883 0.9942 -0.0619
vn 0.1294 0.9916 -0.0065
vn 0.1317 0.9901 0.0479
vn -0.0172 0.9970 0.0754
vn -0.0025 0.9971 0.0757
vn 0.0484 0.9968 0.0633
vn 0.0623 0.9967 0.0519
vn -0.0581 0.9973 0.0457
vn -0.1168 0.9919 0.0490
vn -0.1489 0.9869 0.0621
vn -0.1503 0.9858 0.0743
vn -0.1377 0.9868 0.0848
vn -0.1121 0.9893 0.0932
vn -0.0757 0.9922 0.0988
vn -0.0319 0.9944 0.1012
vn 0.0141 0.9949 0.1002
vn -0.2009 0.9593 -0.1985
vn -0.1412 0.9648 -0.2219
vn -0.0231 0.9789 -0.2030
vn 0.0254 0.9894 -0.1427
vn 0.0254 0.9901 -0.1383
vn 0.0254 0.9901 -0.1384
vn 0.0434 0.9974 -0.0571
vn -0.0097 0.9995 0.0306
vn -0.0372 0.9980 0.0505
vn -0.0027 0.9987 0.0507
vn 0.0297 0.9984 0.0481
vn 0.0566 0.9975 0.0428
vn 0.0738 0.9966 0.0355
vn 0.0574 0.9978 0.0331
vn 0.0025 0.9995 0.0311
vn -0.0570 0.9979 0.0299
vn -0.1574 0.9866 0.0433
vn -0.1439 0.9884 0.0493
vn -0.1170 0.9917 0.0541
vn -0.0790 0.9952 0.0573
vn -0.0333 0.9977 0.0587
vn 0.0151 0.9982 0.0582
vn -0.1447 0.9729 -0.1805
vn -0.1195 0.9696 -0.2137
vn -0.0453 0.9792 -0.1977
vn 0.0255 0.9907 -0.1340
vn 0.0434 0.9982 -0.0411
vn -0.0097 0.9998 0.0162
vn -0.0383 0.9991 0.0172
vn -0.0028 0.9998 0.0173
vn 0.0323 0.9993 0.0164
vn 0.0619 0.9980 0.0146
vn 0.0810 0.9966 0.0122
vn 0.0599 0.9982 0.0105
vn 0.0045 1.0000 0.0087
vn -0.0554 0.9984 0.0070
vn -0.1157 0.9933 0.0057
vn -0.1451 0.9894 0.0088
vn -0.1180 0.9930 0.0096
vn -0.0797 0.9968 0.0102
vn -0.0336 0.9994 0.0105
vn 0.0158 0.9998 0.0104
vn -0.0720 0.9951 -0.0680
vn -0.0876 0.9908 -0.1034
vn -0.0644 0.9935 -0.0935
vn -0.0408 0.9980 -0.0485
vn -0.0506 0.9986 -0.0163
vn -0.0669 0.9976 -0.0178
vn -0.0383 0.9991 -0.0190
vn -0.0028 0.9998 -0.0191
vn 0.0323 0.9993 -0.0181
vn 0.0617 0.9980 -0.0162
vn 0.0808 0.9966 -0.0136
vn 0.0626 0.9979 -0.0146
vn 0.0077 0.9998 -0.0159
vn -0.0554 0.9983 -0.0177
vn -0.1156 0.9931 -0.0199
vn -0.1587 0.9869 -0.0287
vn -0.1450 0.9889 -0.0327
vn -0.1179 0.9924 -0.0358
vn -0.0796 0.9961 -0.0379
vn -0.0335 0.9987 -0.0389
vn 0.0155 0.9991 -0.0385
vt 0.045455 0.000000
vt 0.000000 0.045455
vt 0.000000 0.000000
vt 0.090909 0.000000
vt 0.045455 0.045455
vt 0.136364 0.045455
vt 0.090909 0.045455
vt 0.136364 0.000000
vt 0.181818 0.045455
vt 0.181818 0.000000
vt 0.227273 0.045455
vt 0.227273 0.000000
vt 0.272727 0.045455
vt 0.272727 0.000000
vt 0.318182 0.045455
vt 0.363636 0.000000
vt 0.318182 0.000000
vt 0.409091 0.000000
vt 0.363636 0.045455
vt 0.454545 0.000000
vt 0.409091 0.045455
vt 0.500000 0.000000
vt 0.454545 0.045455
vt 0.545455 0.000000
vt 0.500000 0.045455
vt 0.590909 0.000000
vt 0.545455 0.045455
vt 0.636364 0.045455
vt 0.590909 0.045455
vt 0.636364 0.000000
vt 0.681818 0.045455
vt 0.681818 0.000000
vt 0.727273 0.045455
vt 0.727273 0.000000
vt 0.772727 0.045455
vt 0.818182 0.000000
vt 0.772727 0.000000
vt 0.863636 0.000000
vt 0.818182 0.045455
vt 0.909091 0.000000
vt 0.863636 0.045455
vt 0.954545 0.000000
vt 0.909091 0.045455
vt 1.000000 0.045455
vt 0.954545 0.045455
vt 0.045455 0.090909
vt 0.000000 0.090909
vt 0.090909 0.090909
vt 0.136364 0.090909
vt 0.181818 0.090909
vt 0.227273 0.090909
vt 0.272727 0.090909
vt 0.318182 0.090909
vt 0.363636 0.090909
vt 0.409091 0.090909
vt 0.454545 0.090909
vt 0.500000 0.090909
vt 0.590909 0.090909
vt 0.545455 0.090909
vt 0.636364 0.090909
vt 0.727273 0.090909
vt 0.681818 0.090909
vt 0.772727 0.090909
vt 0.818182 0.090909
vt 0.863636 0.090909
vt 0.909091 0.090909
vt 1.000000 0.090909
vt 0.954545 0.090909
vt 0.045455 0.136364
vt 0.000000 0.136364
vt 0.090909 0.136364
vt 0.136364 0.136364
vt 0.181818 0.136364
vt 0.227273 0.136364
vt 0.272727 0.136364
vt 0.318182 0.136364
vt 0.363636 0.136364
vt 0.409091 0.136364
vt 0.454545 0.136364
vt 0.500000 0.136364
vt 0.590909 0.136364
vt 0.545455 0.136364
vt 0.636364 0.136364
vt 0.727273 0.136364
vt 0.681818 0.136364
vt 0.772727 0.136364
vt 0.818182 0.136364
vt 0.863636 0.136364
vt 0.909091 0.136364
vt 0.954545 0.136364
vt 0.045455 0.181818
vt 0.000000 0.181818
vt 0.090909 0.181818
vt 0.136364 0.181818
vt 0.181818 0.181818
vt 0.227273 0.181818
vt 0.272727 0.181818
vt 0.318182 0.181818
vt 0.363636 0.181818
vt 0.409091 0.181818
vt 0.500000 0.181818
vt 0.454545 0.181818
vt 0.590909 0.181818
vt 0.545455 0.181818
vt 0.636364 0.181818
vt 0.681818 0.181818
vt 0.772727 0.181818
vt 0.727273 0.181818
vt 0.818182 0.181818
vt 0.863636 0.181818
vt 0.909091 0.181818
vt 0.954545 0.181818
vt 1.000000 0.136364
vt 0.045455 0.227273
vt 0.000000 0.227273
vt 0.090909 0.227273
vt 0.181818 0.227273
vt 0.136364 0.227273
vt 0.227273 0.227273
vt 0.272727 0.227273
vt 0.318182 0.227273
vt 0.363636 0.227273
vt 0.409091 0.227273
vt 0.500000 0.227273
vt 0.454545 0.227273
vt 0.545455 0.227273
vt 0.636364 0.227273
vt 0.590909 0.227273
vt 0.681818 0.227273
vt 0.727273 0.227273
vt 0.818182 0.227273
vt 0.772727 0.227273
vt 0.863636 0.227273
vt 0.909091 0.227273
vt 0.954545 0.227273
vt 1.000000 0.181818
vt 0.000000 0.272727
vt 0.090909 0.272727
vt 0.045455 0.272727
vt 0.136364 0.272727
vt 0.181818 0.272727
vt 0.227273 0.272727
vt 0.272727 0.272727
vt 0.363636 0.272727
vt 0.318182 0.272727
vt 0.409091 0.272727
vt 0.454545 0.272727
vt 0.500000 0.272727
vt 0.545455 0.272727
vt 0.590909 0.272727
vt 0.681818 0.272727
vt 0.636364 0.272727
vt 0.772727 0.272727
vt 0.727273 0.272727
vt 0.818182 0.272727
vt 0.863636 0.272727
vt 0.909091 0.272727
vt 0.954545 0.272727
vt 1.000000 0.227273
vt 0.000000 0.318182
vt 0.090909 0.318182
vt 0.045455 0.318182
vt 0.136364 0.318182
vt 0.181818 0.318182
vt 0.227273 0.318182
vt 0.272727 0.318182
vt 0.363636 0.318182
vt 0.318182 0.318182
vt 0.409091 0.318182
vt 0.454545 0.318182
vt 0.545455 0.318182
vt 0.500000 0.318182
vt 0.590909 0.318182
vt 0.636364 0.318182
vt 0.727273 0.318182
vt 0.681818 0.318182
vt 0.772727 0.318182
vt 0.818182 0.318182
vt 0.863636 0.318182
vt 0.909091 0.318182
vt 1.000000 0.272727
vt 0.954545 0.318182
vt 0.000000 0.363636
vt 0.090909 0.363636
vt 0.045455 0.363636
vt 0.136364 0.363636
vt 0.181818 0.363636
vt 0.227273 0.363636
vt 0.272727 0.363636
vt 0.318182 0.363636
vt 0.363636 0.363636
vt 0.409091 0.363636
vt 0.454545 0.363636
vt 0.545455 0.363636
vt 0.500000 0.363636
vt 0.590909 0.363636
vt 0.636364 0.363636
vt 0.681818 0.363636
vt 0.727273 0.363636
vt 0.772727 0.363636
vt 0.818182 0.363636
vt 0.863636 0.363636
vt 0.954545 0.363636
vt 0.909091 0.363636
vt 1.000000 0.363636
vt 0.000000 0.409091
vt 0.045455 0.409091
vt 0.090909 0.409091
vt 0.181818 0.409091
vt 0.136364 0.409091
vt 0.227273 0.409091
vt 0.272727 0.409091
vt 0.318182 0.409091
vt 0.363636 0.409091
vt 0.409091 0.409091
vt 0.454545 0.409091
vt 0.545455 0.409091
vt 0.500000 0.409091
vt 0.590909 0.409091
vt 0.636364 0.409091
vt 0.681818 0.409091
vt 0.727273 0.409091
vt 0.772727 0.409091
vt 0.818182 0.409091
vt 0.863636 0.409091
vt 0.954545 0.409091
vt 0.909091 0.409091
vt 1.000000 0.409091
vt 0.000000 0.454545
vt 0.045455 0.454545
vt 0.090909 0.454545
vt 0.181818 0.454545
vt 0.136364 0.454545
vt 0.227273 0.454545
vt 0.272727 0.454545
vt 0.318182 0.454545
vt 0.363636 0.454545
vt 0.409091 0.454545
vt 0.454545 0.454545
vt 0.545455 0.454545
vt 0.500000 0.454545
vt 0.590909 0.454545
vt 0.636364 0.454545
vt 0.681818 0.454545
vt 0.727273 0.454545
vt 0.772727 0.454545
vt 0.818182 0.454545
vt 0.863636 0.454545
vt 0.909091 0.454545
vt 0.954545 0.454545
vt 0.000000 0.500000
vt 0.045455 0.500000
vt 0.090909 0.500000
vt 0.181818 0.500000
vt 0.136364 0.500000
vt 0.227273 0.500000
vt 0.272727 0.500000
vt 0.318182 0.500000
vt 0.363636 0.500000
vt 0.409091 0.500000
vt 0.454545 0.500000
vt 0.500000 0.500000
vt 0.590909 0.500000
vt 0.545455 0.500000
vt 0.636364 0.500000
vt 0.681818 0.500000
vt 0.727273 0.500000
vt 0.772727 0.500000
vt 0.818182 0.500000
vt 0.863636 0.500000
vt 0.909091 0.500000
vt 1.000000 0.454545
vt 0.954545 0.500000
vt 0.000000 0.545455
vt 0.045455 0.545455
vt 0.090909 0.545455
vt 0.181818 0.545455
vt 0.136364 0.545455
vt 0.227273 0.545455
vt 0.272727 0.545455
vt 0.318182 0.545455
vt 0.363636 0.545455
vt 0.409091 0.545455
vt 0.454545 0.545455
vt 0.500000 0.545455
vt 0.545455 0.545455
vt 0.590909 0.545455
vt 0.681818 0.545455
vt 0.636364 0.545455
vt 0.727273 0.545455
vt 0.772727 0.545455
vt 0.818182 0.545455
vt 0.863636 0.545455
vt 0.909091 0.545455
vt 1.000000 0.500000
vt 0.954545 0.545455
vt 0.045455 0.590909
vt 0.000000 0.590909
vt 0.090909 0.590909
vt 0.136364 0.590909
vt 0.181818 0.590909
vt 0.227273 0.590909
vt 0.272727 0.590909
vt 0.318182 0.590909
vt 0.363636 0.590909
vt 0.409091 0.590909
vt 0.454545 0.590909
vt 0.500000 0.590909
vt 0.545455 0.590909
vt 0.590909 0.590909
vt 0.636364 0.590909
vt 0.681818 0.590909
vt 0.727273 0.590909
vt 0.772727 0.590909
vt 0.863636 0.590909
vt 0.818182 0.590909
vt 0.909091 0.590909
vt 1.000000 0.545455
vt 0.954545 0.590909
vt 0.045455 0.636364
vt 0.000000 0.636364
vt 0.090909 0.636364
vt 0.136364 0.636364
vt 0.181818 0.636364
vt 0.227273 0.636364
vt 0.272727 0.636364
vt 0.318182 0.636364
vt 0.409091 0.636364
vt 0.363636 0.636364
vt 0.454545 0.636364
vt 0.500000 0.636364
vt 0.545455 0.636364
vt 0.590909 0.636364
vt 0.636364 0.636364
vt 0.681818 0.636364
vt 0.727273 0.636364
vt 0.772727 0.636364
vt 0.818182 0.636364
vt 0.863636 0.636364
vt 0.909091 0.636364
vt 1.000000 0.636364
vt 0.954545 0.636364
vt 0.000000 0.681818
vt 0.045455 0.681818
vt 0.136364 0.681818
vt 0.090909 0.681818
vt 0.181818 0.681818
vt 0.227273 0.681818
vt 0.272727 0.681818
vt 0.318182 0.681818
vt 0.409091 0.681818
vt 0.363636 0.681818
vt 0.454545 0.681818
vt 0.500000 0.681818
vt 0.545455 0.681818
vt 0.590909 0.681818
vt 0.636364 0.681818
vt 0.681818 0.681818
vt 0.727273 0.681818
vt 0.772727 0.681818
vt 0.818182 0.681818
vt 0.863636 0.681818
vt 0.909091 0.681818
vt 1.000000 0.681818
vt 0.954545 0.681818
vt 0.000000 0.727273
vt 0.045455 0.727273
vt 0.136364 0.727273
vt 0.090909 0.727273
vt 0.181818 0.727273
vt 0.227273 0.727273
vt 0.272727 0.727273
vt 0.318182 0.727273
vt 0.409091 0.727273
vt 0.363636 0.727273
vt 0.454545 0.727273
vt 0.500000 0.727273
vt 0.545455 0.727273
vt 0.590909 0.727273
vt 0.636364 0.727273
vt 0.681818 0.727273
vt 0.727273 0.727273
vt 0.772727 0.727273
vt 0.818182 0.727273
vt 0.863636 0.727273
vt 0.909091 0.727273
vt 1.000000 0.727273
vt 0.954545 0.727273
vt 0.000000 0.772727
vt 0.045455 0.772727
vt 0.136364 0.772727
vt 0.090909 0.772727
vt 0.181818 0.772727
vt 0.227273 0.772727
vt 0.272727 0.772727
vt 0.318182 0.772727
vt 0.409091 0.772727
vt 0.363636 0.772727
vt 0.454545 0.772727
vt 0.500000 0.772727
vt 0.545455 0.772727
vt 0.590909 0.772727
vt 0.636364 0.772727
vt 0.681818 0.772727
vt 0.727273 0.772727
vt 0.772727 0.772727
vt 0.818182 0.772727
vt 0.863636 0.772727
vt 0.909091 0.772727
vt 1.000000 0.772727
vt 0.954545 0.772727
vt 0.000000 0.818182
vt 0.045455 0.818182
vt 0.136364 0.818182
vt 0.090909 0.818182
vt 0.181818 0.818182
vt 0.227273 0.818182
vt 0.272727 0.818182
vt 0.318182 0.818182
vt 0.409091 0.818182
vt 0.363636 0.818182
vt 0.454545 0.818182
vt 0.500000 0.818182
vt 0.545455 0.818182
vt 0.590909 0.818182
vt 0.636364 0.818182
vt 0.681818 0.818182
vt 0.727273 0.818182
vt 0.772727 0.818182
vt 0.818182 0.818182
vt 0.863636 0.818182
vt 0.909091 0.818182
vt 1.000000 0.818182
vt 0.954545 0.818182
vt 0.045455 0.863636
vt 0.000000 0.863636
vt 0.090909 0.863636
vt 0.136364 0.863636
vt 0.181818 0.863636
vt 0.272727 0.863636
vt 0.227273 0.863636
vt 0.318182 0.863636
vt 0.409091 0.863636
vt 0.363636 0.863636
vt 0.454545 0.863636
vt 0.500000 0.863636
vt 0.545455 0.863636
vt 0.590909 0.863636
vt 0.636364 0.863636
vt 0.681818 0.863636
vt 0.727273 0.863636
vt 0.772727 0.863636
vt 0.818182 0.863636
vt 0.863636 0.863636
vt 0.909091 0.863636
vt 1.000000 0.863636
vt 0.954545 0.863636
vt 0.045455 0.909091
vt 0.000000 0.909091
vt 0.090909 0.909091
vt 0.136364 0.909091
vt 0.181818 0.909091
vt 0.227273 0.909091
vt 0.272727 0.909091
vt 0.318182 0.909091
vt 0.409091 0.909091
vt 0.363636 0.909091
vt 0.454545 0.909091
vt 0.500000 0.909091
vt 0.545455 0.909091
vt 0.590909 0.909091
vt 0.636364 0.909091
vt 0.681818 0.909091
vt 0.727273 0.909091
vt 0.772727 0.909091
vt 0.818182 0.909091
vt 0.863636 0.909091
vt 0.909091 0.909091
vt 1.000000 0.909091
vt 0.954545 0.909091
vt 0.045455 0.954545
vt 0.000000 0.954545
vt 0.090909 0.954545
vt 0.136364 0.954545
vt 0.181818 0.954545
vt 0.227273 0.954545
vt 0.272727 0.954545
vt 0.318182 0.954545
vt 0.409091 0.954545
vt 0.363636 0.954545
vt 0.454545 0.954545
vt 0.500000 0.954545
vt 0.545455 0.954545
vt 0.590909 0.954545
vt 0.636364 0.954545
vt 0.681818 0.954545
vt 0.727273 0.954545
vt 0.772727 0.954545
vt 0.818182 0.954545
vt 0.863636 0.954545
vt 0.909091 0.954545
vt 1.000000 0.954545
vt 0.954545 0.954545
vt 0.045455 1.000000
vt 0.000000 1.000000
vt 0.090909 1.000000
vt 0.136364 1.000000
vt 0.181818 1.000000
vt 0.227273 1.000000
vt 0.272727 1.000000
vt 0.318182 1.000000
vt 0.363636 1.000000
vt 0.409091 1.000000
vt 0.454545 1.000000
vt 0.500000 1.000000
vt 0.545455 1.000000
vt 0.636364 1.000000
vt 0.590909 1.000000
vt 0.681818 1.000000
vt 0.727273 1.000000
vt 0.772727 1.000000
vt 0.818182 1.000000
vt 0.863636 1.000000
vt 0.909091 1.000000
vt 0.954545 1.000000
vt 1.000000 0.000000
vt 1.000000 0.318182
vt 1.000000 0.590909
vt 1.000000 1.000000
s 1
usemtl Material.001
f 2/1/1 24/2/1 1/3/1
f 3/4/2 25/5/2 2/1/2
f 3/4/3 27/6/3 26/7/4
f 4/8/5 28/9/5 27/6/6
f 5/10/7 29/11/8 28/9/5
f 6/12/9 30/13/9 29/11/10
f 7/14/11 31/15/12 30/13/13
f 9/16/14 31/15/14 8/17/14
f 10/18/15 32/19/15 9/16/15
f 11/20/16 33/21/16 10/18/16
f 12/22/17 34/23/18 11/20/19
f 13/24/20 35/25/20 12/22/20
f 14/26/21 36/27/22 13/24/23
f 14/26/24 38/28/25 37/29/24
f 15/30/26 39/31/27 38/28/27
f 16/32/28 40/33/29 39/31/30
f 17/34/31 41/35/32 40/33/31
f 19/36/33 41/35/34 18/37/34
f 20/38/35 42/39/35 19/36/36
f 21/40/37 43/41/37 20/38/37
f 22/42/38 44/43/38 21/40/38
f 22/42/39 46/44/39 45/45/39
f 24/2/40 48/46/40 47/47/40
f 25/5/41 49/48/41 48/46/42
f 27/6/43 49/48/43 26/7/44
f 28/9/45 50/49/45 27/6/45
f 29/11/46 51/50/46 28/9/46
f 30/13/47 52/51/48 29/11/49
f 31/15/12 53/52/50 30/13/13
f 32/19/51 54/53/52 31/15/53
f 33/21/54 55/54/54 32/19/54
f 34/23/55 56/55/56 33/21/57
f 35/25/58 57/56/59 34/23/60
f 36/27/22 58/57/61 35/25/62
f 36/27/63 60/58/63 59/59/63
f 38/28/64 60/58/65 37/29/65
f 39/31/27 61/60/66 38/28/27
f 39/31/30 63/61/30 62/62/67
f 40/33/68 64/63/69 63/61/70
f 41/35/71 65/64/72 64/63/69
f 43/41/73 65/64/73 42/39/73
f 44/43/74 66/65/74 43/41/75
f 45/45/76 67/66/76 44/43/76
f 45/45/77 69/67/77 68/68/77
f 47/47/78 71/69/79 70/70/80
f 48/46/81 72/71/82 71/69/83
f 50/49/84 72/71/85 49/48/86
f 51/50/87 73/72/87 50/49/87
f 52/51/88 74/73/88 51/50/88
f 53/52/89 75/74/90 52/51/91
f 54/53/92 76/75/93 53/52/50
f 55/54/94 77/76/95 54/53/96
f 56/55/97 78/77/97 55/54/98
f 57/56/99 79/78/100 56/55/101
f 58/57/102 80/79/102 57/56/103
f 59/59/104 81/80/105 58/57/106
f 59/59/107 83/81/108 82/82/109
f 60/58/110 84/83/111 83/81/108
f 62/62/112 84/83/112 61/60/113
f 62/62/67 86/84/114 85/85/115
f 63/61/70 87/86/116 86/84/117
f 64/63/69 88/87/118 87/86/116
f 65/64/119 89/88/119 88/87/120
f 66/65/121 90/89/121 89/88/122
f 67/66/123 91/90/123 90/89/124
f 69/67/125 91/90/125 68/68/125
f 70/70/126 94/91/126 93/92/126
f 71/69/83 95/93/127 94/91/128
f 73/72/129 95/93/130 72/71/85
f 74/73/131 96/94/132 73/72/133
f 75/74/90 97/95/134 74/73/135
f 76/75/136 98/96/137 75/74/138
f 77/76/139 99/97/139 76/75/139
f 78/77/140 100/98/141 77/76/142
f 79/78/143 101/99/143 78/77/143
f 80/79/144 102/100/145 79/78/100
f 80/79/146 104/101/146 103/102/147
f 82/82/148 104/101/148 81/80/149
f 82/82/150 106/103/150 105/104/150
f 83/81/108 107/105/151 106/103/152
f 84/83/153 108/106/154 107/105/155
f 86/84/156 108/106/156 85/85/157
f 86/84/158 110/107/159 109/108/160
f 87/86/116 111/109/161 110/107/159
f 88/87/162 112/110/162 111/109/163
f 89/88/164 113/111/165 112/110/166
f 90/89/167 114/112/168 113/111/169
f 92/113/170 114/112/171 91/90/172
f 93/92/173 117/114/174 116/115/174
f 94/91/175 118/116/175 117/114/176
f 96/94/177 118/116/177 95/93/178
f 96/94/179 120/117/179 119/118/179
f 98/96/180 120/117/181 97/95/182
f 99/97/183 121/119/184 98/96/185
f 100/98/186 122/120/186 99/97/186
f 101/99/187 123/121/188 100/98/189
f 102/100/190 124/122/190 101/99/190
f 103/102/191 125/123/191 102/100/191
f 103/102/192 127/124/192 126/125/192
f 104/101/193 128/126/193 127/124/193
f 106/103/194 128/126/194 105/104/194
f 106/103/195 130/127/195 129/128/195
f 107/105/155 131/129/196 130/127/197
f 109/108/198 131/129/198 108/106/198
f 110/107/199 132/130/199 109/108/199
f 110/107/200 134/131/201 133/132/200
f 111/109/202 135/133/202 134/131/202
f 112/110/166 136/134/203 135/133/204
f 113/111/169 137/135/169 136/134/205
f 115/136/206 137/135/207 114/112/171
f 117/114/174 139/137/208 116/115/174
f 117/114/209 141/138/210 140/139/211
f 118/116/212 142/140/213 141/138/210
f 120/117/214 142/140/214 119/118/214
f 121/119/215 143/141/216 120/117/217
f 122/120/218 144/142/218 121/119/218
f 123/121/219 145/143/219 122/120/220
f 123/121/221 147/144/221 146/145/221
f 124/122/222 148/146/222 147/144/222
f 125/123/223 149/147/223 148/146/223
f 126/125/224 150/148/225 149/147/226
f 127/124/227 151/149/228 150/148/229
f 129/128/230 151/149/230 128/126/230
f 130/127/231 152/150/231 129/128/231
f 130/127/232 154/151/233 153/152/234
f 132/130/235 154/151/236 131/129/237
f 132/130/238 156/153/238 155/154/238
f 133/132/239 157/155/239 156/153/239
f 134/131/240 158/156/241 157/155/242
f 135/133/204 159/157/243 158/156/241
f 136/134/205 160/158/244 159/157/245
f 138/159/246 160/158/246 137/135/247
f 140/139/248 162/160/248 139/137/248
f 140/139/249 164/161/249 163/162/249
f 141/138/250 165/163/251 164/161/252
f 143/141/216 165/163/253 142/140/254
f 144/142/255 166/164/256 143/141/257
f 145/143/258 167/165/259 144/142/255
f 146/145/260 168/166/260 145/143/261
f 146/145/262 170/167/262 169/168/263
f 147/144/264 171/169/264 170/167/264
f 149/147/265 171/169/266 148/146/266
f 150/148/267 172/170/267 149/147/267
f 150/148/268 174/171/269 173/172/270
f 151/149/271 175/173/272 174/171/269
f 153/152/273 175/173/273 152/150/273
f 154/151/274 176/174/274 153/152/274
f 154/151/275 178/175/276 177/176/277
f 155/154/278 179/177/279 178/175/276
f 156/153/280 180/178/280 179/177/280
f 157/155/281 181/179/281 180/178/281
f 158/156/282 182/180/283 181/179/284
f 160/158/285 182/180/285 159/157/286
f 161/181/287 183/182/287 160/158/287
f 163/162/288 185/183/289 162/160/290
f 163/162/291 187/184/292 186/185/293
f 164/161/294 188/186/295 187/184/292
f 165/163/296 189/187/296 188/186/296
f 166/164/297 190/188/297 189/187/297
f 167/165/298 191/189/299 190/188/300
f 168/166/301 192/190/301 191/189/302
f 170/167/303 192/190/303 169/168/304
f 171/169/305 193/191/306 170/167/307
f 172/170/308 194/192/309 171/169/305
f 173/172/310 195/193/310 172/170/310
f 173/172/311 197/194/311 196/195/311
f 174/171/269 198/196/312 197/194/313
f 175/173/314 199/197/315 198/196/316
f 176/174/317 200/198/318 199/197/315
f 177/176/319 201/199/319 200/198/319
f 178/175/320 202/200/320 201/199/320
f 179/177/321 203/201/321 202/200/321
f 181/179/322 203/201/322 180/178/322
f 182/180/323 204/202/323 181/179/323
f 182/180/324 206/203/325 205/204/326
f 183/182/327 207/205/327 206/203/327
f 186/185/328 208/206/328 185/183/328
f 187/184/329 209/207/330 186/185/331
f 188/186/332 210/208/333 187/184/334
f 188/186/335 212/209/335 211/210/335
f 189/187/336 213/211/336 212/209/336
f 190/188/337 214/212/338 213/211/339
f 191/189/340 215/213/340 214/212/341
f 193/191/342 215/213/342 192/190/343
f 194/192/344 216/214/344 193/191/344
f 195/193/345 217/215/346 194/192/347
f 196/195/348 218/216/348 195/193/348
f 196/195/349 220/217/349 219/218/349
f 197/194/350 221/219/351 220/217/352
f 198/196/353 222/220/354 221/219/351
f 199/197/355 223/221/356 222/220/354
f 200/198/357 224/222/357 223/221/357
f 201/199/358 225/223/358 224/222/358
f 203/201/359 225/223/359 202/200/359
f 204/202/360 226/224/360 203/201/360
f 205/204/361 227/225/362 204/202/363
f 205/204/326 229/226/364 228/227/365
f 206/203/366 230/228/366 229/226/366
f 209/207/367 231/229/367 208/206/367
f 210/208/368 232/230/369 209/207/370
f 211/210/371 233/231/372 210/208/373
f 211/210/374 235/232/374 234/233/375
f 212/209/376 236/234/376 235/232/376
f 213/211/377 237/235/378 236/234/379
f 214/212/380 238/236/381 237/235/382
f 216/214/383 238/236/384 215/213/385
f 217/215/386 239/237/386 216/214/386
f 218/216/387 240/238/387 217/215/387
f 219/218/388 241/239/389 218/216/390
f 219/218/391 243/240/392 242/241/393
f 220/217/394 244/242/395 243/240/392
f 221/219/396 245/243/397 244/242/398
f 222/220/399 246/244/400 245/243/397
f 223/221/401 247/245/402 246/244/400
f 224/222/403 248/246/403 247/245/404
f 225/223/405 249/247/406 248/246/407
f 226/224/408 250/248/409 249/247/406
f 227/225/410 251/249/410 250/248/411
f 229/226/412 251/249/412 228/227/413
f 230/228/414 252/250/415 229/226/416
f 232/230/417 254/251/417 231/229/417
f 233/231/418 255/252/419 232/230/369
f 234/233/420 256/253/421 233/231/372
f 234/233/422 258/254/422 257/255/422
f 235/232/423 259/256/424 258/254/425
f 236/234/426 260/257/427 259/256/424
f 237/235/428 261/258/428 260/257/429
f 239/237/430 261/258/431 238/236/432
f 240/238/433 262/259/434 239/237/435
f 241/239/389 263/260/436 240/238/437
f 242/241/393 264/261/438 241/239/439
f 243/240/392 265/262/440 242/241/393
f 243/240/392 267/263/441 266/264/440
f 244/242/398 268/265/442 267/263/441
f 245/243/397 269/266/443 268/265/442
f 246/244/400 270/267/444 269/266/443
f 247/245/445 271/268/446 270/267/447
f 248/246/448 272/269/448 271/268/448
f 249/247/449 273/270/450 272/269/451
f 250/248/452 274/271/453 273/270/454
f 252/250/455 274/271/456 251/249/457
f 253/272/458 275/273/458 252/250/459
f 255/252/460 277/274/461 254/251/462
f 256/253/463 278/275/464 255/252/460
f 257/255/465 279/276/465 256/253/466
f 257/255/467 281/277/467 280/278/467
f 258/254/468 282/279/468 281/277/468
f 259/256/469 283/280/470 282/279/471
f 260/257/472 284/281/472 283/280/473
f 262/259/474 284/281/475 261/258/476
f 263/260/477 285/282/478 262/259/474
f 264/261/438 286/283/440 263/260/477
f 265/262/440 287/284/440 264/261/438
f 266/264/440 288/285/440 265/262/440
f 267/263/441 289/286/440 266/264/440
f 268/265/442 290/287/479 267/263/441
f 268/265/442 292/288/480 291/289/481
f 269/266/443 293/290/482 292/288/480
f 270/267/483 294/291/483 293/290/483
f 271/268/484 295/292/484 294/291/484
f 272/269/485 296/293/486 295/292/487
f 273/270/454 297/294/488 296/293/489
f 275/273/490 297/294/491 274/271/456
f 276/295/492 298/296/492 275/273/492
f 277/274/493 301/297/493 300/298/493
f 278/275/494 302/299/494 301/297/495
f 279/276/496 303/300/496 302/299/497
f 281/277/498 303/300/498 280/278/499
f 282/279/500 304/301/501 281/277/502
f 283/280/503 305/302/504 282/279/500
f 284/281/505 306/303/506 283/280/507
f 285/282/478 307/304/508 284/281/505
f 286/283/440 308/305/509 285/282/478
f 287/284/440 309/306/510 286/283/440
f 288/285/440 310/307/511 287/284/440
f 289/286/440 311/308/440 288/285/440
f 290/287/479 312/309/440 289/286/440
f 291/289/481 313/310/440 290/287/479
f 292/288/480 314/311/512 291/289/481
f 293/290/513 315/312/514 292/288/480
f 294/291/515 316/313/516 293/290/517
f 295/292/518 317/314/518 294/291/518
f 295/292/519 319/315/520 318/316/519
f 296/293/521 320/317/522 319/315/523
f 298/296/524 320/317/524 297/294/525
f 299/318/526 321/319/526 298/296/526
f 300/298/527 324/320/527 323/321/527
f 301/297/528 325/322/528 324/320/528
f 302/299/529 326/323/530 325/322/531
f 304/301/532 326/323/532 303/300/532
f 305/302/533 327/324/533 304/301/533
f 306/303/534 328/325/534 305/302/534
f 307/304/508 329/326/535 306/303/536
f 308/305/509 330/327/537 307/304/508
f 308/305/509 332/328/538 331/329/539
f 309/306/510 333/330/540 332/328/538
f 310/307/511 334/331/541 333/330/540
f 312/309/440 334/331/541 311/308/440
f 313/310/440 335/332/440 312/309/440
f 314/311/512 336/333/542 313/310/440
f 315/312/514 337/334/543 314/311/512
f 316/313/516 338/335/544 315/312/545
f 317/314/546 339/336/547 316/313/548
f 318/316/549 340/337/550 317/314/551
f 319/315/552 341/338/552 318/316/552
f 320/317/553 342/339/553 319/315/554
f 321/319/555 343/340/555 320/317/556
f 321/319/557 345/341/557 344/342/557
f 324/320/558 346/343/558 323/321/558
f 325/322/559 347/344/559 324/320/559
f 325/322/560 349/345/560 348/346/560
f 326/323/561 350/347/561 349/345/561
f 327/324/562 351/348/562 350/347/562
f 328/325/563 352/349/564 351/348/565
f 330/327/566 352/349/567 329/326/568
f 331/329/569 353/350/570 330/327/566
f 331/329/569 355/351/571 354/352/572
f 332/328/573 356/353/574 355/351/571
f 333/330/575 357/354/575 356/353/575
f 334/331/541 358/355/576 357/354/577
f 336/333/542 358/355/578 335/332/440
f 337/334/543 359/356/579 336/333/542
f 338/335/544 360/357/580 337/334/581
f 339/336/547 361/358/582 338/335/583
f 340/337/550 362/359/584 339/336/585
f 341/338/586 363/360/586 340/337/586
f 342/339/587 364/361/588 341/338/589
f 343/340/590 365/362/590 342/339/591
f 344/342/592 366/363/593 343/340/594
f 344/342/595 368/364/595 367/365/595
f 347/344/596 369/366/596 346/343/596
f 348/346/597 370/367/597 347/344/597
f 348/346/598 372/368/599 371/369/600
f 349/345/601 373/370/601 372/368/601
f 350/347/602 374/371/602 373/370/602
f 351/348/603 375/372/604 374/371/605
f 353/350/606 375/372/607 352/349/608
f 354/352/609 376/373/610 353/350/606
f 354/352/611 378/374/612 377/375/613
f 355/351/614 379/376/615 378/374/616
f 356/353/617 380/377/618 379/376/619
f 357/354/620 381/378/621 380/377/622
f 358/355/576 382/379/623 381/378/624
f 360/357/580 382/379/625 359/356/626
f 361/358/582 383/380/627 360/357/628
f 362/359/629 384/381/630 361/358/631
f 363/360/632 385/382/633 362/359/634
f 364/361/635 386/383/636 363/360/637
f 365/362/638 387/384/639 364/361/588
f 366/363/640 388/385/641 365/362/642
f 367/365/643 389/386/644 366/363/645
f 367/365/646 391/387/647 390/388/648
f 370/367/649 392/389/649 369/366/649
f 371/369/650 393/390/650 370/367/650
f 371/369/651 395/391/651 394/392/651
f 372/368/652 396/393/652 395/391/652
f 373/370/653 397/394/653 396/393/653
f 374/371/654 398/395/654 397/394/654
f 375/372/655 399/396/655 398/395/655
f 377/375/656 399/396/657 376/373/658
f 377/375/659 401/397/660 400/398/661
f 378/374/662 402/399/663 401/397/664
f 379/376/665 403/400/666 402/399/667
f 380/377/668 404/401/669 403/400/670
f 381/378/671 405/402/672 404/401/673
f 383/380/627 405/402/674 382/379/675
f 384/381/676 406/403/676 383/380/676
f 385/382/677 407/404/678 384/381/679
f 386/383/680 408/405/680 385/382/680
f 387/384/681 409/406/681 386/383/681
f 388/385/682 410/407/682 387/384/682
f 389/386/683 411/408/684 388/385/685
f 390/388/686 412/409/687 389/386/644
f 390/388/688 414/410/688 413/411/688
f 393/390/689 415/412/690 392/389/691
f 394/392/692 416/413/692 393/390/692
f 394/392/693 418/414/693 417/415/693
f 395/391/694 419/416/694 418/414/694
f 396/393/695 420/417/696 419/416/697
f 397/394/698 421/418/699 420/417/700
f 398/395/701 422/419/701 421/418/702
f 400/398/703 422/419/703 399/396/657
f 400/398/661 424/420/704 423/421/705
f 401/397/706 425/422/706 424/420/706
f 402/399/707 426/423/707 425/422/707
f 403/400/670 427/424/708 426/423/709
f 404/401/673 428/425/673 427/424/710
f 406/403/711 428/425/712 405/402/674
f 407/404/713 429/426/713 406/403/713
f 408/405/714 430/427/715 407/404/716
f 409/406/717 431/428/718 408/405/719
f 410/407/720 432/429/720 409/406/720
f 411/408/721 433/430/721 410/407/721
f 412/409/722 434/431/723 411/408/724
f 413/411/725 435/432/725 412/409/726
f 413/411/727 437/433/727 436/434/727
f 415/412/728 439/435/728 438/436/728
f 416/413/729 440/437/729 439/435/730
f 417/415/731 441/438/731 440/437/731
f 419/416/732 441/438/732 418/414/732
f 420/417/733 442/439/733 419/416/733
f 420/417/734 444/440/734 443/441/734
f 422/419/735 444/440/735 421/418/735
f 423/421/736 445/442/737 422/419/703
f 423/421/705 447/443/738 446/444/739
f 424/420/740 448/445/740 447/443/741
f 425/422/742 449/446/742 448/445/742
f 426/423/709 450/447/743 449/446/744
f 427/424/710 451/448/745 450/447/746
f 429/426/747 451/448/748 428/425/712
f 430/427/749 452/449/749 429/426/750
f 431/428/751 453/450/751 430/427/751
f 432/429/752 454/451/753 431/428/754
f 433/430/755 455/452/755 432/429/755
f 434/431/756 456/453/756 433/430/757
f 435/432/758 457/454/758 434/431/759
f 436/434/760 458/455/760 435/432/761
f 436/434/762 460/456/762 459/457/762
f 438/436/763 462/458/763 461/459/763
f 439/435/764 463/460/765 462/458/766
f 440/437/767 464/461/767 463/460/767
f 442/439/768 464/461/768 441/438/768
f 443/441/769 465/462/769 442/439/769
f 444/440/770 466/463/770 443/441/770
f 445/442/771 467/464/772 444/440/773
f 446/444/774 468/465/774 445/442/775
f 446/444/776 470/466/776 469/467/777
f 447/443/778 471/468/778 470/466/779
f 448/445/780 472/469/780 471/468/780
f 449/446/781 473/470/782 472/469/783
f 450/447/784 474/471/784 473/470/785
f 452/449/786 474/471/786 451/448/787
f 453/450/788 475/472/788 452/449/789
f 454/451/790 476/473/791 453/450/792
f 455/452/793 477/474/794 454/451/790
f 456/453/795 478/475/795 455/452/796
f 457/454/797 479/476/797 456/453/798
f 458/455/799 480/477/799 457/454/800
f 459/457/801 481/478/801 458/455/802
f 459/457/803 483/479/803 482/480/803
f 461/459/804 485/481/804 484/482/804
f 462/458/805 486/483/805 485/481/805
f 463/460/806 487/484/806 486/483/806
f 464/461/807 488/485/808 487/484/809
f 465/462/810 489/486/810 488/485/810
f 466/463/811 490/487/811 489/486/811
f 468/465/812 490/487/812 467/464/813
f 469/467/814 491/488/814 468/465/814
f 469/467/815 493/489/815 492/490/816
f 470/466/817 494/491/817 493/489/818
f 471/468/819 495/492/819 494/491/820
f 472/469/821 496/493/821 495/492/822
f 473/470/823 497/494/823 496/493/824
f 475/472/825 497/494/825 474/471/826
f 476/473/827 498/495/827 475/472/828
f 477/474/829 499/496/829 476/473/830
f 478/475/831 500/497/832 477/474/829
f 479/476/833 501/498/834 478/475/831
f 480/477/835 502/499/835 479/476/836
f 481/478/837 503/500/837 480/477/838
f 482/480/839 504/501/839 481/478/840
f 482/480/841 506/502/841 505/503/841
f 484/482/842 508/504/842 507/505/842
f 485/481/843 509/506/843 508/504/843
f 486/483/844 510/507/844 509/506/844
f 487/484/845 511/508/845 510/507/845
f 488/485/846 512/509/846 511/508/846
f 489/486/847 513/510/847 512/509/848
f 490/487/849 514/511/849 513/510/850
f 491/488/851 515/512/851 514/511/852
f 493/489/853 515/512/853 492/490/853
f 494/491/854 516/513/854 493/489/854
f 495/492/855 517/514/855 494/491/855
f 496/493/856 518/515/856 495/492/856
f 497/494/857 519/516/857 496/493/857
f 497/494/858 521/517/858 520/518/859
f 498/495/860 522/519/860 521/517/861
f 499/496/862 523/520/863 522/519/864
f 500/497/865 524/521/866 523/520/863
f 501/498/867 525/522/867 524/521/868
f 502/499/869 526/523/869 525/522/870
f 503/500/871 527/524/872 526/523/873
f 504/501/874 528/525/874 527/524/875
f 506/502/876 528/525/876 505/503/876
f 2/1/877 25/5/877 24/2/877
f 3/4/878 26/7/878 25/5/878
f 3/4/3 4/8/879 27/6/3
f 4/8/5 5/10/7 28/9/5
f 5/10/7 6/12/880 29/11/8
f 6/12/9 7/14/881 30/13/9
f 7/14/11 8/17/882 31/15/12
f 9/16/883 32/19/51 31/15/53
f 10/18/16 33/21/16 32/19/884
f 11/20/19 34/23/18 33/21/885
f 12/22/886 35/25/886 34/23/886
f 13/24/23 36/27/22 35/25/62
f 14/26/24 37/29/24 36/27/887
f 14/26/888 15/30/888 38/28/888
f 15/30/889 16/32/889 39/31/889
f 16/32/28 17/34/890 40/33/29
f 17/34/891 18/37/34 41/35/34
f 19/36/892 42/39/892 41/35/892
f 20/38/35 43/41/893 42/39/35
f 21/40/894 44/43/894 43/41/894
f 22/42/895 45/45/895 44/43/895
f 22/42/896 23/526/896 46/44/896
f 24/2/897 25/5/897 48/46/897
f 25/5/41 26/7/898 49/48/41
f 27/6/43 50/49/899 49/48/43
f 28/9/900 51/50/900 50/49/900
f 29/11/49 52/51/48 51/50/901
f 30/13/902 53/52/902 52/51/902
f 31/15/12 54/53/92 53/52/50
f 32/19/903 55/54/94 54/53/96
f 33/21/57 56/55/56 55/54/904
f 34/23/60 57/56/59 56/55/905
f 35/25/58 58/57/906 57/56/59
f 36/27/907 59/59/104 58/57/106
f 36/27/908 37/29/65 60/58/65
f 38/28/909 61/60/910 60/58/910
f 39/31/911 62/62/911 61/60/911
f 39/31/30 40/33/29 63/61/30
f 40/33/31 41/35/32 64/63/32
f 41/35/912 42/39/912 65/64/912
f 43/41/913 66/65/913 65/64/913
f 44/43/74 67/66/914 66/65/74
f 45/45/76 68/68/915 67/66/76
f 45/45/916 46/44/916 69/67/916
f 47/47/917 48/46/917 71/69/917
f 48/46/81 49/48/918 72/71/82
f 50/49/84 73/72/129 72/71/85
f 51/50/919 74/73/131 73/72/133
f 52/51/91 75/74/90 74/73/135
f 53/52/920 76/75/136 75/74/138
f 54/53/92 77/76/921 76/75/93
f 55/54/94 78/77/922 77/76/95
f 56/55/97 79/78/923 78/77/97
f 57/56/99 80/79/144 79/78/100
f 58/57/102 81/80/924 80/79/102
f 59/59/104 82/82/925 81/80/105
f 59/59/926 60/58/926 83/81/926
f 60/58/910 61/60/910 84/83/927
f 62/62/112 85/85/928 84/83/112
f 62/62/67 63/61/30 86/84/114
f 63/61/70 64/63/69 87/86/116
f 64/63/69 65/64/72 88/87/118
f 65/64/119 66/65/929 89/88/119
f 66/65/121 67/66/930 90/89/121
f 67/66/123 68/68/123 91/90/123
f 69/67/125 92/113/931 91/90/125
f 70/70/80 71/69/79 94/91/932
f 71/69/83 72/71/82 95/93/127
f 73/72/129 96/94/933 95/93/130
f 74/73/934 97/95/934 96/94/934
f 75/74/935 98/96/180 97/95/182
f 76/75/936 99/97/183 98/96/185
f 77/76/142 100/98/141 99/97/937
f 78/77/140 101/99/938 100/98/141
f 79/78/939 102/100/939 101/99/939
f 80/79/940 103/102/940 102/100/940
f 80/79/146 81/80/941 104/101/146
f 82/82/148 105/104/942 104/101/148
f 82/82/109 83/81/108 106/103/152
f 83/81/108 84/83/111 107/105/151
f 84/83/153 85/85/943 108/106/154
f 86/84/156 109/108/944 108/106/156
f 86/84/158 87/86/116 110/107/159
f 87/86/116 88/87/118 111/109/161
f 88/87/162 89/88/945 112/110/162
f 89/88/164 90/89/946 113/111/165
f 90/89/167 91/90/947 114/112/168
f 92/113/170 115/136/206 114/112/171
f 93/92/948 94/91/948 117/114/948
f 94/91/175 95/93/949 118/116/175
f 96/94/177 119/118/950 118/116/177
f 96/94/951 97/95/951 120/117/951
f 98/96/952 121/119/952 120/117/952
f 99/97/953 122/120/953 121/119/953
f 100/98/189 123/121/188 122/120/954
f 101/99/955 124/122/956 123/121/956
f 102/100/957 125/123/958 124/122/958
f 103/102/959 126/125/224 125/123/960
f 103/102/961 104/101/961 127/124/961
f 104/101/962 105/104/962 128/126/962
f 106/103/963 129/128/963 128/126/963
f 106/103/152 107/105/151 130/127/964
f 107/105/155 108/106/154 131/129/196
f 109/108/965 132/130/235 131/129/237
f 110/107/200 133/132/200 132/130/966
f 110/107/967 111/109/967 134/131/967
f 111/109/968 112/110/968 135/133/968
f 112/110/166 113/111/165 136/134/203
f 113/111/169 114/112/168 137/135/169
f 115/136/206 138/159/969 137/135/207
f 117/114/209 140/139/211 139/137/970
f 117/114/209 118/116/212 141/138/210
f 118/116/212 119/118/971 142/140/213
f 120/117/217 143/141/216 142/140/254
f 121/119/972 144/142/972 143/141/972
f 122/120/973 145/143/973 144/142/973
f 123/121/219 146/145/974 145/143/219
f 123/121/956 124/122/956 147/144/975
f 124/122/958 125/123/958 148/146/976
f 125/123/960 126/125/224 149/147/226
f 126/125/977 127/124/227 150/148/229
f 127/124/978 128/126/978 151/149/978
f 129/128/979 152/150/979 151/149/979
f 130/127/232 153/152/234 152/150/980
f 130/127/232 131/129/981 154/151/233
f 132/130/982 155/154/982 154/151/982
f 132/130/983 133/132/983 156/153/983
f 133/132/984 134/131/984 157/155/984
f 134/131/240 135/133/204 158/156/241
f 135/133/204 136/134/203 159/157/243
f 136/134/205 137/135/169 160/158/244
f 138/159/246 161/181/985 160/158/246
f 140/139/986 163/162/288 162/160/290
f 140/139/987 141/138/250 164/161/252
f 141/138/250 142/140/988 165/163/251
f 143/141/216 166/164/989 165/163/253
f 144/142/255 167/165/259 166/164/256
f 145/143/258 168/166/990 167/165/259
f 146/145/260 169/168/991 168/166/260
f 146/145/262 147/144/992 170/167/262
f 147/144/993 148/146/266 171/169/266
f 149/147/994 172/170/308 171/169/305
f 150/148/995 173/172/995 172/170/995
f 150/148/996 151/149/996 174/171/996
f 151/149/997 152/150/997 175/173/997
f 153/152/998 176/174/998 175/173/998
f 154/151/275 177/176/277 176/174/999
f 154/151/275 155/154/278 178/175/276
f 155/154/1000 156/153/1000 179/177/1000
f 156/153/1001 157/155/1001 180/178/1001
f 157/155/1002 158/156/282 181/179/284
f 158/156/1003 159/157/1003 182/180/1003
f 160/158/285 183/182/1004 182/180/285
f 161/181/1005 184/527/1005 183/182/1005
f 163/162/288 186/185/1006 185/183/289
f 163/162/291 164/161/294 187/184/292
f 164/161/294 165/163/1007 188/186/295
f 165/163/1008 166/164/1008 189/187/1008
f 166/164/1009 167/165/298 190/188/300
f 167/165/298 168/166/1010 191/189/299
f 168/166/301 169/168/1011 192/190/301
f 170/167/303 193/191/1012 192/190/303
f 171/169/305 194/192/309 193/191/306
f 172/170/1013 195/193/345 194/192/347
f 173/172/1014 196/195/1014 195/193/1014
f 173/172/270 174/171/269 197/194/313
f 174/171/269 175/173/272 198/196/312
f 175/173/314 176/174/317 199/197/315
f 176/174/1015 177/176/1015 200/198/1015
f 177/176/1016 178/175/1016 201/199/1016
f 178/175/276 179/177/279 202/200/1017
f 179/177/1018 180/178/1018 203/201/1018
f 181/179/1019 204/202/1019 203/201/1019
f 182/180/1020 205/204/361 204/202/363
f 182/180/324 183/182/1021 206/203/325
f 183/182/1022 184/527/1022 207/205/1022
f 186/185/331 209/207/330 208/206/1023
f 187/184/334 210/208/333 209/207/1024
f 188/186/332 211/210/1025 210/208/333
f 188/186/1026 189/187/1026 212/209/1026
f 189/187/1027 190/188/337 213/211/339
f 190/188/1028 191/189/1028 214/212/1028
f 191/189/340 192/190/1029 215/213/340
f 193/191/342 216/214/1030 215/213/342
f 194/192/1031 217/215/1031 216/214/1031
f 195/193/1032 218/216/1032 217/215/1032
f 196/195/1033 219/218/388 218/216/390
f 196/195/1034 197/194/350 220/217/352
f 197/194/350 198/196/353 221/219/351
f 198/196/353 199/197/355 222/220/354
f 199/197/355 200/198/1035 223/221/356
f 200/198/1036 201/199/1036 224/222/1036
f 201/199/1037 202/200/1037 225/223/1037
f 203/201/1038 226/224/1038 225/223/1038
f 204/202/1039 227/225/1039 226/224/1039
f 205/204/1040 228/227/1040 227/225/1040
f 205/204/326 206/203/325 229/226/364
f 206/203/1041 207/205/1041 230/228/1041
f 209/207/370 232/230/369 231/229/1042
f 210/208/368 233/231/418 232/230/369
f 211/210/371 234/233/420 233/231/372
f 211/210/374 212/209/1043 235/232/374
f 212/209/1044 213/211/377 236/234/379
f 213/211/377 214/212/1045 237/235/378
f 214/212/380 215/213/1046 238/236/381
f 216/214/383 239/237/1047 238/236/384
f 217/215/1048 240/238/433 239/237/435
f 218/216/390 241/239/389 240/238/437
f 219/218/391 242/241/393 241/239/439
f 219/218/391 220/217/394 243/240/392
f 220/217/394 221/219/1049 244/242/395
f 221/219/396 222/220/399 245/243/397
f 222/220/399 223/221/401 246/244/400
f 223/221/401 224/222/1050 247/245/402
f 224/222/403 225/223/1051 248/246/403
f 225/223/405 226/224/408 249/247/406
f 226/224/408 227/225/1052 250/248/409
f 227/225/410 228/227/1053 251/249/410
f 229/226/412 252/250/1054 251/249/412
f 230/228/414 253/272/1055 252/250/415
f 232/230/369 255/252/419 254/251/1056
f 233/231/418 256/253/1057 255/252/419
f 234/233/420 257/255/1058 256/253/421
f 234/233/1059 235/232/1059 258/254/1059
f 235/232/423 236/234/426 259/256/424
f 236/234/1060 237/235/1060 260/257/1060
f 237/235/428 238/236/1061 261/258/428
f 239/237/430 262/259/1062 261/258/431
f 240/238/1063 263/260/1063 262/259/1063
f 241/239/439 264/261/438 263/260/477
f 242/241/393 265/262/440 264/261/438
f 243/240/392 266/264/440 265/262/440
f 243/240/392 244/242/398 267/263/441
f 244/242/398 245/243/397 268/265/442
f 245/243/397 246/244/400 269/266/443
f 246/244/400 247/245/402 270/267/444
f 247/245/1064 248/246/1064 271/268/1064
f 248/246/1065 249/247/449 272/269/451
f 249/247/449 250/248/1066 273/270/450
f 250/248/452 251/249/1067 274/271/453
f 252/250/455 275/273/490 274/271/456
f 253/272/458 276/295/1068 275/273/458
f 255/252/460 278/275/464 277/274/461
f 256/253/463 279/276/1069 278/275/464
f 257/255/465 280/278/1070 279/276/465
f 257/255/1071 258/254/1071 281/277/1071
f 258/254/1072 259/256/469 282/279/471
f 259/256/469 260/257/1073 283/280/470
f 260/257/472 261/258/1074 284/281/472
f 262/259/474 285/282/478 284/281/475
f 263/260/477 286/283/440 285/282/478
f 264/261/438 287/284/440 286/283/440
f 265/262/440 288/285/440 287/284/440
f 266/264/440 289/286/440 288/285/440
f 267/263/441 290/287/479 289/286/440
f 268/265/442 291/289/481 290/287/479
f 268/265/442 269/266/443 292/288/480
f 269/266/443 270/267/444 293/290/482
f 270/267/447 271/268/446 294/291/1075
f 271/268/1076 272/269/485 295/292/487
f 272/269/1077 273/270/1077 296/293/1077
f 273/270/454 274/271/453 297/294/488
f 275/273/490 298/296/1078 297/294/491
f 276/295/1079 299/318/1079 298/296/1079
f 277/274/1080 278/275/1080 301/297/1080
f 278/275/494 279/276/1081 302/299/494
f 279/276/496 280/278/1082 303/300/496
f 281/277/498 304/301/1083 303/300/498
f 282/279/500 305/302/504 304/301/501
f 283/280/1084 306/303/1084 305/302/1084
f 284/281/505 307/304/508 306/303/506
f 285/282/478 308/305/509 307/304/508
f 286/283/440 309/306/510 308/305/509
f 287/284/440 310/307/511 309/306/510
f 288/285/440 311/308/440 310/307/511
f 289/286/440 312/309/440 311/308/440
f 290/287/479 313/310/440 312/309/440
f 291/289/481 314/311/512 313/310/440
f 292/288/480 315/312/514 314/311/512
f 293/290/517 316/313/516 315/312/545
f 294/291/515 317/314/1085 316/313/516
f 295/292/519 318/316/519 317/314/1086
f 295/292/1087 296/293/1087 319/315/1087
f 296/293/521 297/294/1088 320/317/522
f 298/296/524 321/319/1089 320/317/524
f 299/318/1090 322/528/1090 321/319/1090
f 300/298/1091 301/297/1091 324/320/1091
f 301/297/1092 302/299/1092 325/322/1092
f 302/299/529 303/300/1093 326/323/530
f 304/301/1094 327/324/1094 326/323/1094
f 305/302/1095 328/325/1095 327/324/1095
f 306/303/1096 329/326/1096 328/325/1096
f 307/304/508 330/327/537 329/326/535
f 308/305/509 331/329/539 330/327/537
f 308/305/509 309/306/510 332/328/538
f 309/306/510 310/307/511 333/330/540
f 310/307/511 311/308/440 334/331/541
f 312/309/440 335/332/440 334/331/541
f 313/310/440 336/333/542 335/332/440
f 314/311/512 337/334/543 336/333/542
f 315/312/545 338/335/544 337/334/581
f 316/313/548 339/336/547 338/335/583
f 317/314/551 340/337/550 339/336/585
f 318/316/549 341/338/1097 340/337/550
f 319/315/1098 342/339/1098 341/338/1098
f 320/317/553 343/340/1099 342/339/553
f 321/319/555 344/342/1100 343/340/555
f 321/319/1101 322/528/1101 345/341/1101
f 324/320/1102 347/344/1102 346/343/1102
f 325/322/1103 348/346/1103 347/344/1103
f 325/322/1104 326/323/1104 349/345/1104
f 326/323/1105 327/324/1105 350/347/1105
f 327/324/1106 328/325/1106 351/348/1106
f 328/325/1107 329/326/1107 352/349/1107
f 330/327/566 353/350/570 352/349/567
f 331/329/569 354/352/572 353/350/570
f 331/329/569 332/328/573 355/351/571
f 332/328/1108 333/330/1108 356/353/1108
f 333/330/540 334/331/541 357/354/577
f 334/331/541 335/332/440 358/355/578
f 336/333/542 359/356/579 358/355/578
f 337/334/581 360/357/580 359/356/626
f 338/335/583 361/358/582 360/357/628
f 339/336/1109 362/359/1109 361/358/1109
f 340/337/1110 363/360/632 362/359/634
f 341/338/1111 364/361/635 363/360/637
f 342/339/587 365/362/638 364/361/588
f 343/340/590 366/363/1112 365/362/590
f 344/342/592 367/365/1113 366/363/593
f 344/342/1114 345/341/1114 368/364/1114
f 347/344/1115 370/367/1115 369/366/1115
f 348/346/1116 371/369/1116 370/367/1116
f 348/346/598 349/345/1117 372/368/599
f 349/345/1118 350/347/1118 373/370/1118
f 350/347/1119 351/348/603 374/371/605
f 351/348/565 352/349/564 375/372/1120
f 353/350/606 376/373/610 375/372/607
f 354/352/609 377/375/1121 376/373/610
f 354/352/611 355/351/1122 378/374/612
f 355/351/1123 356/353/1123 379/376/1123
f 356/353/1124 357/354/620 380/377/622
f 357/354/577 358/355/576 381/378/624
f 358/355/576 359/356/1125 382/379/623
f 360/357/628 383/380/627 382/379/675
f 361/358/631 384/381/630 383/380/1126
f 362/359/1127 385/382/1127 384/381/1127
f 363/360/1128 386/383/1128 385/382/1128
f 364/361/1129 387/384/1129 386/383/1129
f 365/362/1130 388/385/1130 387/384/1130
f 366/363/640 389/386/1131 388/385/641
f 367/365/643 390/388/686 389/386/644
f 367/365/646 368/364/1132 391/387/647
f 370/367/1133 393/390/1133 392/389/1133
f 371/369/1134 394/392/1134 393/390/1134
f 371/369/1135 372/368/1135 395/391/1135
f 372/368/1136 373/370/1136 396/393/1136
f 373/370/1137 374/371/1137 397/394/1137
f 374/371/1138 375/372/1138 398/395/1138
f 375/372/1139 376/373/658 399/396/657
f 377/375/656 400/398/703 399/396/657
f 377/375/659 378/374/1140 401/397/660
f 378/374/616 379/376/615 402/399/1141
f 379/376/619 380/377/618 403/400/1142
f 380/377/622 381/378/621 404/401/1143
f 381/378/671 382/379/1144 405/402/672
f 383/380/627 406/403/711 405/402/674
f 384/381/679 407/404/678 406/403/1145
f 385/382/1146 408/405/1146 407/404/1146
f 386/383/1147 409/406/1147 408/405/1147
f 387/384/1148 410/407/1148 409/406/1148
f 388/385/1149 411/408/1149 410/407/1149
f 389/386/683 412/409/1150 411/408/684
f 390/388/686 413/411/1151 412/409/687
f 390/388/648 391/387/647 414/410/1152
f 393/390/689 416/413/1153 415/412/690
f 394/392/1154 417/415/1154 416/413/1154
f 394/392/1155 395/391/1155 418/414/1155
f 395/391/1156 396/393/1156 419/416/1156
f 396/393/695 397/394/1157 420/417/696
f 397/394/698 398/395/1158 421/418/699
f 398/395/701 399/396/1159 422/419/701
f 400/398/703 423/421/736 422/419/703
f 400/398/661 401/397/660 424/420/704
f 401/397/664 402/399/663 425/422/1160
f 402/399/667 403/400/666 426/423/1161
f 403/400/670 404/401/669 427/424/708
f 404/401/673 405/402/672 428/425/673
f 406/403/711 429/426/747 428/425/712
f 407/404/716 430/427/715 429/426/1162
f 408/405/719 431/428/718 430/427/1163
f 409/406/1164 432/429/1164 431/428/1164
f 410/407/1165 433/430/1165 432/429/1165
f 411/408/1166 434/431/1166 433/430/1166
f 412/409/722 435/432/1167 434/431/723
f 413/411/725 436/434/1168 435/432/725
f 413/411/1169 414/410/1169 437/433/1169
f 415/412/1170 416/413/1170 439/435/1170
f 416/413/729 417/415/1171 440/437/729
f 417/415/1172 418/414/1172 441/438/1172
f 419/416/1173 442/439/1173 441/438/1173
f 420/417/1174 443/441/1174 442/439/1174
f 420/417/1175 421/418/1175 444/440/1175
f 422/419/1176 445/442/1176 444/440/1176
f 423/421/736 446/444/1177 445/442/737
f 423/421/705 424/420/704 447/443/738
f 424/420/740 425/422/1178 448/445/740
f 425/422/1179 426/423/709 449/446/744
f 426/423/709 427/424/708 450/447/743
f 427/424/710 428/425/673 451/448/745
f 429/426/747 452/449/1180 451/448/748
f 430/427/749 453/450/1181 452/449/749
f 431/428/754 454/451/753 453/450/1182
f 432/429/1183 455/452/1183 454/451/1183
f 433/430/1184 456/453/1184 455/452/1184
f 434/431/756 457/454/1185 456/453/756
f 435/432/758 458/455/1186 457/454/758
f 436/434/760 459/457/1187 458/455/760
f 436/434/1188 437/433/1188 460/456/1188
f 438/436/1189 439/435/1189 462/458/1189
f 439/435/1190 440/437/1190 463/460/1190
f 440/437/1191 441/438/1191 464/461/1191
f 442/439/1192 465/462/1193 464/461/1194
f 443/441/1195 466/463/1195 465/462/1195
f 444/440/773 467/464/772 466/463/1196
f 445/442/1197 468/465/1197 467/464/1197
f 446/444/774 469/467/1198 468/465/774
f 446/444/776 447/443/1199 470/466/776
f 447/443/778 448/445/1200 471/468/778
f 448/445/1201 449/446/781 472/469/783
f 449/446/1202 450/447/1202 473/470/1202
f 450/447/784 451/448/1203 474/471/784
f 452/449/786 475/472/1204 474/471/786
f 453/450/788 476/473/788 475/472/788
f 454/451/790 477/474/794 476/473/791
f 455/452/793 478/475/1205 477/474/794
f 456/453/795 479/476/1206 478/475/795
f 457/454/797 480/477/1207 479/476/797
f 458/455/799 481/478/1208 480/477/799
f 459/457/801 482/480/1209 481/478/801
f 459/457/1210 460/456/1210 483/479/1210
f 461/459/1211 462/458/1211 485/481/1211
f 462/458/766 463/460/765 486/483/1212
f 463/460/1213 464/461/807 487/484/809
f 464/461/1194 465/462/1193 488/485/1214
f 465/462/1215 466/463/1215 489/486/1215
f 466/463/1216 467/464/1216 490/487/1216
f 468/465/812 491/488/1217 490/487/812
f 469/467/814 492/490/1218 491/488/814
f 469/467/815 470/466/1219 493/489/815
f 470/466/817 471/468/1220 494/491/817
f 471/468/819 472/469/1221 495/492/819
f 472/469/821 473/470/1222 496/493/821
f 473/470/823 474/471/1223 497/494/823
f 475/472/825 498/495/1224 497/494/825
f 476/473/827 499/496/1225 498/495/827
f 477/474/829 500/497/832 499/496/829
f 478/475/831 501/498/834 500/497/832
f 479/476/833 502/499/1226 501/498/834
f 480/477/835 503/500/1227 502/499/835
f 481/478/837 504/501/1228 503/500/837
f 482/480/839 505/503/1229 504/501/839
f 482/480/1230 483/479/1230 506/502/1230
f 484/482/1231 485/481/1231 508/504/1231
f 485/481/1232 486/483/1232 509/506/1232
f 486/483/1233 487/484/1233 510/507/1233
f 487/484/1234 488/485/1234 511/508/1234
f 488/485/1235 489/486/1235 512/509/1235
f 489/486/847 490/487/1236 513/510/847
f 490/487/849 491/488/1237 514/511/849
f 491/488/851 492/490/1238 515/512/851
f 493/489/1239 516/513/1239 515/512/1239
f 494/491/1240 517/514/1240 516/513/1240
f 495/492/1241 518/515/1241 517/514/1241
f 496/493/1242 519/516/1242 518/515/1242
f 497/494/1243 520/518/1243 519/516/1243
f 497/494/858 498/495/1244 521/517/858
f 498/495/860 499/496/1245 522/519/860
f 499/496/862 500/497/865 523/520/863
f 500/497/865 501/498/1246 524/521/866
f 501/498/867 502/499/1247 525/522/867
f 502/499/869 503/500/1248 526/523/869
f 503/500/871 504/501/1249 527/524/872
f 504/501/874 505/503/1250 528/525/874
f 506/502/1251 529/529/1251 528/525/1251
